<?xml version="1.0" encoding="UTF-8"?><svg xmlns="http://www.w3.org/2000/svg" viewBox="0 0 1851.74 1440.75"><defs><style>.d{fill:#fff;}.e{fill:#345166;}.f{fill:#a03e1c;}.g{fill:#7f3818;}.h{fill:#efe1eb;}.i{fill:#f9f6f2;}.j{fill:#2f2822;}.k{fill:#af7c79;}.l{fill:#e6e6e6;}.m{fill:#fae0ba;}.n{fill:#488399;}.o{fill:#ad4d23;}.p{fill:#702c2d;}.q{fill:#c15d25;}.r{fill:#c9b9c0;}.s{fill:#ed6e3b;}.t{fill:#5c5b5f;}.u{fill:#ff9a70;}.v{fill:#273d4d;}.w{fill:#afa8a1;}</style></defs><g id="a"/><g id="b"><g id="c"><g><g><polygon class="v" points="722.19 32.56 722.52 741.92 755.07 741.92 754.73 0 266.17 .09 348.74 226.7 379.33 215.56 312.68 32.64 722.19 32.56"/><g><path class="e" d="M633.94,212.71c-168.03-8.2-335.08,52.49-458.65,166.63-12.52-34.49-25.06-68.98-37.58-103.46,123.57-114.14,290.62-174.83,458.65-166.63,12.53,34.49,25.05,68.98,37.59,103.46Z"/><path class="d" d="M633.94,212.71c12.07,33.24-80.82,97.49-207.46,143.5-126.65,46.01-239.11,56.37-251.19,23.12-12.07-33.24,80.8-97.49,207.46-143.5,126.65-46.01,239.11-56.36,251.19-23.12Z"/><g><path class="m" d="M310.2,332.73c2.97,8.18-19.89,24-51.07,35.33-31.19,11.33-58.88,13.88-61.85,5.7-2.97-8.19,19.9-24,51.08-35.33,31.18-11.33,58.87-13.88,61.84-5.69Z"/><path class="m" d="M622.67,219.21c2.97,8.18-19.89,23.99-51.06,35.33-31.18,11.32-58.87,13.87-61.84,5.69-2.97-8.18,19.89-24,51.07-35.32,31.18-11.34,58.87-13.89,61.83-5.7Z"/><path class="m" d="M383.89,271.72c2.97,8.19-19.89,24-51.07,35.33-31.18,11.33-58.87,13.87-61.84,5.69-2.97-8.18,19.9-24,51.08-35.32,31.18-11.33,58.86-13.88,61.84-5.7Z"/><path class="m" d="M513.88,224.5c2.97,8.18-19.9,24-51.08,35.33-31.18,11.32-58.85,13.87-61.84,5.69-2.97-8.18,19.9-24,51.08-35.33,31.18-11.33,58.87-13.88,61.84-5.69Z"/><path class="m" d="M406.54,334.04c2.97,8.18-19.9,24-51.07,35.33-31.18,11.33-58.86,13.88-61.84,5.69-2.97-8.19,19.9-24.01,51.07-35.33,31.18-11.32,58.86-13.88,61.84-5.69Z"/><path class="m" d="M536.51,286.83c2.97,8.18-19.89,24-51.07,35.32-31.18,11.33-58.87,13.87-61.84,5.69-2.96-8.18,19.9-24,51.08-35.33,31.18-11.33,58.87-13.88,61.84-5.69Z"/></g></g></g><g><path class="v" d="M1082.14,1437.17v-38.72c0-13.86-11.23-25.09-25.09-25.09H455.2c-13.85,0-25.09,11.23-25.09,25.09v38.72h652.02Z"/><path class="v" d="M0,740.94s13.12,47.51,21.17,61.3c6.05,10.36,13.55,21.73,25.56,21.73H1469.35c12,0,18.13-10.68,23.86-21.23,8.71-16.01,19.03-61.79,19.03-61.79H0Z"/><g><rect class="t" x="560.1" y="824.11" width="392.05" height="126.18"/><rect class="v" x="557.25" y="928.89" width="397.75" height="444.47"/><g><path class="n" d="M959.51,832.58c0,2.02-1.64,3.65-3.66,3.65h-399.46c-2.02,0-3.65-1.63-3.65-3.65h0c0-2.01,1.63-3.65,3.65-3.65h399.46c2.02,0,3.66,1.64,3.66,3.65h0Z"/><path class="n" d="M959.51,845.03c0,2.02-1.64,3.66-3.66,3.66h-399.46c-2.02,0-3.65-1.64-3.65-3.66h0c0-2.01,1.63-3.65,3.65-3.65h399.46c2.02,0,3.66,1.64,3.66,3.65h0Z"/><path class="n" d="M959.51,857.5c0,2.01-1.64,3.65-3.66,3.65h-399.46c-2.02,0-3.65-1.64-3.65-3.65h0c0-2.02,1.63-3.66,3.65-3.66h399.46c2.02,0,3.66,1.64,3.66,3.66h0Z"/><path class="n" d="M959.51,869.96c0,2.02-1.64,3.66-3.66,3.66h-399.46c-2.02,0-3.65-1.64-3.65-3.66h0c0-2.02,1.63-3.65,3.65-3.65h399.46c2.02,0,3.66,1.62,3.66,3.65h0Z"/><path class="n" d="M959.51,882.42c0,2.01-1.64,3.65-3.66,3.65h-399.46c-2.02,0-3.65-1.64-3.65-3.65h0c0-2.02,1.63-3.66,3.65-3.66h399.46c2.02,0,3.66,1.64,3.66,3.66h0Z"/><path class="n" d="M959.51,894.88c0,2.02-1.64,3.66-3.66,3.66h-399.46c-2.02,0-3.65-1.64-3.65-3.66h0c0-2.01,1.63-3.65,3.65-3.65h399.46c2.02,0,3.66,1.63,3.66,3.65h0Z"/><path class="n" d="M959.51,907.34c0,2.02-1.64,3.66-3.66,3.66h-399.46c-2.02,0-3.65-1.64-3.65-3.66h0c0-2.02,1.63-3.65,3.65-3.65h399.46c2.02,0,3.66,1.63,3.66,3.65h0Z"/><path class="n" d="M959.51,919.81c0,2.01-1.64,3.64-3.66,3.64h-399.46c-2.02,0-3.65-1.63-3.65-3.64h0c0-2.02,1.63-3.66,3.65-3.66h399.46c2.02,0,3.66,1.64,3.66,3.66h0Z"/></g></g></g></g><g><path class="d" d="M1287.15,425.34l17.01,22.62,62.22,82.82c9.45,3.55,20.43,3.15,29.96-2.1l10.46-5.78,159.04-87.56c4.65-2.66,9.44-6.01,13.57-9.74,29.14-26.55,31.32-71.66,4.77-100.8-26.56-29.15-71.66-31.33-100.8-4.77l-108.11,98.39-42.2-30.98c-.73-.56-1.47-1.12-2.26-1.65-2.15-1.55-4.27-2.82-6.15-3.91-3.89-2.27-7.21-3.69-9.79-4.71-.61-.24-1.42-.49-2.53-.89-2.64-.98-6.55-2.6-11.2-4.98-1.83-.96-3.26-1.81-4.84-2.66-.11-.1-.37-.21-.48-.3-.86-.5-1.69-.95-2.54-1.46-2.58,.21-4.88,.88-6.97,1.75-4.87,1.95-9.24,5.27-12.49,9.57-1.83,2.35-3.29,4.88-4.38,7.79-.48,1.28-.89,2.53-1.16,3.79-3.46,13.65,4.4,23.04,18.88,35.56Z"/><path class="v" d="M1686.83,1101.4c-.3,12.9,8.65,250.33,9.01,253.8l-53.32-1.61c-16.48-44.03-74.87-333-74.66-349.38,.1-3.06,.1-7.09,.05-11.68-.1-19.75-.97-50.15,.15-63.46,1.07-12.91,6.38-24.44,14.39-33.37,11.53-12.75,28.67-20.15,47.09-18.62,27.8,2.35,51.22,25.25,53.92,51.99,1.64,16.37,3.72,155.96,3.37,172.33Z"/><path class="v" d="M1604.83,895.7c.15,3.77-.05,7.6-.71,11.43l-.15,1.07c-4.59,27.6-9.34,55.76-13.67,84.33-1.17,7.85-2.35,15.76-3.47,23.72-5.41,36.63-10.61,73.66-15.51,110.65l-3.57,27.19-4.39,27.81c-2.86,18.93-6.48,37.75-9.79,56.68-5.46,27.85-20.99,88.76-27.93,116.62l-53.32-1.61c-4.28-29.75,9.57-433.04,21.45-472.27,9.13-30,40.81-46.94,70.81-37.86,23.83,7.19,39.44,28.62,40.25,52.24Z"/><path class="d" d="M1757.85,1011.67c10.5-44.69-9.48-583.52-44.46-668.47-11.06-26.85-27.23-64.6-64.29-79.93-51.01-21.09-116.12,10.85-151.25,50.71-37.51,42.55-40.42,93.64-43.93,155.41-4.74,83.16-18.75,446.92-23.31,497.46,35.19,21.01,89.28,47.49,176.48,55.94,64.9,6.29,115.29-2.03,150.77-11.11Z"/><path class="d" d="M1703.91,327.33c20.94,28.8,42.42,57.34,64.38,86.31,21.95,28.96,44.23,58.44,66.02,88.31,0,0,5.94,8.1,5.94,8.1,19.37,26.42,13.66,63.54-12.75,82.9-1.12,.82-2.38,1.67-3.53,2.4-19.62,12.32-40.46,24.49-62.04,35.27-21.57,10.86-43.6,19.94-65.18,27.86-43.24,15.75-85.37,27.66-127.44,39.59-19.06,5.41-38.88-5.66-44.29-24.71-4.62-16.29,2.8-33.13,16.95-41.06,37.79-21.17,75.35-42.35,109.36-64.92,16.98-11.32,32.87-22.89,47.54-35.39,14.73-12.46,28.68-25.84,42.83-40.3l-10.35,93.4c-23.8-26.64-48.04-52.9-72.74-79.57-24.69-26.65-49.73-53.87-74.38-81.56-28.41-31.91-25.57-80.58,6.19-108.85,31.77-28.27,80.44-25.44,108.72,6.32,1.67,1.88,3.3,3.91,4.76,5.9Z"/><path class="u" d="M1479.38,235.19c5.57,7.76,11.81,17.85,17.32,30.39,0,0,.87,1.86,1.73,3.85,4.98,12.15,5.71,23.57,10.35,42.54,2.45,10.09,12.31,26.9,12.31,26.9,0,0,36.53-39.16,53.39-50.85,29.68-20.58,60.2-29.27,60.2-29.27,0,0-9.29,.38-27.74-15.02-21.44-17.85-28.94-29.74-32.52-41.81-5.97-19.85-10.75-27.28-15.26-60.13-4.25,6.1-9.16,12.21-14.27,18.31-7.23,8.57-15.2,17.19-23.16,25.82-15.27,16.39-30.73,32.86-42.35,49.25Z"/><path class="s" d="M1479.38,235.19c5.57,7.76,11.81,17.85,17.32,30.39,0,0,.87,1.86,1.73,3.85,25.16-15.46,46.79-40.82,55.95-66.97,5.58-16.13,7.24-34.91,4.38-52.56-11.55,11.95-24.29,23.96-37.04,36.03-15.27,16.39-30.73,32.86-42.35,49.25Z"/><g><path class="u" d="M1429.02,109.95c-26.03,45.37-18.9,116.02,20.66,135.05,38.57,18.56,95.65-17.87,116.53-63.22,18.63-40.45,15.59-103.46-22.72-123.54-38.19-20.03-92.13,12.74-114.48,51.71Z"/><g><path class="p" d="M1463.83,174.38c-2.07,1.75-2.33,4.85-.58,6.92,1.75,2.08,4.85,2.33,6.92,.58,2.07-1.75,2.33-4.85,.58-6.92-1.75-2.08-4.85-2.33-6.92-.58Z"/><path class="p" d="M1420.74,161.75c-2.07,1.75-2.33,4.85-.58,6.92,1.75,2.07,4.85,2.33,6.92,.58,2.07-1.76,2.33-4.85,.58-6.93-1.75-2.07-4.85-2.33-6.92-.57Z"/><path class="p" d="M1479.67,170.97c.58,0,1.14-.19,1.61-.58,1.1-.89,1.27-2.51,.37-3.6-2.23-2.73-6.12-6.46-11.91-8.63-2.54-.96-5.22-1.52-7.97-1.7-1.41-.03-2.62,.99-2.71,2.4-.09,1.42,.98,2.63,2.39,2.72,2.24,.14,4.42,.6,6.48,1.38,4.73,1.77,7.92,4.83,9.75,7.07,.51,.62,1.24,.94,1.98,.94Z"/><path class="p" d="M1434.82,152.37c.78,0,1.54-.35,2.04-1.02,.86-1.13,.64-2.72-.49-3.58-4.04-3.06-8.75-4.98-13.62-5.56-2.7-.32-5.44-.25-8.14,.24-1.39,.24-2.31,1.58-2.06,2.97,.24,1.4,1.48,2.37,2.97,2.07,2.18-.4,4.41-.46,6.61-.2,5.02,.6,8.83,2.81,11.14,4.56,.46,.35,1,.52,1.54,.52Z"/><path class="s" d="M1433.75,202.04c.75,0,1.47-.43,1.79-1.16,.45-.99,.02-2.16-.97-2.62-1.9-.87-3.08-1.93-3.29-2.97-.2-.94,.48-2.02,2.05-4.35l.68-1.02c2.67-4.02,5.15-8.23,6.31-10.71,1.79-3.82,2.66-8.16,2.61-12.91,0-1.08-.89-1.95-1.97-1.95-1.11,0-1.99,.9-1.97,1.99,.05,4.15-.71,7.93-2.23,11.2-1.08,2.29-3.5,6.38-6.03,10.21l-.67,.99c-1.85,2.76-3.19,4.75-2.64,7.35,.34,1.63,1.57,3.96,5.52,5.77,.27,.12,.55,.18,.82,.18Z"/><path class="d" d="M1456.96,212.8c-1.53,8.25-8.29,14.27-15.85,14.7-8.98,.5-17.54-7.02-18.1-17.2,11.32,.83,22.63,1.67,33.95,2.51Z"/></g><path class="p" d="M1423.27,104.34c2.32,4.01,8.16,3.19,33.72,3.57,25.23,.39,45.59,1.57,58.66,2.51-.75,10.6-.84,23.58,.9,38.23,1.68,14.19,4.64,26.44,7.72,36.37,6.54,4.89,1.58-25,17.5-34.71,1.2-.73,7.19-5.4,14.04-3.96,7.55,1.6,13.6,9.95,13.84,17.66,.36,11.48-12.4,14.12-12.65,25.82-.21,9.34,7.67,19.97,17.31,21.42,4.62,.7,11.42-.45,14.16-4.84,2.27-3.62-.85-6.52-1.48-20.99-.69-15.82-2.06-18.71-3.37-32.05-2.14-21.79,8.57-27.09,8.4-49.45-.17-21.99-13.28-44.11-31.29-56.92-25.43-18.11-54.03-12.96-61.59-11.61-48.07,8.64-83.16,56.33-75.87,68.94Z"/><path class="p" d="M1399.31,105.47c0,14.23,28.84,25.75,64.42,25.75,35.58,0,64.42-11.53,64.42-25.75s-28.84-25.74-64.42-25.74c-35.58,0-64.42,11.53-64.42,25.74Z"/><path class="p" d="M1423.01,76.82c0,8.34,20.2,15.11,45.11,15.11s45.1-6.77,45.1-15.11-20.2-15.12-45.1-15.12c-24.91,0-45.11,6.77-45.11,15.12Z"/></g><path class="u" d="M1632.94,1385.04c2.07-3.88,4.27-8.73,6.09-14.48,2.03-6.43,3.49-16.97,3.49-16.97l53.32,1.61s1.77,12.92,3.44,20.2c2.04,8.83,4.55,16.67,7.12,23.42-.2,1.57-.69,3.69-1.99,5.8-7.09,11.54-31.64,11.68-48.2,3.69-12.92-6.24-19.94-16.94-23.27-23.26Z"/><path class="v" d="M1645.33,1395.34c-3.47-2.11-6.84-4.95-6.84-4.95-2.05-1.74-3.89-3.54-5.55-5.35-7.56,6.05-68.66,19.21-72.7,23.51-3.85,4.1-3.6,10.66-3.54,12.15,.4,10.19,8.24,16.22,8.98,16.77,5.04,3.74,9.65,3.36,20.87,3.16,23.29-.41,93.08-2.24,104.53-2.88,1.45-.08,4.43-.29,8.11-1.53,4.5-1.51,7.86-3.85,10.03-5.61,.17-13.09-1.23-23.76-2.82-31.79-.19-2.72-1.15-4.17-1.79-4.91-8.81-10.18-48.36,8.08-59.28,1.44Z"/><path class="u" d="M1462.27,1385.04c2.07-3.88,4.27-8.73,6.09-14.48,2.02-6.43,3.49-16.97,3.49-16.97l53.31,1.61s1.77,12.92,3.44,20.2c2.04,8.83,4.55,16.67,7.12,23.42-.2,1.57-.69,3.69-1.98,5.8-7.09,11.54-31.64,11.68-48.2,3.69-12.92-6.24-19.94-16.94-23.27-23.26Z"/><path class="v" d="M1474.66,1395.34c-3.47-2.11-6.84-4.95-6.84-4.95-2.06-1.74-3.9-3.54-5.55-5.35-7.56,6.05-68.67,19.21-72.7,23.51-3.85,4.1-3.59,10.66-3.54,12.15,.4,10.19,8.24,16.22,8.98,16.77,5.04,3.74,9.66,3.36,20.87,3.16,23.29-.41,93.07-2.24,104.53-2.88,1.45-.08,4.43-.29,8.11-1.53,4.49-1.51,7.86-3.85,10.03-5.61,.17-13.09-1.22-23.76-2.82-31.79-.18-2.72-1.15-4.17-1.79-4.91-8.8-10.18-48.36,8.08-59.28,1.44Z"/><path class="h" d="M1733.24,541.16c.58,0,1.1-.39,1.24-.98,.16-.68-.27-1.37-.94-1.52-2.64-.61-5.39-1.14-8.18-1.56-10.91-1.61-22.14-1.42-33.36,.55-.69,.13-1.15,.78-1.03,1.47,.13,.69,.73,1.16,1.48,1.03,10.95-1.93,21.9-2.11,32.55-.55,2.72,.41,5.39,.92,7.96,1.52,.1,.02,.19,.02,.29,.02Z"/><g><path class="s" d="M1194.97,349.28c0,.99,.2,1.92,.53,2.72,.2,.87,.46,1.6,.93,2.26,.13,.4,.4,.72,.66,1.06,0,.19,.13,.33,.27,.46,.93,1.4,2.12,2.79,3.59,4.05,.33,.33,.6,.6,.93,.86,8.82,7.43,24.42,12.75,36.04,14.67,8.96,1.59,12.61,.6,27.54,.13,8.1-.2,15.07-.13,21.17,.07,26.15,1.13,35.18,5.17,37.37,.92,.66-1.33,.73-3.12,.07-5.37-1.33-1.6-2.32-2.93-3.45-4.31-.07-.13-.27-.34-.33-.47-.6-.79-1.19-1.52-1.79-2.32-1.53-2.06-2.79-3.85-4.05-5.71-1.99-2.85-3.85-5.51-5.64-7.89-.2-.34-.4-.6-.6-.8-.27-.33-.53-.66-.8-.99-.93-1.26-1.86-2.4-2.92-3.52-.2-.26-2.32-2.39-2.32-2.39-.66-.66-1.4-1.4-2.12-2.06-1.2-1.06-2.46-2.12-3.85-3.12-3.65-2.72-7.17-5.11-10.88-7.23-1.99-1.13-3.99-2.19-6.04-3.19-1.86-.87-3.72-1.72-5.57-2.52-.47-.2-.93-.4-1.4-.6-6.5-2.59-13.41-4.31-20.44-4.91-1.06-.13-2.06-.2-3.25-.2-3.06-.13-5.97,0-8.83,.27-17.66,1.98-37.1,12.28-43.01,23.16-1,1.79-1.59,3.51-1.72,5.24-.07,.66-.07,1.19-.07,1.73Z"/><g><path class="l" d="M1088.95,415.18c.56,3.31,24.6,2.02,53.7-2.9,29.09-4.92,52.22-11.59,51.67-14.92-.56-3.31-24.6-2.02-53.7,2.9-29.09,4.92-52.22,11.59-51.67,14.92Z"/><path class="l" d="M1046.56,379.55c.13,0,.34,0,.59-.02,10.69-.28,26.05,2.22,35.48,11.15,10.75,10.19,7.04,22.35,6.33,24.49l105.36-17.82c-1.37-1.79-8.87-12.06-2.07-25.21,5.97-11.53,19.66-18.94,29.84-22.19,.24-.08,.43-.14,.56-.18l-176.09,29.76Z"/><path class="l" d="M1222.64,349.79c-.87-5.14-40.99-2.64-89.62,5.57-48.63,8.22-87.34,19.05-86.47,24.19,.87,5.15,40.99,2.64,89.62-5.57,48.63-8.22,87.34-19.05,86.47-24.19h0Z"/><path class="r" d="M1046.54,381.23c1.22-.18,1.85-1.07,1.69-2,1.35-2.72,25.48-11.27,72.89-20.04,3.63-.7,7.39-1.34,11.17-1.98l.58-.1,.41-1.81,.29,1.69c1.96-.33,3.91-.66,5.79-.89,1.21-.26,2.27-.42,3.34-.59l1.72-.27c1.11-.19,2.22-.35,3.3-.51,1.09-.17,2.18-.33,3.26-.51l7.37-.98c42.22-5.77,60.89-4.84,62.75-2.92,.17,.94,1.03,1.37,1.92,1.27,.93-.16,1.51-1.19,1.35-2.12-1.25-7.4-42.13-2.97-66.4,.35l-7.42,.99c-1.2,.2-2.26,.36-3.33,.52-1.11,.16-2.23,.33-3.37,.52l-1.67,.27c-1.14,.17-2.28,.34-3.4,.59-1.77,.22-3.78,.56-5.78,.89,0,0-.71,.12-.71,.12l-.57,.1c-3.8,.65-7.59,1.29-11.23,1.98-18.11,3.35-77.15,15-75.64,24,.14,.84,.87,1.43,1.69,1.43Z"/><path class="k" d="M1162.31,362.68c.39,2.32,1.59,4.34,3.36,5.74,5.03-1.02,9.88-2.09,14.47-3.21,.82-1.68,1.16-3.7,.83-5.69-.87-5.15-5.72-8.58-10.86-7.72-5.23,.88-8.68,5.73-7.81,10.88Z"/><path class="k" d="M1142.71,360.25c.87,5.15,5.76,8.63,10.91,7.75,5.15-.87,8.63-5.75,7.76-10.91-.87-5.15-5.76-8.63-10.91-7.75-5.15,.87-8.63,5.76-7.75,10.91Z"/><path class="k" d="M1132.27,369.72c.29,1.74,1.07,3.32,2.14,4.59l1.74-.29c4.89-.83,9.61-1.72,14.24-2.58,.5-1.11,.73-2.25,.61-3.43,.08-.53,.01-.94-.07-1.44-.5-2.99-2.38-5.49-4.9-6.77-1.04-.6-2.2-.91-3.42-1.04-.87-.11-1.72-.05-2.55,.08-.16,.03-.33,.06-.48,.17-1,.17-1.88,.49-2.72,1.06-1.64,.87-2.86,2.28-3.7,3.87-.53,.94-.79,1.93-.95,2.98-.1,.96-.11,1.9,.05,2.81Z"/><path class="k" d="M1117.25,372.26c.28,1.66,.98,3.25,2.03,4.44l2.82-.48c3.99-.59,8.15-1.21,12.3-1.91l1-.17c.59-1.56,.81-3.3,.51-5.04-.2-1.16-.55-2.21-1.21-3.13-.31-.8-.84-1.48-1.54-2.04-2.05-2.04-5.04-3.07-8.19-2.54-1,.17-1.96,.5-2.82,.99-1.11,.52-2.07,1.37-2.85,2.35-1.71,1.99-2.54,4.7-2.06,7.52Z"/><path class="k" d="M1120.91,359.22c.87,5.15,5.76,8.63,10.91,7.75,5.15-.87,8.63-5.76,7.76-10.91-.87-5.15-5.76-8.63-10.91-7.75-5.15,.87-8.63,5.76-7.76,10.91Z"/><path class="k" d="M1131.92,353.27c.87,5.15,5.76,8.63,10.91,7.75,5.15-.87,8.63-5.75,7.76-10.9-.87-5.16-5.76-8.63-10.91-7.76-5.15,.87-8.63,5.76-7.76,10.91Z"/><path class="k" d="M1104.2,373.78c.31,1.82,1.08,3.41,2.24,4.66,.25-.04,.43,.02,.68-.03,3.91-.57,8.01-1.09,12.17-1.71l2.82-.48c.82-1.67,1.1-3.6,.76-5.59-.41-2.4-1.7-4.49-3.56-5.89-1.98-1.63-4.67-2.37-7.4-1.91-2.57,.44-4.71,1.91-6.09,3.85-1.45,2.03-2.05,4.52-1.61,7.1Z"/><path class="k" d="M1089.8,374.93c.35,2.08,1.34,3.88,2.67,5.19,4.44-.5,9.13-1.03,13.97-1.68,.25-.04,.43,.02,.68-.03,1.21-1.91,1.76-4.22,1.35-6.62-.34-1.99-1.32-3.78-2.65-5.1-2.14-2.03-5.14-3.15-8.29-2.61-5.15,.87-8.59,5.73-7.72,10.86Z"/><path class="r" d="M1061.36,383.95c7,0,16.99-.57,31.29-2.13,4.46-.5,9.16-1.03,14.01-1.68,.2,0,.46,0,.75-.04,1.78-.26,3.66-.52,5.55-.78,2.16-.29,4.36-.6,6.57-.92l2.85-.48c3.98-.6,8.15-1.21,12.3-1.92l1.75-.29c4.91-.83,9.63-1.71,14.28-2.59,5.39-.99,10.45-1.93,15.32-3.02,5.03-1.02,9.92-2.1,14.52-3.22,44.99-10.42,44.1-15.69,43.81-17.42-.16-.94-1.05-1.56-1.98-1.41-.94,.16-1.57,1.05-1.41,1.98-.84,1.61-12.53,6.87-41.22,13.51-4.56,1.11-9.41,2.19-14.44,3.2-4.86,1.08-9.89,2.01-15.16,2.98-4.72,.88-9.42,1.77-14.3,2.59l-1.75,.29c-4.13,.71-8.28,1.32-12.26,1.91l-2.86,.48c-2.17,.33-4.35,.62-6.5,.92-1.91,.26-3.8,.52-5.63,.79-.18,0-.43-.02-.73,.04-4.75,.64-9.43,1.17-13.86,1.66-32.11,3.51-42.93,1.91-44.14,.57-.16-.95-1.04-1.45-1.93-1.28-.93,.15-1.51,1.17-1.35,2.1,.21,1.22,.71,4.15,16.51,4.15Z"/></g><path class="u" d="M1230.71,327.68c-12.43,4.98-19.48,10.77-23.66,15.28-.73,.78-5.27,5.73-12.65,9.78-3.85,2.1-6.62,3.58-8.99,2.57-4.24-1.81-5.46-10.9-3.45-17.54,3.78-12.53,19.4-17.53,25.86-19.6,17.53-5.61,34.53-1.4,42.84,1.37-6.28,2.85-13.66,5.3-19.94,8.14Z"/><path class="u" d="M1188.07,363.28c.66,1.4,1.92,2.98,4.18,5.04,.47,.4,1,.8,1.53,1.26,.73,.6,1.53,1.26,2.46,1.93,11.41,8.63,20.17,10.75,28.34,14.47,21.44,9.82,16.26,21.9,36.91,30.46,14,5.78,18.61,2.59,25.02,9.42,6.31,6.73,12.66,15.45,12.66,15.45,8.1-8.3,15.41-15.12,25.17-23.74,7.83-6.97,15.47-13.41,23.03-19.32-.47-.79-.93-1.59-1.46-2.39-1.39-2.25-2.85-4.25-4.18-5.97-2.72-3.59-5.25-6.17-7.24-8.1-.47-.47-1.13-1-1.99-1.8-2.06-1.93-5.05-4.91-8.43-8.89-1.33-1.6-2.32-2.93-3.45-4.31-.07-.13-.27-.34-.33-.47-.6-.79-1.19-1.52-1.79-2.32-1.53-2.06-2.79-3.85-4.05-5.71-1.99-2.85-3.85-5.51-5.64-7.89-.2-.34-.4-.6-.6-.8-.27-.33-.53-.66-.8-.99-.93-1.26-1.86-2.4-2.92-3.52-.2-.26-2.32-2.39-2.32-2.39-.66-.66-1.4-1.4-2.12-2.06-1.2-1.06-2.46-2.12-3.85-3.12-2.06-1.59-3.92-2.92-5.71-4.11-1.53-1-2.98-1.86-4.45-2.72-.27-.13-.46-.27-.73-.4-1.99-1.13-3.99-2.19-6.04-3.19-1.86-.87-3.72-1.72-5.57-2.52-.47-.2-.93-.4-1.4-.6,1.53,18.98-13.41,37.7-24.76,41.68-1.72,.6-9.89,3.12-17.26-.33-5.97-2.98-5.18-6.77-11.28-9.89-1-.47-1.66-.8-2.39-1-.47-.19-.87-.33-1.26-.4-.8-.2-1.59-.4-2.32-.4-4.78-.72-9.56,.13-13.47,1.13-.27,0-.53,.13-.79,.13-.53,.13-1.13,.34-1.66,.4-2.59,.6-5.04,1.26-6.84,2.32-1.06,.6-1.8,1.26-2.26,2.06-.07,.19-.2,.53-.27,.73-.27,.79-.2,1.66,.33,2.85Z"/></g><path class="h" d="M1437.65,823.67c.53,0,1.03-.34,1.2-.87,24.71-74.44,44.28-151.35,58.15-228.59,14.68-81.68,23.24-165.14,25.46-248.05,.02-.7-.54-1.28-1.24-1.29-.66,.1-1.29,.53-1.31,1.23-2.22,82.79-10.77,166.12-25.41,247.66-13.86,77.12-33.4,153.91-58.06,228.24-.22,.67,.13,1.39,.81,1.61,.13,.05,.27,.07,.4,.07Z"/><path class="h" d="M1559.9,627.98c.25,0,.48-.07,.71-.21,17.89-12,131.17-87.05,132.31-87.8,.52-.35,.72-1.03,.45-1.59l-63.06-136.67c-.29-.64-1.06-.91-1.68-.62-.64,.3-.92,1.05-.62,1.68l62.6,135.68c-10.83,7.17-114.37,75.78-131.41,87.21-.58,.39-.74,1.18-.34,1.76,.24,.37,.64,.56,1.05,.56Z"/><path class="h" d="M1587.93,690.32c.41-.07,145.32-48.71,145.32-48.71,.66-.23,1.01-.94,.79-1.61-.22-.67-.94-1.04-1.61-.8l-144.91,48.65c-.66,.22-1.02,.93-.79,1.6,.18,.54,.67,.87,1.2,.87Z"/><g><path class="r" d="M1531.76,698.63h-17.48c-13.55,0-25.84,6.18-34.09,16.04,8.95-20.2,29.14-34.29,52.66-34.29h18.93c24.54,0,46.38,15.54,54.43,38.71l13.93,40.1h-43.93v-16.29c0-24.46-19.9-44.28-44.46-44.28Z"/><path class="r" d="M1491.38,1087.68h171.42c28.1,0,48.83-21.09,42.33-43.06l-84.48-285.43h-114.07l-58.15,287.92c-4.3,21.27,16.14,40.58,42.95,40.58Z"/><path class="l" d="M1432.61,1087.66h175.35c26.82,0,47.26-19.25,42.94-40.55l-41.55-205.75-5.31-26.28-11.28-55.89h-144.96l-11.28,55.89-5.31,26.28-41.55,205.75c-4.31,21.3,16.13,40.55,42.94,40.55Z"/><polygon class="r" points="1431.22 841.35 1609.36 841.35 1604.05 815.07 1436.53 815.07 1431.22 841.35"/><path class="l" d="M1456.58,724.09c6.38-25.69,29.45-43.72,55.92-43.72h22.65c31.82,0,57.62,25.79,57.62,57.62v21.2h-16.55v-16.29c0-24.46-19.9-44.28-44.46-44.28h-17.48c-20.43,0-38.22,13.86-43.15,33.59l-6.73,26.97h-16.55l8.72-35.09Z"/><g><path class="r" d="M1511.1,1026.48c0,3.93,2.65,7.1,5.91,7.1s5.91-3.18,5.91-7.1c0-3.92-2.65-7.1-5.91-7.1-3.26,0-5.91,3.18-5.91,7.1Z"/><path class="r" d="M1525.57,1031.54c-2.36,3.14-2.17,7.26,.44,9.23,2.6,1.97,6.63,1.03,9-2.1,2.37-3.13,2.17-7.26-.43-9.23-2.61-1.97-6.63-1.03-9,2.1Z"/><path class="r" d="M1497.75,1028.73c1.49,3.63,5.15,5.57,8.16,4.33,3.02-1.24,4.26-5.19,2.77-8.82-1.49-3.62-5.15-5.57-8.16-4.32-3.02,1.24-4.26,5.19-2.77,8.81Z"/><path class="r" d="M1488.6,1038.69c2.38,3.12,6.41,4.05,9,2.08,2.6-1.98,2.78-6.11,.4-9.23-2.38-3.13-6.41-4.05-9-2.08-2.6,1.98-2.78,6.11-.4,9.23Z"/><path class="r" d="M1496.48,1050.6c.65,4.12,4.78,8.22,7.98,7.78,3.47-.47,3.93-6,7.16-6.22,3.65-.24,5.31,6.67,8.81,6.43,2.66-.18,5.07-4.38,5.29-7.99,.41-6.65-6.39-14.62-14.62-14.62-8.32,0-15.64,8.15-14.62,14.62Z"/></g><g><path class="r" d="M1554.46,971.73c0,3.92,2.64,7.1,5.91,7.1s5.91-3.19,5.91-7.1c0-3.93-2.65-7.1-5.91-7.1-3.27,0-5.91,3.18-5.91,7.1Z"/><path class="r" d="M1568.93,976.79c-2.36,3.13-2.17,7.26,.44,9.23,2.6,1.97,6.63,1.03,9-2.11,2.37-3.13,2.17-7.26-.43-9.23-2.6-1.97-6.63-1.03-9,2.11Z"/><path class="r" d="M1541.11,973.98c1.49,3.62,5.15,5.57,8.16,4.32,3.02-1.24,4.26-5.19,2.77-8.81-1.49-3.63-5.15-5.57-8.17-4.33-3.02,1.24-4.26,5.19-2.77,8.82Z"/><path class="r" d="M1531.96,983.93c2.38,3.13,6.41,4.05,9.01,2.08,2.6-1.98,2.78-6.11,.4-9.23-2.38-3.13-6.41-4.05-9.01-2.08-2.6,1.98-2.78,6.11-.4,9.23Z"/><path class="r" d="M1539.84,995.85c.65,4.12,4.78,8.21,7.99,7.78,3.47-.48,3.93-6,7.16-6.22,3.65-.25,5.31,6.66,8.82,6.42,2.66-.18,5.07-4.38,5.29-7.98,.41-6.65-6.39-14.63-14.62-14.63-8.32,0-15.64,8.15-14.62,14.63Z"/></g><g><path class="r" d="M1484.77,939.63c0,3.92,2.65,7.1,5.91,7.1s5.91-3.18,5.91-7.1c0-3.93-2.64-7.1-5.91-7.1-3.26,0-5.91,3.18-5.91,7.1Z"/><path class="r" d="M1499.24,944.68c-2.37,3.14-2.17,7.26,.43,9.23,2.61,1.98,6.63,1.03,9-2.1,2.37-3.13,2.17-7.26-.44-9.23-2.6-1.97-6.63-1.03-9,2.1Z"/><path class="r" d="M1471.42,941.87c1.49,3.63,5.15,5.57,8.17,4.33,3.02-1.24,4.26-5.19,2.77-8.81-1.49-3.63-5.15-5.57-8.17-4.33-3.02,1.24-4.26,5.19-2.77,8.81Z"/><path class="r" d="M1462.27,951.83c2.38,3.12,6.41,4.05,9,2.08,2.6-1.98,2.78-6.11,.4-9.23-2.38-3.13-6.41-4.05-9-2.08-2.6,1.98-2.78,6.11-.4,9.23Z"/><path class="r" d="M1470.15,963.74c.65,4.12,4.78,8.22,7.98,7.78,3.47-.47,3.93-5.99,7.15-6.22,3.66-.24,5.31,6.67,8.82,6.43,2.66-.18,5.06-4.38,5.29-7.99,.41-6.65-6.39-14.62-14.62-14.62-8.32,0-15.64,8.15-14.62,14.62Z"/></g><g><path class="r" d="M1545.89,884.2c0,3.93,2.65,7.1,5.91,7.1s5.91-3.18,5.91-7.1-2.65-7.1-5.91-7.1c-3.27,0-5.91,3.18-5.91,7.1Z"/><path class="r" d="M1560.36,889.26c-2.36,3.13-2.17,7.26,.44,9.23,2.6,1.97,6.63,1.03,9-2.1,2.37-3.14,2.17-7.26-.43-9.23-2.61-1.97-6.63-1.03-9,2.1Z"/><path class="r" d="M1532.54,886.44c1.49,3.63,5.15,5.57,8.16,4.33,3.02-1.24,4.26-5.19,2.77-8.82-1.49-3.63-5.15-5.57-8.16-4.33-3.02,1.24-4.26,5.19-2.77,8.82Z"/><path class="r" d="M1523.38,896.4c2.38,3.13,6.41,4.05,9,2.08,2.6-1.98,2.78-6.11,.4-9.23-2.38-3.12-6.41-4.05-9-2.08-2.6,1.98-2.78,6.11-.4,9.23Z"/><path class="r" d="M1531.27,908.31c.65,4.12,4.78,8.21,7.99,7.78,3.47-.48,3.92-6,7.16-6.22,3.65-.25,5.31,6.66,8.82,6.43,2.66-.18,5.07-4.38,5.29-7.99,.41-6.65-6.39-14.62-14.62-14.62-8.32,0-15.64,8.15-14.62,14.62Z"/></g></g><g><g><path class="u" d="M1497.25,654.37c-6.51-.11-13.46,18.77-13.45,35.46,0,3.26,.28,23.3,8.82,25.83,3.41,1.01,6.8-1.15,11.37-4.06,5.49-3.49,15-11.49,13.12-17.14-1.28-3.87-6.47-2.3-9.65-7.05-3.65-5.43,1.16-10.49-.98-19.78-1.26-5.46-5.1-13.18-9.23-13.26Z"/><path class="u" d="M1623.28,677.66c-10.2,5.21-15.28,11.23-18.05,15.92-1.66,2.82-1.63,3.84-4.33,8.17-5,8.02-9.76,11.46-17.41,26.04-8.95,17.07-8.32,23.61-15.56,27.17-7.48,3.67-16.32,.03-28.56-4.86-10.54-4.21-25.06-9.54-43.49-14.87-8.58-2.48-13.77-11.39-11.48-20.02,1.14-4.33,2.64-7.84,4.12-10.66,3.24-6.19,7.69-11.49,10.44-21.99,.89-3.38,2.83-10.79,.33-12.29-2.22-1.34-7.28,2.42-10.01,5.61-1.77,2.08-2.76,4.15-3.3,5.53-.07-2.59,.06-6.3,1.03-10.6,3.61-15.94,15.96-25.31,19.26-27.65,17.24-12.28,29.43-3.86,53.64-16.45,7-3.64,12.23-7.6,15.52-10.34,15.96,20.43,31.91,40.86,47.87,61.29Z"/></g><path class="s" d="M1550.29,754.53c.56,0,1.11-.27,1.44-.77,4.29-6.49,8.13-13.38,11.43-20.47,2.59-5.61,4.87-11.41,6.78-17.24,.3-.91-.19-1.88-1.1-2.18-.88-.29-1.88,.2-2.18,1.1-1.86,5.71-4.09,11.38-6.64,16.86-3.21,6.94-6.97,13.67-11.16,20.02-.53,.8-.31,1.88,.48,2.4,.29,.19,.63,.29,.95,.29Z"/><path class="s" d="M1528.21,746.47c.55,0,1.09-.27,1.43-.77,4.4-6.5,8.25-13.39,11.43-20.5,3.53-7.87,6.33-16.14,8.32-24.59,.21-.93-.36-1.87-1.29-2.08-.9-.23-1.86,.35-2.08,1.28-1.93,8.24-4.66,16.3-8.11,23.98-3.1,6.92-6.85,13.65-11.13,19.98-.54,.79-.33,1.87,.46,2.4,.3,.21,.63,.3,.97,.3Z"/><path class="s" d="M1502.92,738.36c.56,0,1.11-.28,1.44-.78,4.29-6.5,8.13-13.39,11.42-20.47,2.56-5.53,4.84-11.32,6.78-17.23,.3-.91-.19-1.88-1.11-2.19-.88-.3-1.88,.19-2.18,1.11-1.9,5.78-4.13,11.44-6.64,16.85-3.22,6.94-6.97,13.67-11.16,20.02-.53,.8-.31,1.87,.49,2.4,.29,.2,.63,.29,.95,.29Z"/></g><path class="h" d="M1546.8,379.42c.45-.02,.82-.22,1.04-.55,15.35-22.04,32.79-42.76,51.83-61.59,17.15-16.96,35.85-32.63,55.59-46.57,.58-.4,.71-1.19,.3-1.77-.4-.57-1.2-.69-1.77-.3-19.85,14.02-38.65,29.79-55.91,46.85-18.75,18.54-35.95,38.9-51.16,60.55l-24.55-30.69c-.29-.36-.79-.56-1.22-.45-9.88,1.85-25.5,14.7-31.7,20.09,1.56-10.2,6.33-40.08,9.79-50.61,.22-.66-.14-1.38-.8-1.6-.66-.23-1.39,.13-1.61,.81-4.25,12.94-10.17,52.81-10.42,54.5-.08,.53,.19,1.05,.66,1.3,.47,.24,1.05,.19,1.45-.18,.21-.19,20.65-18.84,32.36-21.66l25.12,31.41c.24,.29,.6,.47,.99,.47Z"/><path class="h" d="M1530.19,417.27c0-4.28,3.49-7.76,7.77-7.76,4.28,0,7.77,3.48,7.77,7.76s-3.49,7.77-7.77,7.77c-4.28,0-7.77-3.49-7.77-7.77Zm2.54,0c0,2.88,2.34,5.23,5.23,5.23,2.89,0,5.23-2.35,5.23-5.23,0-2.88-2.34-5.23-5.23-5.23-2.88,0-5.23,2.35-5.23,5.23Z"/><path class="h" d="M1523.69,511.02c0-4.29,3.49-7.77,7.77-7.77s7.77,3.48,7.77,7.77-3.49,7.76-7.77,7.76c-4.28,0-7.77-3.48-7.77-7.76Zm2.54,0c0,2.88,2.34,5.23,5.23,5.23,2.88,0,5.23-2.35,5.23-5.23,0-2.88-2.34-5.24-5.23-5.24-2.89,0-5.23,2.35-5.23,5.24Z"/><path class="h" d="M1517.19,604.77c0-4.29,3.49-7.77,7.77-7.77,4.28,0,7.77,3.48,7.77,7.77s-3.49,7.76-7.77,7.76c-4.28,0-7.77-3.48-7.77-7.76Zm2.54,0c0,2.88,2.34,5.23,5.23,5.23s5.23-2.35,5.23-5.23c0-2.88-2.34-5.24-5.23-5.24s-5.23,2.35-5.23,5.24Z"/></g><g><g><path class="w" d="M410.28,752.45c-11.4,2.61-23.83,5.13-34.39,.1-12.59-5.99-18.49-22.17-14.61-35.56,3.88-13.39,16.01-23.45,29.49-27-4.36,15.42,2.03,33.27,15.19,42.42,3.23,2.25,6.89,4.07,9.32,7.17,2.43,3.1,3.12,8.08,.2,10.72-1.41,1.27-3.35,1.74-5.2,2.17Z"/><path class="w" d="M689.93,753c11.63,.14,22.05-.14,33.68,0,3.34,.04,7.55-3.29,9.71-5.9,2.58-3.12,1.25-8.13-1.46-11.13-7.44-8.23-22.22-6.88-28-16.41-5.09-8.39,.07-20.3-4.8-28.82-5.43,.03-10.86,.06-16.28,.09-.05,17.4-.11,34.8-.16,52.2,0,1.63,.04,3.41,1.06,4.66,1.26,1.55,4.3,5.28,6.27,5.31Z"/></g><path class="g" d="M405.96,732.4c2.27,1.58,4.75,2.96,6.87,4.71-5.64,.93-11.25,2.3-16.72,.91-7.28-1.85-12.64-8.36-15.14-15.45-2.5-7.08-2.62-14.75-2.71-22.26-.02-1.63,.01-3.36,.23-5.03,3.81-2.36,7.97-4.16,12.28-5.3-4.36,15.42,2.03,33.27,15.19,42.42Z"/><path class="o" d="M890.84,462.57c-4.47-2.92-23.66-11.94-30.91-14.04-7.25-2.1-24.12-8.92-29.36-20.77-8.14-18.38-29.24-21.67-52.55-25.48-23.31-3.8-39.11,6.97-41.68,12.19-2.58,5.22-26.29,22.4-33.18,69.21h0c-5.45,19.42-12,46.18-16.99,47.33-7.31,1.69-14.62,11.81-14.62,11.81,0,0-5.06,0-16.31,6.19-11.25,6.19-80.99,7.87-93.92,7.31,0,0-158.58-11.08-171.96-8.63-19.19,3.51-45.85,23.37-49.04,65.2-2.97,38.89-32.09,84.6-39.4,91.34-7.31,6.75-16.31,20.25-3.37,18,12.94-2.25,43.31-56.24,47.81-72.55,4.5-16.31,8.9-43.32,13.5-67.33-3.91,21.08-5.73,38.64-4.61,52.7,1.12,14.06,2.92,40.51,2.92,48.38s-23.06,24.75-21.37,32.06c1.69,7.31,14.06,21.93,19.68,32.62,5.62,10.69,18,35.99,35.43,35.43,17.43-.56,19.68-12.37,16.31-17.44-3.37-5.06-19.12-5.06-22.5-8.94-3.37-3.88-7.87-39.43-4.5-45.62,3.37-6.19,52.87-42.74,59.62-46.12,6.75-3.37,49.49-12.94,87.17,7.87,37.68,20.81,165.35,19.68,165.35,19.68,0,0-4.5,54.04-3.37,63.04,1.12,9,2.25,13.5,24.75,13.5s35.43,1.69,32.62-12.94c-2.81-14.62-27-8.44-27-8.44,0,0,1.69-30.42,5.34-39.42,3.66-9,46.96-61.3,53.71-69.18,6.75-7.87,8.44-25.31,8.44-38.81s-.56-38.24,1.12-52.87c1.03-8.94,4.6-20.81,9.39-32.16,11.2-18.88,41.57-12.03,60.81-12.23,19.25-.2,35.79-26.15,38.03-32.11,2.24-5.96-.88-5.9-5.35-8.81Z"/><path class="g" d="M389.82,589.5c9.32,18.18,27.37,33.52,47.8,33.04,10.2-.24,19.92-4.31,30.03-5.59,14.88-1.89,30.48,2.61,42.02,12.21,5.5,4.58,10.12,10.25,16.11,14.16,6.43,4.19,14.42,6.15,21.96,4.74,7.54-1.41,14.49-6.34,17.75-13.28,5.26-11.22,.31-24.6-6.57-34.91-6.88-10.3-15.84-19.58-19.63-31.38-.8-2.49-1.51-5.29-3.67-6.77-1.23-.84-2.76-1.11-4.24-1.33-28.86-4.24-58.59,4.08-87.32-.98-13.9-2.45-27.16-7.97-41.17-9.71-14-1.74-29.88,1.25-38.44,12.47,6.56,.18,12.34,4.63,16.18,9.95,3.84,5.32,6.18,11.55,9.18,17.38Z"/><g><path class="j" d="M596.15,591.08c8.76-7.63,12.68-19.24,18.75-29.15,1.61-2.62,3.56-5.17,5.74-7.48-23.67,1.74-51.61,2.21-59.33,1.88,0,0-158.58-11.08-171.96-8.63-13.91,2.54-31.71,13.74-41.68,35.61,7.03-6.48,17.77-9.38,27.57-8.36,13.54,1.41,25.74,8.4,37.79,14.72,12.05,6.32,25.09,12.26,38.67,11.29,14.45-1.04,27.3-9.78,41.59-12.17,17.5-2.92,34.92,3.89,52.11,8.26,17.19,4.37,37.38,5.68,50.75-5.97Z"/><path class="j" d="M728.5,525.54c-.42-12.88-11-24.19-9.84-37.02,1.32-14.54,17.17-24.68,18.19-39.24,.51-7.3-2.86-14.22-5.01-21.22-.64-2.07-1.11-4.28-1.38-6.49-8.18,9.43-22.26,27.78-27.31,62.12h0c-5.45,19.42-12,46.18-16.99,47.33-6.02,1.39-11.97,8.42-13.91,10.89,6.43,2.92,13.1,5.3,19.97,6.92,5.64,1.34,11.55,2.22,17.22,1.02,10.94-2.32,19.42-13.14,19.05-24.31Z"/><path class="j" d="M649.51,580.59c.3-2.16,1.8-4.22,1.27-6.34-.29-1.16-1.17-2.09-2.17-2.74-4.17-2.71-10.12-.75-13.25,3.12-3.13,3.87-4.04,9.05-4.38,14.01-.17,2.43-.17,5.07,1.24,7.06,1.57,2.21,4.43,3.01,7.06,3.66,2.72,.67,5.53,1.35,8.3,.93,2.77-.42,5.53-2.21,6.21-4.93,1.27-5.09-4.99-9.59-4.27-14.78Z"/></g><g><path class="q" d="M890.84,462.57c-1.78-1.16-5.91-3.3-10.69-5.58-1.55,8.23-8.34,15.4-16.36,18.53-9.7,3.79-20.6,2.84-30.8,.75-10.21-2.09-20.27-5.27-30.67-5.79-10.4-.52-21.59,2.06-28.64,9.73-5.47,5.96-7.78,14.29-7.94,22.38-.16,8.09,1.62,16.08,3.39,23.97,4.61,20.55,9.31,41.3,17.63,60.59-.07-13.04-.02-28.75,1.19-39.27,1.03-8.94,4.6-20.81,9.39-32.16,11.2-18.88,41.57-12.03,60.81-12.23,19.25-.2,35.79-26.15,38.03-32.11,2.24-5.96-.88-5.9-5.35-8.81Z"/><path class="q" d="M717.19,608.13c-5.16-11.3-10.32-22.59-15.48-33.89-2.79-6.1-5.86-12.53-11.51-16.13-6.95-4.42-15.89-3.42-24.05-2.27-3,.42-6.25,.97-8.34,3.17-2.87,3.02-2.36,8.03-.3,11.65,2.06,3.62,5.32,6.38,7.91,9.65,5.63,7.11,7.86,16.8,5.9,25.66-2.6,11.75-12.09,22.38-9.89,34.21,1.29,6.97,6.67,12.71,13.07,15.76,6.4,3.05,13.69,3.69,20.77,3.31,9.46-.51,19.63-3.31,25.18-10.99,4.13-5.72,4.96-13.3,3.8-20.25-1.16-6.96-4.12-13.47-7.05-19.88Z"/></g><g><path class="i" d="M793.84,524.79c-10.31,7.95-18,19.34-21.19,31.98-3.86,15.26-1.44,31.7-6.23,46.7-4.94,15.5-17,27.72-23.42,42.67-5.48,12.77-6.46,27.36-3.02,40.81,14.34-18.55,34.04-42.29,38.42-47.39,6.75-7.87,8.44-25.31,8.44-38.81s-.56-38.24,1.12-52.87c.76-6.57,2.9-14.73,5.88-23.1Z"/><path class="d" d="M896.19,471.38c2.24-5.96-.88-5.9-5.35-8.81-4.47-2.92-23.66-11.94-30.91-14.04-7.25-2.1-24.12-8.92-29.36-20.77-3.27-7.38-8.65-12.3-15.41-15.83,.82,2.26,2.19,4.44,3.54,6.42,3.24,4.77,6.49,9.53,9.73,14.3,3.12,4.59,6.38,9.31,11.1,12.24,3.75,2.32,8.14,3.33,12.23,4.96,4.1,1.63,8.19,4.18,9.87,8.25,3.17,7.68-3.55,16.19-2.4,24.42,.64,4.53,3.58,8.36,6.42,11.95,1.51,1.91,3.14,3.85,4.99,5.43,13.49-7.36,23.81-23.9,25.54-28.51Z"/><path class="i" d="M693.09,700.1c2.87-6.58,3.1-14.8-1.29-20.48-6.15-7.95-17.93-7.84-27.97-7.44-31.56,1.26-63.29-1.98-93.94-9.6-20.08-4.99-39.75-11.85-60.2-15.03-20.45-3.18-42.28-2.4-60.59,7.23-5.92,3.12-11.66,8.03-14.39,13.87,2.36-1.58,4.18-2.75,5.12-3.21,6.75-3.37,49.49-12.94,87.17,7.87,37.68,20.81,165.35,19.68,165.35,19.68,0,0-.33,3.99-.79,9.96,.53-.94,1.1-1.86,1.53-2.85Z"/><path class="i" d="M384.71,757.17c3.37,3.88,19.12,3.88,22.5,8.94,3.37,5.06,1.12,16.87-16.31,17.44-9.82,.32-18.04-7.58-24.34-16.44,6.29-7.11,11.19-15.46,14.37-24.41,1.11,7.13,2.53,13.03,3.79,14.48Z"/><path class="i" d="M688.98,756.03c-.76-6.12,.49-28.79,1.74-41.73,2.5,1.41,5.51,5.02,7.97,6.45,5.25,3.06,11.84,3.06,17.67,1.37,3.63-1.05,2.54-.87,5.85-2.73-.62,3.23-2.85,28.76-2.85,28.76,0,0,24.18-6.19,27,8.44,2.81,14.62-10.12,12.94-32.62,12.94s-23.62-4.5-24.75-13.5Z"/><path class="d" d="M323.68,692.7c-1.93-.54-3.94-.78-5.93-.62-1.27,.1-2.71,.3-3.67-.54-1.19-1.03-.88-2.86-.86-4.53-5.3,8.77-9.94,15.05-12.31,17.23-7.31,6.75-16.31,20.25-3.37,18,6.27-1.09,16.62-14.33,26.15-29.54Z"/></g><path class="j" d="M890.84,462.57c4.47,2.92,7.59,2.85,5.35,8.81-.82,2.18-3.55,7.02-7.62,12.3-1.68-1.46-3.05-3.29-4.04-5.28-1.94-3.94-2.46-8.46-2.22-12.85,.13-2.36,.47-4.72,.99-7.02,3.38,1.67,6.15,3.15,7.53,4.05Z"/><path class="f" d="M823.7,456.03c-6.25,.3-12.31,2.7-18.56,2.44-4.2-.17-8.91-2.16-9.98-6.22-.66-2.5,.26-5.18,1.65-7.36,1.39-2.18,3.24-4.04,4.73-6.15,4.58-6.48,5.42-15.41,2.13-22.63,7.85,2.77,16.2,5.91,21.03,12.69,3.37,4.75,4.66,10.86,8.62,15.13,3.31,3.57,8.11,5.4,12.87,6.42,2.68,.58,5.52,.98,7.74,2.6,2.22,1.61,3.5,4.94,1.88,7.16-10.77,1.17-21.28-4.6-32.1-4.07Z"/><g><path d="M815.07,443.43c.4,.69,1.31,.84,2.1,.92,2.31,.23,4.62,.46,6.94,.69,.8,.08,1.64,.15,2.38-.16,.74-.31,1.32-1.15,1.07-1.91,.15-4.4-.7-8.84-2.47-12.88-4.65,2.28-8.32,6.48-9.96,11.4-.21,.63-.38,1.37-.05,1.95Z"/><path class="d" d="M816.52,440.92c1.19,1.36,2.93,2.18,4.71,2.5,1.78,.33,3.62,.2,5.41-.1-3.48,.21-6.63-2.26-10.12-2.41Z"/><path class="d" d="M819.64,438.12c.04,.49,.3,.99,.74,1.23,.43,.24,1.04,.19,1.36-.19,.31-.6,.3-1.4-.15-1.9-.45-.5-1.38-.53-1.76,.03-.16,.24-.21,.55-.18,.83Z"/></g><path class="g" d="M766.6,424.05c-6.46,6.79-7.11,17.37-5,26.5,2.11,9.13,6.52,17.57,8.99,26.61,4.47,16.35,2.4,33.85,5.89,50.44,2.41,11.46,7.41,22.2,10.75,33.42,3.34,11.22,4.95,23.59,.58,34.45-2.8,6.95-7.86,12.79-13.54,17.67-5.67,4.87-12.63,9.1-20.09,8.59-5.55-.37-10.65-3.37-14.62-7.26-3.97-3.89-6.96-8.64-9.92-13.35-5.45-8.69-11.07-17.85-11.79-28.09-.68-9.58,3-18.85,5.31-28.17,4.19-16.93,3.9-34.61,6.08-51.91,3.17-25.25,19.2-64.98,24.84-71.6,5.64-6.62,10.88-2.3,12.53,2.69Z"/></g></g></g></svg>