<?xml version="1.0" encoding="UTF-8"?><svg xmlns="http://www.w3.org/2000/svg" viewBox="0 0 1048.32 676.36"><defs><style>.d{fill:#345166;}.e{fill:#488399;}.f{opacity:.1;}.g{fill:#273d4d;}</style></defs><g id="a"/><g id="b"><g id="c"><g><rect class="e" x="65.49" y="126.11" width="504.76" height="104.19"/><rect class="e" x="81.26" y="389.96" width="473.21" height="46.02"/><rect class="g" x="485.38" y="126.53" width="84.88" height="549.62"/><rect class="g" x="65.47" y="124.31" width="84.88" height="551.07"/><rect class="g" y="68.08" width="637.42" height="65.75"/><rect class="f" x="65.47" y="133.83" width="504.8" height="52.8"/></g><g><path class="g" d="M903.57,440.1c32.22,0,60.77-14.69,82.68-42.58,32.38-41.22,46.02-106.01,35.61-169.09-1.4-8.44-8.78-14.07-16.6-12.54-7.77,1.52-12.94,9.58-11.55,18.02,8.81,53.34-2.65,109.65-29.22,143.46-16.67,21.21-38.41,32.21-62.58,31.66-8-.25-14.42,6.65-14.57,15.23-.15,8.57,6.13,15.65,14.03,15.82,.73,.01,1.47,.02,2.21,.02Z"/><path class="g" d="M751.36,440.1c32.22,0,60.77-14.69,82.68-42.58,32.38-41.22,46.02-106.01,35.61-169.09-1.4-8.44-8.78-14.07-16.6-12.54-7.77,1.52-12.94,9.58-11.55,18.02,8.81,53.34-2.65,109.65-29.22,143.46-16.67,21.21-38.41,32.21-62.58,31.66-8-.25-14.42,6.65-14.57,15.23-.15,8.57,6.13,15.65,14.02,15.82,.73,.01,1.47,.02,2.21,.02Z"/><path class="d" d="M854.61,286.43h164.21c17.28,0,30.87-16.06,29.39-34.76l-17.53-222.38c-1.31-16.57-14.08-29.29-29.39-29.29h-132.01c-15.48,0-28.32,12.98-29.43,29.74l-14.67,222.38c-1.22,18.54,12.3,34.31,29.43,34.31Z"/><path class="e" d="M821.26,286.43h164.21c17.28,0,30.87-16.06,29.39-34.76l-17.53-222.38c-1.3-16.57-14.07-29.29-29.39-29.29h-132.01c-15.47,0-28.32,12.98-29.43,29.74l-14.67,222.38c-1.23,18.54,12.3,34.31,29.43,34.31Z"/><path class="e" d="M974.97,373.09h-268.73c-8.53,0-15.44,7.5-15.44,16.76v36.77c0,9.26,6.91,16.76,15.44,16.76h268.73c8.71,0,15.78-7.67,15.78-17.13v-36.03c0-9.46-7.06-17.13-15.78-17.13Z"/><polygon class="g" points="986.56 676.36 966.26 443.38 930.49 443.38 962.31 676.36 986.56 676.36"/><polygon class="d" points="903.96 676.36 900.4 443.38 864.63 443.38 878.66 676.36 903.96 676.36"/><polygon class="d" points="694.54 676.36 710.99 443.38 746.76 443.38 719.83 676.36 694.54 676.36"/><polygon class="g" points="781.57 676.36 810.55 443.38 774.78 443.38 757.33 676.36 781.57 676.36"/></g></g></g></svg>