<?xml version="1.0" encoding="UTF-8"?><svg xmlns="http://www.w3.org/2000/svg" viewBox="0 0 259.18 259.18"><defs><style>.d{fill:#fff;}.e{fill:#3f130f;}.f{fill:#f98008;}</style></defs><g id="a"/><g id="b"><g id="c"><g><path class="f" d="M75.4,14.93c4.67,.51,9.35,.9,14,1.56,6.58,.92,12.45-.46,17.76-4.54,3.93-3.02,7.96-5.94,12.11-8.64,6.96-4.52,14.05-4.33,20.97,.14,2.97,1.92,6,3.85,8.63,6.2,7.35,6.59,15.76,8.19,25.25,6.42,3.8-.71,7.75-.84,11.64-.89,6.24-.09,11.27,2.55,14.45,7.92,2.33,3.94,4.45,8.1,6,12.4,3.13,8.71,8.82,14.54,17.59,17.48,2.43,.81,4.75,1.96,7.07,3.04,11.13,5.2,14.61,11.66,12.98,23.88-.48,3.6-.86,7.22-1.27,10.83-.64,5.7,.6,10.9,4.08,15.54,2.66,3.55,5.36,7.07,7.85,10.73,6.27,9.21,6.24,16.03-.04,25.27-1.44,2.13-2.86,4.31-4.59,6.19-6.89,7.48-8.63,16.13-6.7,25.92,.73,3.71,.8,7.58,.85,11.38,.07,6.23-2.54,11.28-7.92,14.45-3.95,2.33-8.1,4.44-12.4,6-8.59,3.11-14.45,8.65-17.39,17.34-.85,2.51-2.01,4.92-3.14,7.32-5.23,11.1-11.46,14.52-23.61,13.02-3.52-.43-7.04-.82-10.56-1.26-5.88-.73-11.27,.41-16.07,4.03-3.32,2.51-6.66,5.02-10.07,7.4-9.77,6.82-16.58,6.83-26.36,.1-2.04-1.41-4.15-2.78-5.97-4.45-7.34-6.73-15.85-8.42-25.45-6.59-3.72,.71-7.57,.83-11.37,.9-6.56,.12-11.74-2.67-15-8.37-2.19-3.83-4.22-7.82-5.71-11.96-3.1-8.59-8.65-14.45-17.34-17.39-2.59-.88-5.09-2.07-7.56-3.25-11-5.28-14.38-11.63-12.76-23.76,.48-3.6,.86-7.22,1.28-10.83,.66-5.71-.6-10.91-4.07-15.55-2.65-3.55-5.36-7.07-7.85-10.73-6.29-9.24-6.25-16.02,.03-25.26,1.54-2.27,3.08-4.59,4.91-6.61,6.64-7.31,8.2-15.76,6.42-25.24-.71-3.8-.85-7.75-.89-11.64-.08-6.34,2.64-11.42,8.15-14.58,4.13-2.37,8.44-4.55,12.9-6.19,8.26-3.02,13.62-8.56,16.56-16.77,1.25-3.49,2.86-6.87,4.55-10.18,3.73-7.33,9.61-11.18,18.06-10.79Zm.02,3.74c-6.98-.43-11.8,2.73-14.81,8.82-1.72,3.49-3.4,7.03-4.76,10.67-3.2,8.6-8.99,14.41-17.59,17.65-4.13,1.56-8.14,3.49-12.04,5.56-5.08,2.68-7.61,7.07-7.35,12.86,.15,3.54,.28,7.11,.92,10.58,1.91,10.3,.07,19.5-7,27.53-2.33,2.65-4.25,5.67-6.2,8.63-3.75,5.7-3.78,11.51-.01,17.2,2.3,3.47,4.75,6.85,7.3,10.14,4.57,5.89,7.38,12.28,6.5,19.92-.42,3.61-.73,7.24-1.24,10.83-1.61,11.41,1.23,16.59,11.75,21.2,2.19,.96,4.36,1.99,6.61,2.78,9.24,3.22,15.32,9.48,18.68,18.66,1.46,3.97,3.36,7.81,5.38,11.54,2.64,4.86,6.93,7.27,12.48,7.07,3.62-.13,7.3-.26,10.85-.93,10.33-1.94,19.47,.04,27.52,7.04,2.92,2.54,6.25,4.67,9.56,6.71,4.95,3.05,10.08,3.08,15.11,.09,2.2-1.31,4.32-2.77,6.42-4.25,2.53-1.79,5.01-3.66,7.5-5.51,5.32-3.96,11.31-5.32,17.83-4.6,3.61,.4,7.22,.81,10.83,1.28,10.88,1.4,15.67-1.22,20.28-11.19,1.04-2.25,2.15-4.49,2.94-6.83,3.26-9.55,9.63-15.84,19.14-19.24,3.98-1.42,7.8-3.39,11.5-5.44,4.65-2.58,6.96-6.77,6.77-12.1-.13-3.71-.26-7.47-.93-11.11-1.86-10.21-.07-19.35,6.95-27.28,1.93-2.18,3.58-4.63,5.21-7.06,5.19-7.76,5.23-12.85,.01-20.58-2.48-3.67-5.17-7.2-7.84-10.74-4.28-5.7-5.62-12.08-4.79-19.09,.61-5.19,1.11-10.4,1.36-15.62,.25-5.32-2.09-9.53-6.74-12.11-3.71-2.06-7.52-4.03-11.5-5.45-9.51-3.39-15.78-9.71-19.19-19.21-1.46-4.06-3.48-7.95-5.6-11.72-2.51-4.45-6.6-6.64-11.71-6.49-3.71,.1-7.48,.22-11.11,.89-10.3,1.9-19.53,.16-27.52-6.97-2.17-1.94-4.69-3.49-7.05-5.22-6.88-5.03-13.75-4.97-20.61,.06-3.57,2.62-7.18,5.21-10.73,7.86-5.63,4.21-11.92,5.61-18.83,4.75-4.75-.59-9.51-1.05-14.27-1.57Z"/><path class="e" d="M75.42,18.67c4.76,.52,9.52,.98,14.27,1.57,6.91,.86,13.21-.54,18.83-4.75,3.55-2.65,7.15-5.24,10.73-7.86,6.86-5.03,13.73-5.1,20.61-.06,2.36,1.73,4.88,3.28,7.05,5.22,7.99,7.14,17.22,8.87,27.52,6.97,3.64-.67,7.4-.78,11.11-.89,5.11-.14,9.2,2.04,11.71,6.49,2.12,3.77,4.14,7.66,5.6,11.72,3.41,9.5,9.68,15.81,19.19,19.21,3.98,1.42,7.8,3.39,11.5,5.45,4.66,2.58,7,6.79,6.74,12.11-.25,5.22-.75,10.43-1.36,15.62-.83,7.01,.5,13.39,4.79,19.09,2.66,3.54,5.36,7.07,7.84,10.74,5.21,7.73,5.18,12.82-.01,20.58-1.63,2.43-3.28,4.88-5.21,7.06-7.02,7.93-8.82,17.07-6.95,27.28,.66,3.64,.8,7.4,.93,11.11,.18,5.33-2.12,9.52-6.77,12.1-3.7,2.06-7.52,4.02-11.5,5.44-9.52,3.4-15.88,9.68-19.14,19.24-.8,2.34-1.9,4.58-2.94,6.83-4.6,9.97-9.39,12.59-20.28,11.19-3.6-.46-7.22-.87-10.83-1.28-6.52-.73-12.51,.63-17.83,4.6-2.49,1.85-4.97,3.72-7.5,5.51-2.1,1.48-4.22,2.94-6.42,4.25-5.03,2.99-10.16,2.96-15.11-.09-3.31-2.04-6.64-4.17-9.56-6.71-8.05-7-17.2-8.98-27.52-7.04-3.55,.67-7.22,.79-10.85,.93-5.55,.21-9.85-2.2-12.48-7.07-2.02-3.73-3.93-7.57-5.38-11.54-3.36-9.18-9.44-15.44-18.68-18.66-2.25-.79-4.42-1.82-6.61-2.78-10.53-4.61-13.36-9.79-11.75-21.2,.51-3.6,.82-7.22,1.24-10.83,.89-7.64-1.93-14.04-6.5-19.92-2.55-3.29-5-6.67-7.3-10.14-3.77-5.69-3.74-11.5,.01-17.2,1.95-2.96,3.87-5.98,6.2-8.63,7.07-8.03,8.91-17.22,7-27.53-.64-3.47-.77-7.04-.92-10.58-.25-5.78,2.28-10.17,7.35-12.86,3.91-2.07,7.92-4,12.04-5.56,8.6-3.24,14.39-9.05,17.59-17.65,1.35-3.64,3.03-7.18,4.76-10.67,3.01-6.09,7.83-9.25,14.81-8.82Zm54.07,134.91c27.76,0,55.52,0,83.28,0,4.04,0,4.83-.71,5.69-4.7,2.74-12.84,2.76-25.68,.01-38.52-.87-4.05-1.63-4.76-5.63-4.76-55.52,0-111.04,0-166.56,0-3.87,0-4.7,.73-5.53,4.57-2.79,12.93-2.78,25.85-.01,38.79,.85,3.94,1.64,4.63,5.74,4.63,27.67,0,55.34,0,83.01,0Zm-3.5-76.7c-2.67-2.05-5.09-4.12-7.71-5.89-7.89-5.33-16.53-8.47-26.15-8.44-3.41,0-5.07,2.03-4.47,5.34,.27,1.48,.61,2.95,.97,4.41,2.21,8.97,4.56,17.89,10.57,25.26,1.23,1.51,2.5,3.02,3.98,4.27,.5,.42,1.85,.32,2.49-.07,.37-.23,.32-1.61,.04-2.29-.34-.82-1.13-1.46-1.35-1.73,1.82-3.15,3.77-5.82,5-8.79,1.79-4.3-3.01-5.12-4.6-7.66-.05-.07-.17-.11-.19-.18-.25-1.07-.49-2.14-.73-3.21,1.09,.17,2.33,.07,3.22,.58,1.29,.74,2.33,1.93,3.91,3.32,.03-5.41-2.13-9.19-4.91-12.79,6.29,2.45,12.06,5.55,16.64,10.41-2.39,3.02-4.93,5.67-6.81,8.73-2.21,3.6-3.92,7.51-5.63,11.39-.28,.63,.53,1.75,.84,2.65,.76-.27,2.09-.42,2.18-.83,.56-2.69,2.57-2.38,4.35-2.17,3.14,.38,5.25-.83,7.31-3.2,2.6-3,5.63-5.65,8.67-8.23,2.63-2.23,5.46-4.24,8.35-6.12,.58-.38,1.81,.23,2.74,.38-.22,.85-.25,1.81-.7,2.52-.4,.62-1.28,.92-1.89,1.43-4.4,3.71-8.79,7.42-13.16,11.16-.48,.41-.78,1.02-1.52,2.02,13.91-.45,24.87-5.78,33.91-15.5-.21,.93-.46,1.78-.92,2.5-2.7,4.25-5.52,8.42-8.12,12.72-.5,.83-.2,2.14-.26,3.22,.99-.25,2.02-.39,2.95-.8,.51-.23,.86-.87,1.24-1.36,7.19-9.03,11.13-19.67,14.95-30.36,.57-1.58-.08-2.52-1.77-2.82-7.85-1.4-15.67-1.57-23.48,.36-7.42,1.84-14.07,5.22-19.93,9.8Zm3.58,139.33c20.19-.25,38.29-6.46,54.1-19.08,11.45-9.14,20.02-20.5,25.66-34.03,.36-.86,.12-2.7-.49-3.1-1.53-1.02-2.32,.36-2.87,1.67-.14,.33-.26,.66-.41,.98-14.95,31.19-39.64,48.21-74.23,49.69-32.84,1.4-63.74-18.56-77.36-48.93-.36-.81-.53-1.82-1.12-2.38-.64-.6-1.68-.79-2.55-1.15-.27,.83-.67,1.64-.78,2.49-.06,.46,.36,.97,.57,1.46,13.41,31.51,45.05,52.37,79.48,52.38Zm-5.16-173.24c-31.24,1.73-57.9,18.39-73.92,51.42-.42,.88-.98,1.78-1.05,2.7-.05,.71,.39,1.86,.94,2.11,.56,.25,1.64-.17,2.24-.63,.5-.38,.62-1.24,.93-1.88,14.93-31.32,39.68-48.42,74.38-49.87,32.89-1.38,63.72,18.6,77.32,49,.43,.97,.74,2.05,1.4,2.84,.39,.47,1.56,.86,2,.61,.6-.34,1.05-1.29,1.14-2.03,.08-.61-.45-1.31-.73-1.96-13.5-31.57-45.11-52.37-84.65-52.32Zm-5.41,133.72c0,1.77-.07,3.54,.01,5.3,.22,4.49,3.55,7.76,7.8,7.74,4.26-.02,7.55-3.33,7.66-7.83,.08-3.45,.08-6.9,0-10.34-.1-4.51-3.36-7.83-7.62-7.88-4.24-.05-7.61,3.23-7.84,7.7-.09,1.76-.01,3.53-.02,5.3Zm-5.99,.17c0-1.86,.1-3.72-.02-5.57-.27-4.44-3.74-7.71-7.95-7.6-4.15,.1-7.35,3.29-7.5,7.71-.12,3.53-.12,7.07,0,10.6,.15,4.53,3.49,7.77,7.74,7.74,4.23-.03,7.52-3.33,7.73-7.84,.08-1.68,.01-3.36,0-5.04Zm38.2,13.34c1.22-.87,1.85-1.2,2.34-1.68,6.96-6.93,13.91-13.89,20.85-20.84,.37-.37,.9-.8,.93-1.24,.05-.71-.05-1.62-.48-2.1-.32-.36-1.3-.35-1.9-.18-.54,.15-.99,.71-1.42,1.15-6.77,6.75-13.53,13.51-20.28,20.28-.43,.44-1.16,.99-1.11,1.41,.11,.97,.61,1.9,1.08,3.2Zm-63.55-18.74c0,.26,0,.97,0,1.67,0,4.6-.1,9.21,.09,13.8,.04,.95,1.14,1.85,1.75,2.77,.63-.88,1.62-1.7,1.8-2.67,.3-1.63,.08-3.35,.08-5.03,0-5.22,.05-10.45-.05-15.67-.02-.83-.52-2.08-1.13-2.35-.6-.26-1.76,.32-2.46,.83-.99,.72-1.94,1.61-2.61,2.62-.61,.92-.83,2.1-1.22,3.16,1.11,.25,2.22,.5,3.77,.85Zm87.95,12.25c0-3.31-2.62-5.85-5.95-5.81-3.18,.05-5.75,2.58-5.81,5.72-.07,3.17,2.69,6,5.86,6.02,3.2,.03,5.91-2.7,5.9-5.94Zm-14.04-14.01c0-3.27-2.68-5.95-5.92-5.9-3.22,.04-5.89,2.81-5.82,6.03,.07,3.15,2.64,5.67,5.82,5.71,3.31,.04,5.92-2.54,5.92-5.84Z"/><path class="f" d="M129.49,153.58c-27.67,0-55.34,0-83.01,0-4.1,0-4.9-.69-5.74-4.63-2.77-12.93-2.78-25.86,.01-38.79,.83-3.83,1.65-4.57,5.53-4.57,55.52,0,111.04,0,166.56,0,4.01,0,4.77,.7,5.63,4.76,2.75,12.85,2.73,25.68-.01,38.52-.85,4-1.64,4.7-5.69,4.7-27.76,0-55.52,0-83.28,0Zm-75.08-28.88l.53-.18c.47,.71,.96,1.4,1.41,2.12,3.16,5.12,6.22,10.32,9.56,15.33,.59,.89,2.29,1.15,3.54,1.41,.26,.05,1.14-1.21,1.14-1.87,.08-8.06,.08-16.13,.03-24.2,0-1.74-2.07-2.79-3.33-1.66-.52,.47-.67,1.56-.67,2.38-.06,5.45-.03,10.9-.03,17.08-.78-1-1.12-1.36-1.38-1.78-3.36-5.42-6.77-10.81-10.02-16.29-.96-1.62-2.3-2.12-3.74-1.52-.67,.28-1.14,1.78-1.15,2.73-.09,7.53-.03,15.07-.07,22.6,0,1.56,.02,2.76,2.17,2.71,2.03-.05,2.01-1.25,2-2.66-.01-5.4,0-10.8,0-16.2Zm102.62,6.53c4.54-3.04,6.01-6.46,4.74-10.5-1.14-3.61-4.06-5.35-9.07-5.38-2.3-.01-4.61,.07-6.91-.02-1.77-.07-2.55,.48-2.54,2.4,.08,7.8,.04,15.6,.02,23.4,0,1.36,.06,2.4,1.92,2.43,1.91,.04,2.19-.92,2.16-2.47-.06-3.08-.02-6.17-.02-9.18,5.02-.97,5.05-.95,6.97,3.13,1.13,2.4,2.28,4.8,3.4,7.2,.95,2.04,2.67,1.15,4.17,1.11-.06-.93,.15-1.98-.21-2.77-1.43-3.12-3.03-6.17-4.63-9.36Zm-19.91-5h.03c0-2.93,.04-5.85-.01-8.78-.03-1.83-1.42-2.81-2.97-1.93-.61,.35-1.02,1.55-1.04,2.38-.1,4.52-.04,9.04-.06,13.57,0,1.06-.02,2.13-.16,3.18-.43,3.11-2.62,5.01-5.59,4.9-2.84-.1-5.11-2.07-5.21-5.02-.18-5.67-.14-11.35-.13-17.02,0-1.61-.68-2.2-2.25-2.18-1.56,.02-1.92,.8-1.91,2.19,.05,5.68-.06,11.35,.06,17.03,.11,5.33,4.33,9.29,9.66,9.27,5.28-.02,9.32-3.79,9.55-9.07,.12-2.83,.02-5.67,.02-8.51Zm-39.82,16.85c-.23-.94-.37-1.87-.67-2.74-2.62-7.51-5.29-15.02-7.91-22.53-.44-1.27-.71-2.49-2.54-2.51-1.82-.02-2.16,1.14-2.61,2.43-2.66,7.6-5.38,15.17-7.96,22.79-.29,.84-.06,2.67,.31,2.79,1.38,.42,2.86,.57,3.59-1.47,1.67-4.66,1.76-4.63,6.7-4.63,.35,0,.72,.05,1.06,0,3-.51,4.87,.44,5.29,3.73,.36,2.74,2.15,3.07,4.75,2.15Zm67.73-.08c3.55,.97,4.03,.9,4.77-2.3,.67-2.87,2.1-4.02,4.95-3.51,.34,.06,.71,0,1.06,0,5.09,0,5.17-.03,7.1,4.83,.76,1.9,2.19,1.62,3.47,1.29,.36-.09,.69-1.78,.43-2.54-2.65-7.78-5.38-15.54-8.23-23.25-.34-.9-1.58-2.04-2.41-2.03-.82,0-2.06,1.14-2.4,2.05-2.82,7.63-5.48,15.32-8.16,23-.28,.79-.4,1.64-.59,2.45Zm-57.76-23.9c2.06,0,3.91,.15,5.71-.08,.64-.08,1.71-1.17,1.63-1.62-.14-.76-1.03-1.94-1.63-1.96-5.13-.16-10.26-.16-15.39,0-.67,.02-1.3,1.18-1.95,1.82,.65,.62,1.23,1.66,1.96,1.77,1.7,.26,3.48,.08,5.51,.08,0,1.28,0,2.23,0,3.18,0,6.19-.06,12.39,.06,18.58,.02,.89,.71,2.29,1.39,2.52,1.64,.54,2.77,0,2.74-2.22-.11-7.23-.04-14.47-.04-22.07Zm88.36,20.46c0-7.49-.02-14.57,.02-21.65,0-1.48-.07-2.61-2.04-2.6-1.89,.01-2.15,1.03-2.14,2.56,.03,7.71,.05,15.42,0,23.14-.01,1.76,.48,2.58,2.41,2.53,4.25-.11,8.51-.06,12.76-.02,1.42,.01,2.35-.21,2.35-2,0-1.81-.98-1.99-2.38-1.98-3.53,.03-7.06,.01-10.97,.01Z"/><path class="f" d="M126,76.89c5.86-4.58,12.51-7.96,19.93-9.8,7.81-1.93,15.63-1.76,23.48-.36,1.69,.3,2.34,1.24,1.77,2.82-3.82,10.69-7.76,21.32-14.95,30.36-.39,.49-.73,1.13-1.24,1.36-.92,.4-1.96,.55-2.95,.8,.07-1.09-.24-2.4,.26-3.22,2.6-4.31,5.42-8.48,8.12-12.72,.46-.72,.7-1.57,.92-2.5-9.04,9.72-20,15.05-33.91,15.5,.74-1,1.04-1.61,1.52-2.02,4.37-3.74,8.76-7.46,13.16-11.16,.61-.51,1.49-.81,1.89-1.43,.45-.7,.48-1.67,.7-2.52-.93-.15-2.16-.76-2.74-.38-2.89,1.89-5.72,3.89-8.35,6.12-3.04,2.58-6.07,5.23-8.67,8.23-2.06,2.37-4.17,3.58-7.31,3.2-1.78-.21-3.79-.53-4.35,2.17-.09,.41-1.42,.56-2.18,.83-.31-.89-1.12-2.01-.84-2.65,1.71-3.87,3.42-7.79,5.63-11.39,1.87-3.06,4.41-5.71,6.81-8.73-4.58-4.86-10.36-7.96-16.64-10.41,2.77,3.6,4.94,7.38,4.91,12.79-1.58-1.38-2.61-2.57-3.91-3.32-.89-.51-2.13-.41-3.22-.58,.24,1.07,.48,2.14,.73,3.21,.02,.07,.14,.11,.19,.18,1.59,2.55,6.39,3.37,4.6,7.66-1.24,2.97-3.18,5.64-5,8.79,.22,.27,1.01,.91,1.35,1.73,.28,.69,.33,2.06-.04,2.29-.63,.39-1.98,.49-2.49,.07-1.47-1.25-2.75-2.76-3.98-4.27-6.01-7.37-8.36-16.29-10.57-25.26-.36-1.46-.7-2.93-.97-4.41-.6-3.31,1.06-5.33,4.47-5.34,9.63-.03,18.27,3.11,26.15,8.44,2.62,1.77,5.04,3.84,7.71,5.89Z"/><path class="f" d="M129.57,216.22c-34.42-.02-66.06-20.87-79.48-52.38-.21-.49-.63-1.01-.57-1.46,.11-.85,.5-1.66,.78-2.49,.87,.37,1.91,.55,2.55,1.15,.59,.56,.76,1.57,1.12,2.38,13.62,30.37,44.52,50.34,77.36,48.93,34.59-1.48,59.27-18.5,74.23-49.69,.15-.32,.28-.65,.41-.98,.55-1.31,1.34-2.69,2.87-1.67,.61,.41,.85,2.24,.49,3.1-5.64,13.52-14.21,24.89-25.66,34.03-15.81,12.62-33.91,18.83-54.1,19.08Z"/><path class="f" d="M124.41,42.97c39.54-.05,71.15,20.75,84.65,52.32,.28,.65,.81,1.35,.73,1.96-.09,.74-.55,1.7-1.14,2.03-.44,.25-1.61-.13-2-.61-.66-.79-.97-1.87-1.4-2.84-13.59-30.4-44.43-50.38-77.32-49-34.7,1.45-59.44,18.54-74.38,49.87-.3,.64-.43,1.5-.93,1.88-.6,.46-1.68,.88-2.24,.63-.55-.25-.99-1.39-.94-2.11,.07-.92,.62-1.83,1.05-2.7,16.01-33.03,42.68-49.7,73.92-51.42Z"/><path class="d" d="M119,176.69c0-1.77-.07-3.54,.02-5.3,.23-4.48,3.6-7.75,7.84-7.7,4.26,.05,7.52,3.37,7.62,7.88,.07,3.45,.08,6.9,0,10.34-.1,4.5-3.4,7.81-7.66,7.83-4.25,.02-7.58-3.25-7.8-7.74-.09-1.76-.01-3.53-.01-5.3Zm11.74,.12c0-1.86,.08-3.73-.02-5.59-.12-2.29-1.51-3.55-3.72-3.79-2.08-.23-4.09,1.35-4.19,3.58-.18,3.8-.18,7.63,0,11.43,.11,2.23,2.14,3.77,4.24,3.52,2.21-.26,3.55-1.55,3.67-3.84,.09-1.77,.02-3.55,.01-5.32Z"/><path class="d" d="M113.01,176.86c0,1.68,.07,3.36,0,5.04-.21,4.5-3.5,7.8-7.73,7.84-4.25,.03-7.59-3.21-7.74-7.74-.12-3.53-.12-7.07,0-10.6,.15-4.41,3.35-7.61,7.5-7.71,4.22-.1,7.68,3.16,7.95,7.6,.11,1.85,.02,3.71,.02,5.57Zm-11.75-.17c0,1.86-.1,3.73,.03,5.58,.16,2.27,1.55,3.58,3.79,3.69,2.13,.11,3.84-1.08,3.98-3.14,.27-4.05,.3-8.15,0-12.19-.16-2.18-1.97-3.38-4.21-3.16-2.08,.2-3.42,1.48-3.56,3.64-.12,1.85-.02,3.72-.03,5.58Z"/><path class="d" d="M151.2,190.2c-.47-1.3-.97-2.23-1.08-3.2-.05-.43,.68-.98,1.11-1.41,6.75-6.77,13.52-13.53,20.28-20.28,.43-.43,.88-.99,1.42-1.15,.6-.17,1.58-.18,1.9,.18,.43,.48,.53,1.39,.48,2.1-.03,.43-.56,.87-.93,1.24-6.94,6.96-13.89,13.91-20.85,20.84-.48,.48-1.12,.81-2.34,1.68Z"/><path class="d" d="M87.65,171.45c-1.55-.35-2.66-.6-3.77-.85,.39-1.07,.61-2.25,1.22-3.16,.67-1.01,1.62-1.9,2.61-2.62,.7-.51,1.86-1.09,2.46-.83,.62,.27,1.12,1.52,1.13,2.35,.1,5.22,.05,10.44,.05,15.67,0,1.68,.22,3.4-.08,5.03-.18,.97-1.17,1.78-1.8,2.67-.61-.92-1.71-1.83-1.75-2.77-.18-4.6-.09-9.2-.09-13.8,0-.7,0-1.41,0-1.67Z"/><path class="d" d="M175.6,183.7c0,3.24-2.71,5.97-5.9,5.94-3.18-.03-5.93-2.86-5.86-6.02,.06-3.14,2.64-5.68,5.81-5.72,3.34-.05,5.95,2.5,5.95,5.81Zm-5.87,3.13c.98-1.48,1.96-2.31,1.97-3.16,0-.67-1.29-1.98-1.81-1.89-.85,.15-2.07,1.14-2.17,1.9-.1,.76,1,1.66,2.01,3.15Z"/><path class="d" d="M161.57,169.69c0,3.3-2.6,5.88-5.92,5.84-3.18-.03-5.75-2.56-5.82-5.71-.07-3.22,2.6-5.99,5.82-6.03,3.23-.04,5.92,2.63,5.92,5.9Zm-5.92-3.1c-.98,1.51-2.05,2.45-1.93,3.19,.12,.76,1.35,1.73,2.21,1.86,.53,.08,1.78-1.26,1.77-1.95-.02-.83-1.02-1.65-2.05-3.1Z"/><path class="d" d="M54.41,124.71c0,5.4,0,10.8,0,16.2,0,1.41,.02,2.61-2,2.66-2.15,.05-2.18-1.15-2.17-2.71,.04-7.53-.02-15.07,.07-22.6,.01-.95,.49-2.45,1.15-2.73,1.44-.6,2.78-.09,3.74,1.52,3.25,5.48,6.66,10.87,10.02,16.29,.26,.42,.6,.78,1.38,1.78,0-6.18-.03-11.63,.03-17.08,0-.81,.15-1.91,.67-2.38,1.26-1.13,3.32-.08,3.33,1.66,.04,8.07,.05,16.13-.03,24.2,0,.66-.88,1.92-1.14,1.87-1.25-.25-2.95-.52-3.54-1.41-3.34-5.01-6.4-10.2-9.56-15.33-.45-.72-.94-1.42-1.41-2.12l-.53,.18Z"/><path class="d" d="M157.03,131.24c1.6,3.19,3.21,6.24,4.63,9.36,.36,.79,.16,1.84,.21,2.77-1.5,.04-3.22,.93-4.17-1.11-1.12-2.41-2.27-4.8-3.4-7.2-1.92-4.07-1.96-4.09-6.97-3.13,0,3.01-.04,6.1,.02,9.18,.03,1.55-.25,2.51-2.16,2.47-1.85-.04-1.92-1.08-1.92-2.43,.02-7.8,.05-15.6-.02-23.4-.02-1.92,.76-2.48,2.54-2.4,2.3,.09,4.61,.01,6.91,.02,5,.03,7.93,1.77,9.07,5.38,1.27,4.04-.2,7.46-4.74,10.5Zm-9.69-3.39c2.86-.13,5.33-.07,7.74-.41,2.13-.3,3.3-2.05,3.08-4.01-.15-1.35-1.19-3.47-2.19-3.7-2.6-.6-5.45-.64-8.07-.18-.49,.08-.41,3.52-.55,5.41-.06,.78,0,1.57,0,2.89Z"/><path class="d" d="M137.12,126.24c0,2.84,.1,5.68-.02,8.51-.23,5.27-4.27,9.05-9.55,9.07-5.33,.02-9.55-3.93-9.66-9.27-.12-5.67,0-11.35-.06-17.03-.01-1.39,.35-2.17,1.91-2.19,1.57-.02,2.26,.57,2.25,2.18-.01,5.67-.06,11.35,.13,17.02,.1,2.94,2.37,4.91,5.21,5.02,2.97,.11,5.17-1.78,5.59-4.9,.14-1.05,.16-2.12,.16-3.18,.02-4.52-.04-9.05,.06-13.57,.02-.83,.42-2.03,1.04-2.38,1.54-.88,2.93,.09,2.97,1.93,.05,2.93,.01,5.85,.01,8.78h-.03Z"/><path class="d" d="M97.3,143.09c-2.6,.91-4.39,.59-4.75-2.15-.43-3.28-2.29-4.23-5.29-3.73-.34,.06-.71,0-1.06,0-4.94,0-5.03-.03-6.7,4.63-.73,2.05-2.21,1.9-3.59,1.47-.37-.11-.6-1.94-.31-2.79,2.58-7.62,5.3-15.2,7.96-22.79,.45-1.29,.8-2.45,2.61-2.43,1.83,.02,2.1,1.24,2.54,2.51,2.63,7.51,5.29,15.02,7.91,22.53,.3,.87,.45,1.8,.67,2.74Zm-11.16-22.01c-1.44,4.5-2.64,8.28-3.87,12.14h7.77l-3.9-12.14Z"/><path class="d" d="M165.02,143.02c.19-.81,.31-1.66,.59-2.45,2.68-7.68,5.34-15.37,8.16-23,.34-.91,1.57-2.05,2.4-2.05,.82,0,2.07,1.13,2.41,2.03,2.86,7.71,5.58,15.47,8.23,23.25,.26,.75-.08,2.44-.43,2.54-1.28,.33-2.72,.61-3.47-1.29-1.93-4.86-2-4.83-7.1-4.83-.35,0-.72,.05-1.06,0-2.85-.51-4.27,.63-4.95,3.51-.75,3.19-1.23,3.26-4.77,2.3Zm11.41-21.2l-.51,.05c-1.19,3.75-2.38,7.5-3.62,11.42h7.8c-1.27-3.97-2.47-7.72-3.67-11.47Z"/><path class="d" d="M107.27,119.11c0,7.59-.07,14.83,.04,22.07,.04,2.21-1.1,2.76-2.74,2.22-.69-.23-1.38-1.64-1.39-2.52-.12-6.19-.06-12.38-.06-18.58,0-.95,0-1.9,0-3.18-2.03,0-3.81,.18-5.51-.08-.73-.11-1.31-1.15-1.96-1.77,.65-.63,1.28-1.8,1.95-1.82,5.13-.15,10.26-.15,15.39,0,.6,.02,1.49,1.2,1.63,1.96,.08,.45-.99,1.54-1.63,1.62-1.8,.23-3.65,.08-5.71,.08Z"/><path class="d" d="M195.62,139.57c3.91,0,7.44,.02,10.97-.01,1.4-.01,2.37,.17,2.38,1.98,0,1.79-.92,2.01-2.35,2-4.25-.04-8.51-.09-12.76,.02-1.93,.05-2.42-.77-2.41-2.53,.06-7.71,.04-15.42,0-23.14,0-1.53,.25-2.55,2.14-2.56,1.97-.01,2.05,1.12,2.04,2.6-.03,7.08-.02,14.17-.02,21.65Z"/><path class="e" d="M130.74,176.82c0,1.77,.07,3.55-.02,5.32-.11,2.28-1.45,3.57-3.67,3.84-2.1,.25-4.12-1.29-4.24-3.52-.19-3.8-.19-7.63,0-11.43,.1-2.23,2.11-3.81,4.19-3.58,2.21,.24,3.59,1.5,3.72,3.79,.1,1.86,.02,3.72,.02,5.59Z"/><path class="e" d="M101.26,176.69c0-1.86-.09-3.73,.03-5.58,.14-2.16,1.48-3.44,3.56-3.64,2.24-.22,4.06,.98,4.21,3.16,.29,4.05,.27,8.14,0,12.19-.14,2.06-1.84,3.25-3.98,3.14-2.23-.11-3.63-1.42-3.79-3.69-.13-1.85-.03-3.72-.02-5.58Z"/><path class="e" d="M169.74,186.83c-1.01-1.49-2.1-2.39-2.01-3.15,.1-.76,1.31-1.75,2.17-1.9,.52-.09,1.81,1.22,1.81,1.89,0,.84-.99,1.68-1.97,3.16Z"/><path class="e" d="M155.64,166.6c1.02,1.45,2.03,2.27,2.05,3.1,.01,.69-1.24,2.03-1.77,1.95-.86-.13-2.09-1.09-2.21-1.86-.12-.74,.96-1.68,1.93-3.19Z"/><path class="f" d="M147.34,127.85c0-1.32-.05-2.11,0-2.89,.14-1.89,.07-5.32,.55-5.41,2.62-.46,5.47-.42,8.07,.18,1,.23,2.03,2.35,2.19,3.7,.22,1.96-.96,3.71-3.08,4.01-2.41,.34-4.88,.28-7.74,.41Z"/><path class="f" d="M86.13,121.09l3.9,12.14h-7.77c1.23-3.86,2.44-7.64,3.87-12.14Z"/><path class="f" d="M176.44,121.82c1.2,3.75,2.4,7.5,3.67,11.47h-7.8c1.24-3.93,2.43-7.67,3.62-11.42l.51-.05Z"/></g></g></g></svg>