<?xml version="1.0" encoding="UTF-8"?><svg xmlns="http://www.w3.org/2000/svg" viewBox="0 0 619.17 1080"><defs><style>.d{fill:#fafbe9;}</style></defs><g id="a"/><g id="b"><g id="c"><path class="d" d="M111.45,0C49.9,0,0,49.9,0,111.45s49.9,111.44,111.45,111.44h42.11c44.42,0,80.43,36.01,80.43,80.43,0,22.21,9,42.32,23.56,56.87,14.55,14.55,34.66,23.55,56.87,23.55h20.13c72.98,0,132.13,59.16,132.13,132.13,0,36.49-14.79,69.52-38.7,93.43-23.91,23.91-56.94,38.7-93.43,38.7-19.67,0-37.48,7.97-50.37,20.86-12.89,12.89-20.86,30.7-20.86,50.37s7.97,37.49,20.86,50.38c12.89,12.89,30.7,20.86,50.37,20.86s38.69,8.23,52,21.54c13.31,13.3,21.54,31.69,21.54,51.99s-8.23,38.69-21.54,51.99c-13.31,13.31-31.69,21.54-52,21.54H157.26c-39.35,0-71.24,31.89-71.24,71.24,0,19.67,7.97,37.48,20.86,50.37,12.9,12.89,30.7,20.86,50.38,20.86h461.91V0H111.45Z"/></g></g></svg>