<?xml version="1.0" encoding="UTF-8"?><svg xmlns="http://www.w3.org/2000/svg" viewBox="0 0 415.17 111.53"><defs><style>.d{fill:#4f4c5f;}.e{fill:#ddd0c8;}.f,.g{fill:#2f2627;}.h{fill:#1e1618;}.i{fill:#111627;}.j{fill:#402436;}.k{fill:#e4ded9;}.l,.m{fill:#ebe0d4;}.n{fill:#614a59;}.o,.p,.q{fill:#e2d9d4;}.r{fill:#3a3635;}.s{fill:#c7b6ac;}.t{fill:#080d0f;}.u{fill:#ccb8a4;}.v{fill:#af9e8e;}.g,.p,.w,.x,.y,.m,.a`,.q{mix-blend-mode:multiply;}.g,.w,.q{opacity:.55;}.aa{fill:#d6cdca;}.ab{isolation:isolate;}.ac{fill:#827776;}.ad{fill:#a9998d;}.ae{fill:#f6f8f0;}.af{fill:#14192c;}.ag,.a`{fill:#ca6b3e;}.w{fill:#6c6979;}.ah{fill:#0f1321;}.x{fill:#d8c2ab;}.y{fill:#8a6951;}.y,.ai{opacity:.32;}.aj{fill:#d6d2cf;}.ak{fill:#95959a;}.al{fill:#814218;}.am{fill:#a65b26;}.an{fill:#302426;}.ai{fill:#373349;mix-blend-mode:screen;}.ao{fill:#111b1d;}.ap{fill:#aea198;}.aq{fill:#fbfbfb;}.ar{fill:#292524;}.as{fill:#2e2e38;}.at{fill:#d28657;}.au{fill:#16141f;}.av{fill:#ebebeb;}.aw{fill:#0b0e19;}.ax{fill:#b2aaa5;}.ay{fill:#674043;}.a`{opacity:.45;}.b`{fill:#cac3bb;}.ba{fill:#a06941;}.bb{fill:#d2cbc5;}.bc{fill:#bcb3aa;}.bd{fill:#f0eef1;}.be{fill:#1a0a14;}.bf{fill:#372d33;}.bg{fill:#252239;}</style></defs><g class="ab"><g id="a"/><g id="b"><g id="c"><g><path class="bg" d="M224.06,90.24c.31-2.6,2.75-3.89,5.5-5.96,1.3-.97,1.98-2.68,2.61-4.7,1.69-.66,3.37-.81,5.06-.73,2.32,1.17,4.74,2.12,7.08,3.26,.48,.23,1.27,.04,1.8,.27-4.4,7.36-9.53,7.2-12.42,7.47-3.03,.29-5.01-.36-5,1.98,.01,2.35,1.59,1.72,4.17,2.63,1.8,.64,1.17,1.76,.62,2.37-.25,.28-.61,.43-.99,.43h-7.36c-1.78,0-1.37-4.45-1.07-7.04Z"/><path class="ba" d="M224.13,89.93h5.23c.11,.08,.23,.15,.34,.23-.66,.21-1.02,.67-1.02,1.68,.01,2.35,1.59,1.72,4.17,2.63,1.8,.64,1.17,1.76,.62,2.37-.25,.28-.61,.43-.99,.43h-7.36c-1.78,0-1.37-4.45-1.07-7.04,.01-.11,.05-.2,.07-.31Z"/><path class="y" d="M224.13,89.93h5.23c.11,.08,.23,.15,.34,.23-.66,.21-1.02,.67-1.02,1.68,.01,2.35,1.59,1.72,4.17,2.63,1.8,.64,1.17,1.76,.62,2.37-.25,.28-.61,.43-.99,.43h-7.36c-1.78,0-1.37-4.45-1.07-7.04,.01-.11,.05-.2,.07-.31Z"/><path class="y" d="M227.62,90.16c.57,.03,1.15,.09,1.74,.16-.43,.26-.67,.71-.66,1.52,.01,2.35,1.59,1.72,4.17,2.63,1.8,.64,1.17,1.76,.62,2.37-.25,.28-.61,.43-.99,.43h-7.36c-1.63,0-1.43-3.74-1.14-6.36,1.22-.34,2.43-.82,3.63-.76Z"/><path class="ba" d="M281.81,92.26s-1.03-2.48,3.51-8.32c2.13-2.73,6.87-11.74-.92-13.83-7.79-2.09-6.11,10.17-7.37,16.58-1.26,6.41-.31,10.59,2.98,10.59h6.53c.44,0,.84-.21,1.1-.56,.56-.78,1.29-2.14,.01-2.51-1.83-.53-5.38,0-5.84-1.95Z"/><path class="y" d="M281.81,92.26s-1.03-2.48,3.51-8.32c2.13-2.73,6.87-11.74-.92-13.83-7.79-2.09-6.11,10.17-7.37,16.58-1.26,6.41-.31,10.59,2.98,10.59h6.53c.44,0,.84-.21,1.1-.56,.56-.78,1.29-2.14,.01-2.51-1.83-.53-5.38,0-5.84-1.95Z"/><path class="d" d="M232.28,73.36s-4.81,1.77-7.56,.92c-2.62-.82-6.02-3.98-5.59-7.95,.03-.24-.23-.4-.42-.25-.98,.79-3,3.24-.06,8.43,1.68,2.97,7.26,4.41,10.88,3.59,2.96-.67,4.53-2.68,2.75-4.74Z"/><path class="d" d="M280.37,49.7s2.99,7.97,.01,12.09-15.12,8.82-22.33,8.47-24.32-1.72-26.84,2.94c-2.52,4.66-2.52,10-5.27,12.06-2.75,2.06-5.19,3.36-5.5,5.96s-.71,7.04,1.07,7.04h7.36c.38,0,.74-.15,.99-.43,.54-.61,1.18-1.73-.62-2.37-2.58-.92-4.16-.29-4.17-2.63-.01-2.35,1.71-1.95,4.74-2.23s8.02,.63,13.17-8.02c0,0,8.38-.06,13.34,3.07,3.6,2.27,10.06,4.77,18.7,3.59,4.15-.57,9.99-3.59,13.48-5.54,6.88-3.86,.73-20.81,3.76-27.98,0,0-11.02-10.35-11.9-6.02Z"/><path class="ba" d="M220.44,91.23c.04-.37,.14-.71,.27-1.04,.29,.63,.93,1.08,2.14,1.15,1.13,.07,2.17-.12,3.21-.32-.65,.26-.99,.76-.99,1.81,.01,2.35,1.59,1.72,4.17,2.63,1.8,.64,1.17,1.76,.62,2.37-.25,.28-.61,.43-.99,.43h-7.36c-1.78,0-1.37-4.45-1.07-7.04Z"/><path class="ai" d="M271.06,71.55c-6.2,6.04-12.82,4.9-20.65,3.66-2.65-.42-5.47-.65-8.12-.1-3.17,.65-7.72,2.61-10.74,.55-.39-.27-.75-.57-1.1-.88,.22-.53,.47-1.05,.75-1.57,2.52-4.66,19.62-3.28,26.84-2.94,5.05,.24,12.52-1.99,17.56-4.77-1.34,2.38-2.99,4.54-4.54,6.05Z"/><path class="w" d="M291.82,65.5c-1.73-.92-4.05-2.69-5.54-3.34-1.24-.54-2.25-.23-3.58-.24-.78,0-1.55-.07-2.32-.14,2.95-4.13-.02-12.07-.02-12.07,.89-4.33,11.9,6.02,11.9,6.02-1.05,2.49-1.21,5.7-.44,9.78Z"/><path class="w" d="M255.08,84.98c-3.59-1.75-7.94-2.39-11.9-2.39,.79-1.24,1.64-2.34,2.75-3.32,3.52-1.36,6.75-.33,10.04,1.11,3.4,1.49,6.82,3.13,10.52,3.69,3.34,.51,6.94,0,9.83-1.81,2.48-1.55,4.09-4.03,4.94-6.8,4.09-.23,7.43,.42,10.66-1.03-.02,3.55-.4,7.59-3.82,9.49-3.53,1.96-7.23,3.88-11.14,4.92-4.05,1.08-8.6,.92-12.67,.02-1.73-.38-3.43-.93-5.05-1.65-1.45-.64-2.75-1.54-4.17-2.23Z"/><path class="d" d="M274.68,92.26c-.74-3.37-.97-6.84-.73-10.29,.42-6.02,.97-12.43,6.77-10.87,7.79,2.09,3.04,11.1,.92,13.83-4.54,5.84-3.51,8.32-3.51,8.32,.46,1.95,4.01,1.41,5.84,1.95,1.28,.37,.55,1.73-.01,2.51-.25,.35-.66,.56-1.1,.56h-4.82c-1.03,0-1.93-.67-2.22-1.65-.33-1.12-.77-2.7-1.14-4.36Z"/><path class="ba" d="M275.44,95.49c-.51-1.99-.97-3.99-1.25-6.02,1.72,.39,3.52-.28,5.08-.96-.11,.21-.22,.42-.32,.64h0c-.54,1.14-1.15,2.63-.88,3.93h0c.01,.05,.02,.1,.04,.15h0v.02c.42,1.74,3.2,1.58,4.54,1.72,.73,.08,2.09,.13,2.02,1.15-.06,.89-.84,2.15-1.82,2.15h-4.93c-1.08,0-2.01-.74-2.26-1.79-.08-.34-.15-.68-.23-1Z"/><path class="d" d="M287.21,42.64c.4,.03,.81,.03,1.21-.02,1.32-.16,4.59,.08,5.66,1.7,1.35,2.05,1.74,3.58,.47,5.95-1.27,2.37-1.55,5.74-3.3,7.61-1.75,1.87-5.75,1.66-7.08-1.07-1.38-2.84-2.38-4.55-3.41-7.97-.85-2.82,1.2-6.55,6.46-6.2Z"/><path class="w" d="M281.96,44.28c-.28,.92-.56,1.85-.53,2.86,.05,1.75,.69,3.62,1.54,5.11,1.51,2.66,1.68,4.03,5.26,4.4,2.32,.24,4.14-3.22,4.79-5.28,.76-2.39,.31-3.25,.65-5.18,.11-.63,.27-1.25,.41-1.88h0c.82,1.25,1.28,2.31,1.23,3.48-.1,.85-.35,1.69-.77,2.47-1.27,2.37-1.55,5.74-3.3,7.61-1.75,1.87-5.75,1.66-7.08-1.07-1.29-2.66-2.44-4.95-3.42-8.03-.43-1.5-.04-3.25,1.22-4.5Z"/><g><path class="d" d="M294.24,45.41s-.02-.44-.06-.97c.67,.5,1.41,.93,2.19,1.3,.19,.09,.39,.18,.59,.26,1.14,.48,2.19,1.2,2.9,2.21,1.05,1.5,1.25,3.13,.92,4.76-.02,.11-.06,.22-.11,.32-.85,1.79-2.13,3.78-3.88,5.77-.53,.61-1.4,.9-2.06,.63-.95-.38-1.91-1.72-1.23-5.87,1.28-7.77,.74-8.42,.74-8.42Z"/><path class="w" d="M293.77,52.14c.02,.86,.11,1.7,.47,2.41,1.06,2.07,3.44,1.68,5.18,.15,.43-.38,.81-.76,1.15-1.15-.84,1.7-2.08,3.6-3.78,5.53-.53,.61-1.4,.89-2.05,.63-.95-.38-1.92-1.72-1.23-5.87,.1-.61,.19-1.16,.27-1.69Z"/></g><path class="d" d="M281.7,44.56s-1.08,3.98-.77,6.51c.31,2.49,2.49,6.76,.38,9.39-2.1,2.61-7.88-5.56-7.91-8.97-.03-3.48,4.47-3.74,5.82-5.5,1.36-1.77,2.48-1.43,2.48-1.43Z"/><path class="w" d="M275.39,55.06c1.08,1,2.3,2.63,3.91,2.59,1.49-.04,2.2-1.5,2.52-2.85,.48,1.99,.73,4.09-.52,5.65-1.73,2.15-5.89-2.94-7.38-6.75,.47,.46,.97,.9,1.46,1.36Z"/><path class="ba" d="M287.65,49.4c1.72-.2,3.83,4.4,4.6,6.97-.27,.6-.77,1.25-1.01,1.51-1.75,1.87-5.75,1.66-7.08-1.07-.19-.38-.37-.75-.55-1.12,1.11-1.79,2.39-6.09,4.04-6.28Z"/><path class="i" d="M286.04,48.53s-.66-2.55-2.05-2.04c-1.39,.51-1.78,1.78-1.78,1.78,0,0,.98,1.32,1.7,1.29,.91-.04,2.13-1.03,2.13-1.03Z"/><path class="ac" d="M285.46,48.34s-.3-2.04-1.46-1.61c-1.16,.43-1.36,1.45-1.36,1.45,0,0,.69,1.16,1.3,1.13,.77-.04,1.52-.97,1.52-.97Z"/><path class="bf" d="M282.97,48.04c.03,.63,.56,1.12,1.2,1.1,.63-.03,1.12-.56,1.1-1.2-.03-.63-.56-1.12-1.2-1.1-.63,.03-1.12,.56-1.1,1.2Z"/><path class="bd" d="M283.24,47.64c0,.22,.2,.4,.42,.39,.22,0,.4-.2,.39-.42s-.2-.4-.42-.39-.4,.2-.39,.42Z"/><path class="i" d="M289.26,48.38s.44-2.59,1.87-2.2c1.42,.39,2.07,1.58,2.07,1.58,0,0-1.01,1.44-1.73,1.47-.91,.03-2.2-.85-2.2-.85Z"/><path class="ac" d="M289.83,48.15s.12-2.06,1.32-1.73,1.48,1.33,1.48,1.33c0,0-.59,1.21-1.2,1.23-.77,.03-1.6-.84-1.6-.84Z"/><path class="bf" d="M289.98,47.74c.03,.63,.56,1.12,1.2,1.1s1.12-.56,1.1-1.2-.56-1.12-1.2-1.1-1.12,.56-1.1,1.2Z"/><path class="bd" d="M290.25,47.34c0,.22,.2,.4,.42,.39,.22,0,.4-.2,.39-.42s-.2-.4-.42-.39c-.22,0-.4,.2-.39,.42Z"/><g><path class="af" d="M288.33,57.64c2.19,.39,2.95-.64,2.95-.64-.21,1.1-2.92,1.39-2.92,1.39,0,0-2.72-.06-3.03-1.13,0,0,.84,.97,3,.39Z"/><path class="af" d="M289.4,57.44s2.56-.91,1.62-3.08c-.84-1.95-2.21-.91-2.95-.81-.6,.08-2.06-.69-2.78,.86-.72,1.55,.84,3.33,3.18,3.23,.3-.01,.62-.08,.93-.2Z"/></g></g><g><path class="ad" d="M332.7,87.89c6.15-3.12,8.66-6.56,9.59-10.06h16.4l1.04,4.66c-3.4,1.54-8.44,4.52-11.47,6.92-3.3,2.62-8.67,2.48-10.05,3.67-1.38,1.19-1.01,4.41-.83,5.17,.18,.77,.64-.03,3.4,.7,1.37,.36,1.39,1.1,1.06,1.74-.39,.78-1.24,1.22-2.11,1.22h-4.49c-1.47,0-2.71-1.11-2.88-2.57-1.2-10.19,.34-11.45,.34-11.45Z"/><path class="ad" d="M387.24,81.04c-1.51-2.76-2.38-5.86-2.35-9.01,.03-3.54,1.2-7.07,5.75-7,9.09,.14,6.94,11.66,6.36,16.57s-1.86,17.22,.64,16.64c2.26-.53,5.54,.87,4.3,2.95-.37,.61-1.04,.71-1.04,.71h-5.19c-.98,0-1.87-.59-2.24-1.49-.9-2.17-2.56-6.05-3.24-7.02-.85-1.21-.31-7.45-2.98-12.35Z"/><path class="e" d="M349.27,66.11s-7.89-7.94-7.89-20.3c0-6.47-1.06-8.09-2.21-7.72-1.05,.34-3.2,9.08-1.89,14.6,1.21,5.12,3.72,11.01,8.03,15.63l3.97-2.21Z"/><path class="an" d="M341.45,47.74c.75,11.25,7.82,18.37,7.82,18.37l-3.97,2.21c-4.31-4.62-6.82-10.51-8.03-15.63-.28-1.17-.39-2.48-.4-3.82,1.65,.23,3.18-.27,4.58-1.13Z"/><path class="o" d="M395.07,43.27s-5.23,10.19-9.22,15.14c-3.99,4.96-18.17,7.55-22.3,7.7-4.13,.15-14.46-2.63-17.76,0-3.3,2.63-6.33,5.47-6.47,10.1-.14,4.64-1.93,9.32-10.05,13.45,0,0-1.54,1.26-.34,11.45,.17,1.46,1.41,2.57,2.88,2.57h4.49c.86,0,1.7-.44,2.1-1.2,.33-.65,.32-1.39-1.06-1.76-2.75-.73-3.21,.06-3.4-.7-.18-.77-.55-3.98,.83-5.17,1.38-1.19,6.75-1.06,10.05-3.67,3.3-2.62,3.85-5.92,8.12-7.3,4.27-1.38,11.01,2.07,17.35,3.17,6.33,1.1,11.01,1.1,15.56-.83,0,0,11.98-1.74,15.28-10.1,1.66-4.19-.14-10.69,2.62-19.23,2.75-8.54-6.33-15.83-8.67-13.63Z"/><path class="ag" d="M394.48,60.61c-2.02,3.47,.41,5.21,2.44,7.49,6.91,7.76-8.64,4.69-11,4.88-2.48,.2-4.2,2.14-5.32,4.19-3.41,6.26-8.2,8.61-15.3,6.81-4.24-1.07-8.95-2.87-13.4-2.1-2.74,.47-5.74,2.75-8.5,2.42-1.94-.24-3.9-.51-5.84-.09-.43,.09-.84,.16-1.23,.2,2.23-2.66,2.9-5.43,2.99-8.18,.14-4.64,3.17-7.48,6.47-10.1,3.3-2.63,13.63,.15,17.76,0,4.13-.15,18.31-2.74,22.3-7.7,3.99-4.96,9.22-15.14,9.22-15.14,1.28-1.21,4.6,.45,6.88,3.6-.73,5.38-4.6,8.83-7.46,13.74Z"/><path class="a`" d="M402.21,64.79c-3.53-.45-4.32-2.01-6.07-2.93-1.38-.72-2.77-1.17-4.25-1.49-2.1-.45-3.84-1.5-5.29-2.93,3.87-5.2,8.47-14.17,8.47-14.17,.08-.07,.16-.13,.25-.19,.03-.02,.06-.03,.09-.04,.06-.03,.13-.06,.2-.08,.04-.01,.08-.02,.12-.03,.07-.02,.13-.03,.21-.04,.05,0,.09,0,.14,0,.07,0,.15,0,.23,0,.05,0,.1,0,.15,.01,.08,0,.17,.02,.25,.03,.05,0,.09,.02,.14,.03,.09,.02,.19,.05,.28,.07,.04,.01,.09,.03,.13,.04,.11,.04,.22,.08,.33,.12,.04,.01,.07,.03,.11,.04,.13,.06,.27,.12,.4,.19,.02,0,.03,.01,.05,.02,1.27,.66,2.66,1.86,3.8,3.43h0c1.87,2.59,3.04,6.18,1.8,10.03-.92,2.86-1.33,5.49-1.53,7.89Z"/><path class="h" d="M390.81,58.71c-.87,3.3-2.06,6.26-5.18,8.07-1.45,.84-2.69,1.66-3.94,2.77-1.93,1.72-2.4,4.58-3.26,6.86-2.17,5.77-12.35,4.96-17.08,3.29-6.9-2.43-10.94-9.17-17.56-11.92,.64-.58,1.31-1.13,1.99-1.67,3.3-2.63,13.63,.15,17.76,0,4.13-.15,18.31-2.74,22.3-7.7,2-2.48,4.31-6.27,6.11-9.44-.15,3.3-.32,6.6-1.15,9.74Z"/><path class="o" d="M384.37,82.82c-1.51-2.76-2.38-5.86-2.35-9.01,.03-3.54,1.2-7.07,5.75-7,9.09,.14,6.94,11.66,6.36,16.57s-1.86,17.22,.64,16.64c2.26-.53,5.54,.87,4.3,2.95-.37,.61-1.04,.71-1.04,.71h-5.19c-.98,0-1.87-.59-2.24-1.49-.9-2.17-2.56-6.05-3.24-7.02-.85-1.21-.31-7.45-2.98-12.35Z"/><path class="ag" d="M393.81,86.26c-1.95,1.94-4.78,2.12-7.7,1.52-.35-1.65-.87-3.38-1.74-4.96-1.51-2.76-2.38-5.86-2.35-9.01,.03-3.54,1.2-7.07,5.75-7,9.09,.14,6.94,11.66,6.36,16.57-.09,.79-.21,1.78-.32,2.88Z"/><path class="ag" d="M407.18,51.44c.02,.69,.02,1.71-.07,2.79-1.78-.86-3.72-1.59-5.61-1.35-2.03,.26-3.49,1.52-4.73,2.98-.45-.94-.87-2.07-1.23-3.44-1.38-5.37-2.96-7.83-2-9.55s5.38-3.91,6.84-3.6c0,0,7.16,1.28,7.43,2.94,.28,1.65-.73,6.57-.64,9.23Z"/><path class="a`" d="M406.5,43.78c-.08-1.1-.2-2.07-.49-2.98,.98,.41,1.72,.89,1.81,1.4,.14,.86-.06,2.62-.28,4.48-.55-.87-.96-1.81-1.04-2.9Z"/><path class="a`" d="M394.51,46.78c-.15,.3-.28,.59-.39,.89-.75-2.28-1.18-3.69-.56-4.79,.29-.52,.89-1.07,1.63-1.59,.1,1.98,.03,4.15-.67,5.5Z"/><path class="a`" d="M394.31,46.18c.7,1.48,.47,3.24,1.63,4.52,.88,.97,1.82,2.5,3.07,3.12-.84,.54-1.57,1.26-2.23,2.04-.45-.94-.87-2.07-1.23-3.44-1.14-4.46-2.42-6.91-2.28-8.6,.21,.8,.65,1.55,1.04,2.35Z"/><path class="a`" d="M406.3,50.06c.68-1.74,1.18-3.7,1.16-5.59-.01-.89,.07-1.85,.03-2.79,.17,.17,.3,.34,.33,.52,.28,1.65-.73,6.57-.64,9.23,.02,.69,.02,1.71-.07,2.79-.95-.46-1.95-.87-2.96-1.13,.93-.76,1.67-1.82,2.15-3.03Z"/><path class="o" d="M399.34,50.53c.6-1.61,.32-3.78,.27-4.29-.28-3.16-.05-5.42,.41-5.41,1.01,0,1.69,3.54,1.94,5.23,.45,4.47,1.97,5.75,5.2,7.38-.13,2.8-1.07,6.57-3.43,6.45-.75-.04-1.21,.05-1.94,.24-.46,.12-.99,.16-1.41-.07-.82-.45-2.59-1.67-3.96-4.98,1.18-1.45,2.65-3.83,2.91-4.55Z"/><path class="af" d="M403.7,58.85s.08,0,.13-.02c.71-.13,1.28-.76,1.49-1.32,.3-.8,.74-1.1,.74-1.11,0,0-.75-.14-1.1,.78-.18,.47-.54,.8-1.13,.9-.53,.08-1.63-.91-1.63-.91,0,0-.64,1.01-1.35,1.1-.49,.06-1.28-.17-1.51-.55-.68-1.1-1.3-.45-1.3-.45,.31-.13,.82,.51,1.01,.84,.59,.69,1.19,1,1.79,.91,.68-.08,1.17-.61,1.39-.9,.53,.64,1.07,.76,1.48,.72Z"/><path class="af" d="M402.19,57.31s3.58-1.92,2.6-4.27c-.59-1.41-6.18-1.09-6.18,.59,0,1.82,1.41,2.84,3.57,3.68Z"/><g><path class="j" d="M399.01,48.33s-.27-1.66-1.65-1.95c-.92-.19-1.7,.69-2.15,.68,0,0,.59,1.57,1.5,1.52,1.28-.07,1.7-.24,2.3-.26Z"/><path class="n" d="M398.68,48.23s-.18-1.44-1.36-1.69c-.79-.16-1.4,.59-1.79,.58,0,0,.46,1.29,1.23,1.3,.94,0,1.54-.2,1.91-.19Z"/><path class="al" d="M396.22,47.4c0,.49,.4,.88,.88,.88s.88-.4,.88-.88-.4-.88-.88-.88-.88,.4-.88,.88Z"/><path class="aw" d="M396.64,47.4c0,.26,.21,.47,.47,.47s.47-.21,.47-.47c0-.26-.21-.47-.47-.47s-.47,.21-.47,.47Z"/><path class="aq" d="M396.46,46.93c0,.18,.15,.33,.33,.33s.33-.15,.33-.33-.15-.33-.33-.33-.33,.15-.33,.33Z"/></g><g><path class="j" d="M403.07,48.06s.27-1.66,1.65-1.95c.92-.19,1.7,.69,2.15,.68,0,0-.59,1.57-1.5,1.52-1.28-.07-1.7-.24-2.3-.26Z"/><path class="n" d="M403.39,47.96s.18-1.44,1.36-1.69c.79-.16,1.4,.59,1.79,.58,0,0-.46,1.29-1.23,1.3-.94,0-1.54-.2-1.91-.19Z"/><path class="al" d="M404.08,47.13c0,.49,.4,.88,.88,.88s.88-.4,.88-.88-.4-.88-.88-.88-.88,.4-.88,.88Z"/><path class="aw" d="M404.5,47.13c0,.26,.21,.47,.47,.47s.47-.21,.47-.47-.21-.47-.47-.47-.47,.21-.47,.47Z"/><path class="aq" d="M404.32,46.66c0,.18,.15,.33,.33,.33s.33-.15,.33-.33-.15-.33-.33-.33-.33,.15-.33,.33Z"/></g><path class="ag" d="M406.97,41.32s1.16-.72,2.12-.1c.96,.62,3.92,3.47,5.57,4.4,1.65,.94-1.03,13.99-4.88,13.3-3.85-.69-3.71-5.81-2.54-11.1s-.27-6.51-.27-6.51Z"/><path class="a`" d="M411.3,54.69c.94,.13,1.76,.02,2.49-.25-.97,2.64-2.38,4.78-4,4.49-3.31-.59-3.67-4.45-2.97-8.87,.89,2.15,2.06,4.29,4.48,4.63Z"/><path class="ag" d="M393.77,42.55s-.79-.47-1.81,.9c-1.02,1.38-4.51,3.84-6.07,5.13-1.56,1.29,1.26,9.43,7.88,10.45,6.62,1.02,1.04-9.25,.65-10.45-.39-1.2-1.28-5.38-.65-6.04Z"/><path class="a`" d="M392.66,55.72c1.7-.42,2.64-1.94,3.23-3.68,1.28,3.33,2.3,7.68-2.12,6.99-3.35-.52-5.72-2.86-7.05-5.21,1.76,1.39,3.62,2.47,5.94,1.89Z"/></g><g><path class="u" d="M246.71,80.1c1.03-2.39,3.04-3.62,5.61-3.24,1.68,.25,3.44,1.02,2.8,3.24-1.16,3.99-3.55,8.38-4.06,13.33-.51,4.94,.07,10.45,.87,10.89,.8,.43,3.95,1.04,3.82,3.14s-1.63,2.15-5.49,2.15c-3.12,0-4.08-12.69-4.37-15.59-.21-2.09-1.12-9.43,.82-13.92Z"/><path class="u" d="M205.65,77.48s8.08,5.22,7.41,8.48c-.68,3.26-6.25,9.19-11.39,11.25-1.31,.53,1.19,9.59,1.74,9.7s3.53,.38,2.99,2.39c-.35,1.29-3.37,.96-5.35,.96-1.48,0-1.89-.97-2.18-2.1-.66-2.53-1.82-7.14-2.34-10.01-.19-1.04,.19-2.09,.98-2.79,1.32-1.17,3.19-3.14,2.86-4.69-.51-2.36-3.27-10.47-3.18-12.78,0,0,5.69-1.61,8.47-.42Z"/><path class="l" d="M201.37,70.74s-4.68-3.04-5.65-8.05c-.98-5,.11-9.46-1.41-8.92-1.52,.54-5.76,4.7-1.85,11.43s4.24,5.74,5,9.01l3.91-3.47Z"/><path class="at" d="M192.14,64.59c.26-1.8,1.05-3.46,3.3-3.76,.07,.6,.16,1.23,.28,1.86,.98,5,5.65,8.05,5.65,8.05l-3.91,3.47c-.76-3.27-1.09-2.28-5-9.01-.12-.21-.21-.41-.32-.61Z"/><path class="l" d="M259.11,58.35s-1.3,5.98-.76,10.33c.54,4.35,2.28,14.94-7.29,19.81-9.57,4.87-15.98,4.55-30.99-1,0,0-9.24-2.39-10.87,.11s-12.5,.86-14.46-4.95c-1.96-5.81-.33-6.79,5.11-12.23,0,0,6.8-4.08,19.74-1.52,0,0,16.11,.96,21.19-1.37,5.07-2.33,7.54-7.26,8.05-10.59,0,0,8.05,2.83,10.29,1.41Z"/><path class="m" d="M207.75,87.57c1.88-2.16,2.81-4.01,5.82-4.86,3.41-.96,6.34,.63,9.54,1.66,4.88,1.58,10.68,4.52,15.94,2.75,2.22-.75,4.35-1.8,6.24-3.21,1.19-.89,2.23-1.97,3.35-2.96,.11,0,.23,0,.34,0,1.28,.13,2.6,.39,3.89,.29,1.82-.14,3.64-.52,5.24-1.2-.93,3.23-2.95,6.35-7.03,8.43-9.57,4.87-15.98,4.55-30.99-1,0,0-9.24-2.39-10.87,.11-.4,.61-1.35,.97-2.59,1.09,.39-.32,.77-.69,1.14-1.11Z"/><path class="at" d="M194.1,80.27c-.71-3.84,1.15-5.26,5.75-9.86,0,0,3.26-1.95,9.54-2.31-1.2,.84-2.16,2.1-2.96,3.35-1.16,1.82-2.25,3.8-4.08,4.94-2,1.26-4.61,1.31-6.56,2.65-.57,.39-1.08,.89-1.69,1.22Z"/><path class="at" d="M214.32,76.49c-.38,.2-.77,.4-1.19,.5-1.22,.26-2.49-.49-3.17-1.53-.69-1.04-.9-2.32-1.03-3.56-.02-.2-.04-.4,0-.6,.15-.87,1.2-1.27,2.08-1.24,1.41,.05,2.7,.78,3.93,1.48,.76,.44,1.59,.96,1.79,1.81,.17,.69-.15,1.43-.63,1.95-.49,.52-1.13,.86-1.76,1.19Z"/><path class="at" d="M219.32,73.2c1.31-1.67,2.94-3.16,4.81-4.14,2.49,.05,5.67,.05,8.67-.13,1.18,.67,2.17,1.63,2.76,2.86,.66,1.38,.78,3.06,.09,4.42-.82,1.6-2.56,2.49-4.25,3.11-1.69,.61-3.5,1.09-4.87,2.25-.98,.83-1.86,2.05-3.14,2.06-.94,.01-1.74-.66-2.36-1.37-1.35-1.55-2.27-3.48-2.63-5.5-.11-.63-.17-1.28,0-1.89,.16-.62,.54-1.15,.93-1.66Z"/><path class="at" d="M244.21,69.99c.8,.38,1.22,1.26,1.46,2.12,.19,.7,.29,1.45,.09,2.14s-.77,1.32-1.49,1.41c-.42,.05-.84-.08-1.27-.1-.49-.03-.99,.1-1.42,.36-.52,.32-.91,.82-1.42,1.16-.51,.34-1.26,.48-1.7,.05-.15-.44,.07-.92,.15-1.38,.15-.83-.18-1.67-.19-2.52-.02-1.49,1.05-2.92,2.48-3.32,.59-.17,1.21-.17,1.83-.16,.5,0,1.02,.03,1.47,.24Z"/><path class="at" d="M234.63,82.05c.04-.72,.28-1.51,.89-1.89,.45-.29,1.02-.3,1.56-.3,.62,0,1.25,0,1.87,0,.3,0,.66,.03,.81,.3,.12,.23,.01,.51-.12,.73-.73,1.29-2.08,2.2-3.55,2.4-.47,.06-1.02,.02-1.29-.36-.17-.25-.19-.57-.17-.87Z"/><path class="at" d="M250.07,65.94c-.27,.21-.4,.55-.51,.88-.21,.62-.41,1.27-.83,1.78-.42,.51-1.12,.85-1.74,.64-.89-.31-1.1-1.45-1.64-2.23-.38-.55-.99-.95-1.65-1.07-.09-.02-.18-.02-.27-.03,3.28-2.55,4.96-6.24,5.38-8.93,.16,.14,.3,.29,.42,.47,.29,.45,.39,.98,.56,1.48,.29,.9,.77,1.74,1.41,2.44,.58,.64,1.3,1.19,1.68,1.96,.38,.78,.25,1.91-.54,2.25-.71,.31-1.65-.12-2.26,.35Z"/><path class="at" d="M205.72,75.54c1.09-.09,2.3-.05,3.09,.71,.25,.24,.44,.57,.39,.92-.08,.53-.71,.81-1.25,.81-.54,0-1.08-.16-1.62-.06-.71,.14-1.29,.73-2.02,.79-.15,.01-.3,0-.43-.06-.33-.15-.46-.58-.38-.93s.34-.64,.6-.88c.8-.74,.52-1.2,1.6-1.29Z"/><path class="l" d="M202.42,78.71s8.1,5.83,6.78,8.88c-1.3,3.01-9.35,9.71-10.66,10.24-1.3,.53,1.09,10.21,1.63,10.31,.54,.11,3.53,.38,2.99,2.39-.35,1.29-3.37,.96-5.35,.96-1.48,0-1.89-.97-2.18-2.1-.66-2.53-1.82-7.14-2.34-10.01-.19-1.04,.19-2.09,.98-2.79,1.32-1.17,3.19-3.14,2.86-4.69-.51-2.36-3.27-10.47-3.18-12.78,0,0,5.69-1.61,8.47-.42Z"/><path class="m" d="M258.35,68.67c.08,.65,.19,1.43,.28,2.31-3.61,.25-7.66-1.25-9.9-3.55-1.1-1.13-2.25-2.22-3.4-3.32,2.06-2.33,3.16-5.07,3.49-7.19,0,0,8.05,2.83,10.29,1.41,0,0-1.3,5.98-.76,10.33Z"/><path class="l" d="M244.25,81.96c1.03-2.39,3.04-3.62,5.61-3.24,1.68,.25,3.44,1.02,2.8,3.24-1.16,3.99-3.55,8.38-4.06,13.33-.51,4.94,.07,10.45,.87,10.89,.8,.44,3.95,1.04,3.82,3.14-.12,2.1-1.63,2.15-5.49,2.15-3.12,0-4.08-12.69-4.37-15.59-.21-2.09-1.12-9.43,.82-13.92Z"/><g><path class="am" d="M249.01,46.63s-2.05-1.09-3.02-1.03c-.96,.06-2.31,2.37-2.31,2.37,0,0,1.86,5.26,2.66,6.16,.8,.9,2.66-7.51,2.66-7.51Z"/><path class="am" d="M257.24,45.24s2.47-1.66,3.43-1.6c.96,.06,2.31,2.37,2.31,2.37,0,0-1.3,5.33-2.11,6.23s-3.64-7.01-3.64-7.01Z"/><path class="at" d="M252.98,44.59s3.03-.48,5.01,.72c1.7,1.03,2.49,1.95,3.2,4.32,.71,2.37,1.4,2.88,1.79,4.88,.39,2-1.36,2.53-1.99,6.62-.58,3.73-4.03,7.44-5.5,2.89,0,0-.78,3.58-3.6,1.85-1.2-.74-1.87-3.45-2.6-4.61-1.63-2.58-3.97-4.02-3.33-6.75,.89-3.8,1.04-7.5,3.99-8.93,.82-.4,1.7-.8,3.05-.98Z"/><path class="x" d="M259.75,49.48c-.66-1.27-2.1-2.64-2.46-3.99-.05-.2-.11-.39-.17-.58,.3,.11,.6,.24,.87,.4,1.7,1.03,2.49,1.95,3.2,4.32,.39,1.3,.77,2.04,1.1,2.78-.99-.57-1.76-1.43-2.54-2.92Z"/><path class="x" d="M247.85,51.94c-.09,.22-1,1.79-1.81,2.15,.69-3.12,.98-6.1,2.81-7.77-.36,2.31-.17,3.53-1,5.62Z"/><path class="l" d="M250.73,57.7c1.26-.12,2.53-1.23,2.61-2.63,.19-3.24-.57-7.37-1.47-10.25,.12-.03,.24-.06,.37-.09,.23-.05,.47-.1,.74-.14,0,0,.15-.02,.4-.05,.05,0,.09,0,.14-.01h0c.34-.03,.81-.04,1.33,0,.38,3.7,.05,7.14,1.45,10.53,.6,1.46,2.35,1.35,4.26,1.82,.59,.15,1.07,.45,1.44,.86-.38,.8-.78,1.84-1.02,3.39-.35,2.25-1.74,4.49-3.12,4.91-.64,.65-1.76,1.55-2.9,1.28-.9-.22-1.55-.65-1.96-1.02-.03,0-.06,0-.09-.01-.05,0-.09-.02-.14-.03-.09-.03-.19-.06-.3-.1-.05-.02-.09-.03-.14-.05-.15-.07-.3-.14-.47-.24-1.2-.74-1.87-3.45-2.6-4.61-.56-.89-1.21-1.65-1.79-2.37,.62-.5,1.63-1.03,3.25-1.19Z"/><path class="at" d="M246.26,46.56c.03-.5-.01-1.1-.5-.97-.56,.15-1.82,.53-2.51,.41-1.2-.21-1.24-.04-1.5,.04-.26,.08-3.55,2.18-3.25,3.85,.3,1.67,1.71,5.01,2.18,5.26,.47,.26,4.31-4.96,4.82-6.35,.27-.73,.71-1.52,.75-2.24Z"/><path class="at" d="M260.11,43.73s.26-.76,1.11-.59,5.01,1.71,6.67,2.27c1.67,.56,.26,2.18-.77,4.71-1.03,2.52-1.4,3.85-2.52,2.87-1.62-1.41-2.52-5.52-3.04-6.63-.51-1.11-1.88-2.71-1.45-2.62Z"/><path class="af" d="M253.3,64.65c1.61-.25,1.99-1.42,2.07-1.66,0-.02,0-.03,0-.05v.02l.02-.02s0,.03,0,.05c.09,.24,.47,1.66,2.1,1.68,.85,.01,2.39-1.05,2.63-1.19-.48,.83-1.27,1.81-2.34,1.94-1.51,.18-2.28-.44-2.41-1.33-.26,.89-1.22,1.68-2.4,1.51-1.16-.17-2.04-1.37-2.55-2.16,.2,.15,2.42,1.29,2.87,1.22Z"/><path class="af" d="M255.39,64.55s2.87-1.32,3.01-3.22-1.37-2.42-3.28-2.44c-1.91-.02-3.97,1.4-3.07,3.05,.74,1.37,2.61,2.79,3.34,2.61Z"/><g><path class="j" d="M252.02,54.06s-.2-1.88-1.99-2.01c-1.2-.09-2.18,1.12-2.18,1.12,0,0,.42,1.59,1.57,1.75,1.93,.27,2.6-.86,2.6-.86Z"/><path class="n" d="M251.59,53.99s-.05-1.62-1.58-1.73c-1.02-.08-1.74,.93-1.74,.93,0,0,.36,1.48,1.34,1.55,1.37,.09,1.97-.75,1.97-.75Z"/><path class="al" d="M248.76,53.53c.08,.62,.65,1.05,1.27,.97,.62-.08,1.05-.65,.97-1.27-.08-.62-.65-1.05-1.27-.97-.62,.08-1.05,.65-.97,1.27Z"/><path class="aw" d="M249.28,53.46c.04,.33,.35,.56,.68,.52s.56-.35,.52-.68c-.04-.33-.35-.56-.68-.52-.33,.04-.56,.35-.52,.68Z"/><path class="aq" d="M248.99,52.89c.03,.23,.24,.39,.47,.36s.39-.24,.36-.47-.24-.39-.47-.36-.39,.24-.36,.47Z"/></g><g><path class="j" d="M256.93,53.41s0-1.89,1.78-2.2c1.18-.21,2.28,.89,2.28,.89,0,0-.26,1.63-1.38,1.9-1.89,.47-2.68-.59-2.68-.59Z"/><path class="n" d="M257.35,53.3s-.11-1.62,1.4-1.88c1.01-.18,1.82,.75,1.82,.75,0,0-.21,1.51-1.18,1.67-1.36,.23-2.03-.54-2.03-.54Z"/><path class="al" d="M257.8,52.93c.21,.59,.86,.89,1.45,.67,.59-.21,.89-.86,.67-1.45-.21-.59-.86-.89-1.45-.67-.59,.21-.89,.86-.67,1.45Z"/><path class="aw" d="M258.29,52.75c.11,.31,.46,.47,.77,.36,.31-.11,.47-.46,.36-.77-.11-.31-.46-.47-.77-.36-.31,.11-.47,.46-.36,.77Z"/><path class="aq" d="M257.88,52.26c.08,.22,.32,.33,.54,.25,.22-.08,.33-.32,.25-.54-.08-.22-.32-.33-.54-.25-.22,.08-.33,.32-.25,.54Z"/></g></g></g><g><path class="ar" d="M134.88,70.03c-.48-1.87-1.31-3.4-1.63-5.01h14.7v2.94c-.96,1.97-4.33,6.92-12.25,12.63-.36,.26-.63,.63-.74,1.06-.3,1.13-.57,3.56,1.07,6.9,.35,.72,1.11,1.15,1.94,1.2,1.08,.06,2.47,.44,2.43,1.97-.05,2.12-2.29,1.77-5.14,1.61-1-.06-1.88-.66-2.25-1.55-1.32-3.15-4.23-10.21-3.99-10.95,.31-.96,7.06-6.12,5.87-10.79Z"/><path class="ax" d="M134.75,84.14c.08,1.19,.41,2.67,1.26,4.41,.35,.72,1.11,1.15,1.94,1.2,1.08,.06,2.47,.44,2.43,1.97-.05,2.12-2.29,1.77-5.13,1.61-1-.06-1.88-.66-2.25-1.55-1.12-2.66-3.37-8.12-3.89-10.19,1.46,1.65,3.46,2.35,5.64,2.56Z"/><path class="ar" d="M182.33,59.4c.2,2.68-.11,7.09-2,14.16,0,0-2.99,8.34-2.42,13.27,.12,1.05,1.02,2.07,2.08,2.13,1.81,.1,3.46,.58,3.46,1.56,0,1.95-1.18,2.34-3.71,2.34-2.07,0-3.35-1.02-3.93-2.27-.7-1.5-1.24-3.29-2.04-4.22-1.67-1.92,.94-1.81-1.23-7.56-1.9-5.05-4.39-19.69,3.77-22.76,2.37-.89,5.84,.83,6.03,3.35Z"/><path class="ax" d="M171.5,75.2c1,.57,2.04,1.03,3.13,1.33,1.77,.49,3.29,.47,4.73,.14-.81,2.88-1.79,7.14-1.44,10.15,.12,1.05,1.02,2.07,2.08,2.13,1.81,.1,3.46,.58,3.46,1.56,0,1.95-1.18,2.34-3.71,2.34-2.07,0-3.35-1.02-3.93-2.27-.7-1.5-1.24-3.29-2.04-4.22-1.67-1.92,.94-1.81-1.23-7.56-.35-.92-.71-2.17-1.03-3.61Z"/><path class="r" d="M136.9,55.85s-4.35-4.66-5.32-7.34c-.63-1.72-.53-4.06,.32-5.87,1.02-2.16,2.98-4.52,5.89-5.56,1.35-.48,.51-1.47-1.09-1.35-4.36,.32-7.35,3.76-8.59,6.78-1.2,2.92-1,5.31-.15,8.39,.99,3.59,6,8.8,6,8.8,0,0,3.64,.91,2.94-3.86Z"/><path class="r" d="M188.74,40.93s-.05,9.24,.2,12.74,0,5.14-2.14,10.38c-1.99,4.89-14.45,11.27-18.26,10.78-9.85-1.28-15.68-10.53-23.43-6.28,0,0-2.9,6.68-12.58,13.96-.35,.26-.6,.62-.71,1.04-.3,1.15-.61,3.71,1.05,7.26,.35,.75,1.11,1.21,1.94,1.25,1.08,.06,2.47,.45,2.43,2.05-.05,2.21-2.29,1.85-5.14,1.68-1-.06-1.87-.69-2.25-1.62-1.32-3.28-4.2-9.75-3.99-11.44,.28-2.25,7.06-6.44,5.87-11.31-1.19-4.88-4.62-7.5,3.31-14.87,7.94-7.37,9.92-5.87,19.74-5.62,6.72,.17,14.67,.86,19.65-2.18,2.3-1.4,3.53-4.94,4.5-7.28,0,0,6.33,.42,9.79-.54Z"/><path class="aj" d="M181.27,60.3c0-2.69-1.61-9.5,.38-12.36,.84,.6,1.69,1.19,2.56,1.74,1.09,.69,3.93,1.8,3.78,3.53-.09,.99-.29,2-.31,3-.03,1.55,.08,3.07,.37,4.53-.32,.94-.73,2.02-1.26,3.32-1.2,2.94-6.18,6.42-10.79,8.62,2.38-3.89,5.25-8.1,5.26-12.38Z"/><path class="aj" d="M151.11,66.56c3.4,.26,6.79,1.17,9.89,2.55,3.06,1.36,6.22,2.87,9.51,3.05-.22,.41-.44,.81-.64,1.22-.25,.5-.31,.99-.26,1.44-.4,.04-.77,.05-1.07,.01-8.25-1.07-13.69-7.74-19.8-7.37,.86-.56,1.68-.96,2.36-.91Z"/><path class="aj" d="M131.6,86.11c.07,1.26,.39,2.84,1.27,4.71,.35,.75,1.11,1.21,1.94,1.25,1.08,.06,2.47,.45,2.43,2.05-.05,2.21-2.29,1.85-5.14,1.68-1-.06-1.87-.69-2.25-1.62-1.19-2.97-3.65-8.52-3.96-10.81,1.56,1.35,3.55,2.23,5.71,2.74Z"/><path class="r" d="M179.36,62.4c.2,2.68-.11,7.09-2,14.16,0,0-2.1,8.34-1.54,13.27,.12,1.05,1.02,2.07,2.08,2.13,1.81,.1,3.46,.58,3.46,1.56,0,1.95-1.18,2.34-3.71,2.34-2.07,0-3.35-1.02-3.93-2.27-.7-1.5-1.24-3.29-2.04-4.22-1.67-1.92,.94-1.81-1.23-7.56-1.9-5.05-4.39-19.69,3.77-22.76,2.37-.89,4.96,.83,5.14,3.35Z"/><path class="aj" d="M169.24,77.39c1.49,.9,3.12,1.78,4.65,1.73,1.06-.04,2.06-.22,3-.51-.58,2.79-1.46,7.81-1.07,11.21,.12,1.05,1.02,2.07,2.08,2.13,1.81,.1,3.46,.58,3.46,1.56,0,1.95-1.18,2.34-3.71,2.34-2.07,0-3.35-1.02-3.93-2.27-.7-1.5-1.24-3.29-2.04-4.22-1.67-1.92,.94-1.81-1.23-7.56-.41-1.09-.85-2.64-1.2-4.42Z"/><g><g><path class="r" d="M184.63,35.19s3.45-3.81,7.06-6.63c2.46-1.92,8.68-8.58,9.79-6.27,1.1,2.3-1.9,11.38-3.12,13.2-1.12,1.66-5.27,3.91-9.85,4.07-4.58,.16-3.88-4.37-3.88-4.37Z"/><path class="ap" d="M190.11,34.72s7.91-9.61,8.53-8.63c.63,.98-.33,5.26-1.6,7.22-1.15,1.77-6.05,4.27-7.03,4.11-.96-.16,.1-2.69,.1-2.69Z"/></g><g><path class="r" d="M183.03,35.06s-3.73-2.16-8.21-4.24c-2.83-1.32-11.32-5.65-11.7-3.11-.38,2.52,5.17,10.31,6.88,11.69,1.56,1.25,6.19,2.18,10.61,.98,4.42-1.2,2.41-5.32,2.41-5.32Z"/><path class="ap" d="M177.65,36.22s-10.39-6.85-10.7-5.73,1.87,4.93,3.66,6.42c1.62,1.35,7.04,2.29,7.93,1.85,.87-.43-.89-2.54-.89-2.54Z"/></g><path class="r" d="M179.2,31.14c2.46-.87,6.16-1.31,8.68-.64,4.38,1.17,6.14,7.95,6.73,10.4,.98,4.1-5.17,11.41-9.45,12.01-4.28,.59-11.6-4.96-11.85-11.43-.14-3.72,1.97-8.94,5.9-10.34Z"/><path class="k" d="M189.63,45.61c2.46,1.7-1.23,4-2.28,4.55-1.36,.71-3.17,1.01-4.64,.63-1.35-.34-6.74-3.28-3.46-5.06,2.24-1.22,2.28-2.91,4.2-3.9,1.16-.6,2.32,.36,2.88,1.34,.73,1.26,2.96,2.2,3.31,2.44Z"/><g><path class="ak" d="M179.98,40.59s-1.41-2.06-2.76-1.68c-1.36,.38-1.98,2.18-1.98,2.18,0,0,.9,1.86,2.26,1.68,1.36-.18,2.43-1.36,2.48-2.18Z"/><path class="as" d="M175.85,40.83c0,.97,.78,1.75,1.75,1.75s1.75-.78,1.75-1.75-.78-1.75-1.75-1.75-1.75,.78-1.75,1.75Z"/><path class="au" d="M176.76,40.83c0,.46,.38,.84,.84,.84s.84-.38,.84-.84-.38-.84-.84-.84-.84,.38-.84,.84Z"/><path class="ae" d="M176.01,40.36c0,.35,.29,.64,.64,.64s.64-.29,.64-.64c0-.35-.29-.64-.64-.64s-.64,.29-.64,.64Z"/></g><g><path class="ak" d="M187.48,40.28s.92-2.32,2.32-2.25c1.4,.07,2.41,1.69,2.41,1.69,0,0-.47,2.01-1.83,2.14-1.36,.13-2.67-.79-2.9-1.58Z"/><path class="as" d="M188.14,40.37c.21,.94,1.15,1.54,2.09,1.32,.94-.21,1.54-1.15,1.32-2.09s-1.15-1.54-2.09-1.32c-.94,.21-1.54,1.15-1.32,2.09Z"/><path class="au" d="M189.03,40.17c.1,.45,.55,.74,1,.64s.74-.55,.64-1c-.1-.45-.55-.74-1-.64s-.74,.55-.64,1Z"/><path class="ae" d="M188.19,39.88c.08,.34,.42,.56,.76,.48s.56-.42,.48-.76c-.08-.34-.42-.56-.76-.48-.34,.08-.56,.42-.48,.76Z"/></g><path class="v" d="M180.59,37.74s-.8-2.35-1.67-1.93c-.87,.42-1.29,1.48-1.06,1.52,.23,.04,2.97,1,2.73,.41Z"/><path class="v" d="M187.04,37.36s.59-2.41,1.49-2.07c.91,.34,1.41,1.36,1.19,1.42-.22,.06-2.87,1.26-2.68,.65Z"/><g><path class="ak" d="M187.51,48.14s-.24,2.01-3.03,2.01c-2.77,0-3.15-1.7-3.15-1.7,0,0,2.18,.84,3.21-.58,0,0,1.12,1.63,2.97,.27Z"/><path class="ah" d="M182.63,48.48c1.55,.27,1.62-1.62,1.62-1.62l.17,.1,.17-.1s.07,1.89,1.62,1.62c1.95-.34,2.59-2.37,2.65-1.45,0,0-.22,1.58-2.65,2.03-1.14,.21-1.61-.4-1.79-1-.19,.61-.65,1.22-1.79,1-2.43-.45-2.65-2.03-2.65-2.03,.06-.91,.7,1.12,2.65,1.45Z"/><path class="ah" d="M184.14,47.58c.2,.08,.41,.07,.6-.04,.68-.37,2.24-1.36,2.11-2.64-.17-1.62-1.21-1.28-2.64-1.26-1.43,.02-2.98-.06-2.75,1.58,.21,1.48,1.69,1.98,2.68,2.36Z"/></g></g></g><g><path class="bc" d="M18.41,66.77c5.3-3.16,9.32-10.17,9.58-21.13l.04-.04h18.64v3.95c-.63,.13,.8,.25,.8,.25-8.96,19.19-22.75,21.22-24.95,23.25-2.88,2.67-6.08,9.81-6.08,11.73s1.36,2.08,1.36,2.08c2.21,.07,2.99,.91,3.18,1.81,.25,1.16-.67,2.26-1.86,2.35-2.39,.19-6.29,.51-7.56-.89-1.11-1.22,1.21-11.93,2.73-17.7,.62-2.33,2.03-4.43,4.11-5.66Z"/><path class="bc" d="M99.66,38.57s-9.86-2.43-10.18,4.83c-.32,7.26,2.88,13.45,3.62,17.82,.75,4.37,1.2,11.62,1.45,13.65,.25,2.03,4.2,15.71,6.86,15.92,2.67,.21,8.74,.88,8.74-1.07,.01-3.2-3.2-3.31-5.33-3.2-2.13,.11-4.6-9.42-5.02-13.26s.33-18.44,1.28-24.09,.87-10.25-1.44-10.6Z"/><path class="b`" d="M39.26,55.46s8.32-3.2,11.62-1.6c3.3,1.6,30.7,14.82,44.99,4.8s9.57-20.81,10.7-29.44c1.13-8.62-7.51-.76-7.83,0-.32,.76-38.91,8.11-47.76,10.78-8.85,2.67-11.62,14.82-11.73,15.46Z"/><path class="bb" d="M38.01,31.04s-8.05,.37-11.48,2.05-9.77,5.78-12.52,12c-3.87,8.74-8.83,11.7-12.9,13.22-4.08,1.52,4.08,4.08,10.39-2.64,6.32-6.72,5.2-15.67,17.91-17.91,0,0,9.88-6.08,8.6-6.72Z"/><path class="o" d="M103.45,2.46s-7.36,10.04-10.39,15.16c-1.85,3.11-6.69,7.17-11.39,10.01-3.04,1.84-11.62,3.45-14.05,3.16-7.49-.89-18.38-3.27-24.29-2.78-7.84,.64-18.39,8-18.87,20.47-.43,11.23-4.88,18.18-10.54,20.97-1.23,.6-2.18,1.64-2.54,2.96-1.39,5.08-4.58,18.48-3.31,19.87,1.27,1.4,5.15,1.08,7.55,.89,1.3-.1,2.25-1.41,1.79-2.64-.29-.79-1.13-1.47-3.1-1.53,0,0-1.36-.16-1.36-2.08s3.94-10.93,5.76-13.3c1.81-2.38,14.61-2.48,23.56-21.67,0,0,4.9-2.13,22.39,1.49,17.48,3.62,24.09,3.52,30.7-1.28,6.61-4.8,9.7-9.06,10.55-18.12s4.05-16.42,5.97-22.39c1.92-5.97-8.42-9.19-8.42-9.19Z"/><path class="p" d="M106.74,28.51c-1.58-.29-3.16-.59-4.7-1.01-.53-.14-4.9-1.69-3.3-.89-2.55-1.28-1.9-.35-3.72-2.61-.45-.55-1.87-3.17-2.4-4.42-.12-.28-.23-.56-.33-.84,.29-.39,.55-.77,.77-1.13,3.04-5.12,10.39-15.16,10.39-15.16,0,0,10.34,3.22,8.42,9.19-1.51,4.7-3.8,10.28-5.13,16.86Z"/><path class="o" d="M97.53,41.24s-9.86-2.43-10.18,4.83,2.88,13.45,3.62,17.82c.75,4.37,1.2,11.62,1.45,13.65,.25,2.03,4.2,15.71,6.86,15.92,2.67,.21,8.74,.88,8.74-1.07,.01-3.25-3.2-3.31-5.33-3.2s-4.6-9.42-5.02-13.26c-.42-3.84,.33-18.44,1.28-24.09,.96-5.65,.87-10.25-1.44-10.6Z"/><path class="o" d="M97.53,41.24s-9.86-2.43-10.18,4.83,2.88,13.45,3.62,17.82c.75,4.37,1.2,11.62,1.45,13.65,.25,2.03,4.2,15.71,6.86,15.92,2.67,.21,8.74,.88,8.74-1.07,.01-3.25-3.2-3.31-5.33-3.2s-4.6-9.42-5.02-13.26c-.42-3.84,.33-18.44,1.28-24.09,.96-5.65,.87-10.25-1.44-10.6Z"/><path class="f" d="M81.63,31.6c.09,.44-.34,.85-.31,1.29-.4,.03-.78-.27-.96-.63s-.21-.78-.22-1.18c.09-.05,.17-.1,.26-.14,.5,.03,1.12,.17,1.23,.66Z"/><path class="f" d="M53.71,37.26c.53,.19,.24,1.26,.68,1.56-.6,.72-1.43,1.14-2.04,1.16-.6,.03-1.02-.25-1.4-.55l.28-.57c.8-.84,1.88-1.82,2.48-1.6Z"/><g><path class="s" d="M101.32,16.82c1-.65,2.04-1.15,3.13-1.59,2.06,.03,4.02,2.05,5.39,3.78-.06,.5-.11,1.02-.11,1.6-.02,1.96-2.01,2.78-3.79,2.39-.31-.07-1.2-.08-1.39-.03-1.34,.36-2.7,.4-3.97-.62-1.26-1.01-1.45-2.28-1.52-3.45,.41-.86,1.6-1.65,2.25-2.07Z"/><path class="o" d="M102.59,0s7.42,.17,8.36,2.24c.95,2.07,2.59,7.67,1.12,10.69-1.47,3.02-2.31,4.66-2.33,7.67-.03,3.02-4.22,1.38-4.82,.43,0,0-2.08,2.78-4.32,1.3-2.24-1.48-1.02-4.32-1.97-5.27s-5.7-4.44-3.81-11.73c1.14-4.38,6.31-5,7.77-5.35Z"/><path class="f" d="M102.77,4.93c-.03,.07-.05,.15-.11,.19-.05,.04-.11,.05-.16,.06-.4,.05-.83-.18-1-.55s-.08-.85,.21-1.13c.28-.26,.75-.43,.76-.81,.26,.07,.52,.14,.79,.21,.18,.05,.36,.1,.5,.22,.14,.12,.21,.34,.11,.5-.5,.3-.89,.77-1.09,1.31Z"/><path class="f" d="M96.35,7.22c.11,.2,.23,.4,.42,.52,.19,.12,.46,.14,.62,0,.17-.15,.18-.41,.22-.64,.05-.23,.23-.48,.45-.42-.18-.37-.46-.69-.8-.92-.19-.13-.43-.23-.65-.18-.32,.06-.53,.4-.54,.73-.01,.33,.13,.64,.28,.93Z"/><path class="f" d="M108.52,5.1c.09-.09,.18-.18,.29-.23,.3-.13,.67,.1,.8,.4,.13,.3,.1,.65,.05,.98-.04,.33-.1,.67,0,.98-.46,.12-.93-.12-1.3-.42-.15-.12-.3-.26-.37-.44-.18-.45,.18-.92,.51-1.27Z"/><path class="f" d="M107.62,.72c0,.15-.03,.32-.11,.45-.07,.11-.19,.19-.31,.24-.65,.28-1.5-.31-1.47-1.02,0-.05,.02-.09,.03-.13,.61,.08,1.24,.18,1.86,.31,0,.05,.01,.1,0,.15Z"/><path class="f" d="M107.56,20.41c-.21,.16-.55,.24-.73,.05-.13-.14-.16-.38-.35-.44l.21-.37c.44-.09,.89-.11,1.34-.06-.04,.32-.21,.63-.47,.83Z"/><path class="f" d="M102.08,13.74c-.33-.42-.52-.96-.54-1.5,0-.12,0-.25,.1-.34,.18-.17,.46,.03,.7,.1,.2,.06,.42,.02,.63,.02,.21,0,.45,.09,.52,.28,.09,.24-.1,.49-.27,.67-.23,.24-.46,.48-.68,.72-.09,.09-.21,.2-.33,.15-.05-.02-.09-.06-.12-.11Z"/><path class="aa" d="M98.74,11.39c2.43,.54,2.45,3.24,3.63,5,.85,1.26,3.35,1.71,4.16-.16,.51-1.17,.75-2.27,.96-3.53,.55-3.3,3.4-1.89,4.5,.4-1.42,2.92-2.23,4.56-2.26,7.52-.03,3.02-4.22,1.38-4.82,.43,0,0-2.08,2.78-4.32,1.3-2.24-1.48-1.02-4.32-1.97-5.27-.47-.47-1.86-1.55-2.92-3.4,.43-1.12,1.48-2.63,3.04-2.28Z"/><path class="q" d="M112.2,11.12c-.09-1.09-.42-2.15-.86-3.14-1.04-2.38-2.54-4.68-2.93-7.22,1.21,.33,2.22,.8,2.53,1.48,.94,2.05,2.55,7.57,1.15,10.61,.07-.59,.14-1.17,.1-1.73Z"/><path class="q" d="M98,6.59c-.97,1.53-2.01,3.25-2.56,4.99-.11,.33-.19,.69-.25,1.05-.78-1.82-1.17-4.21-.37-7.28,.73-2.81,3.12-4.07,5.13-4.7-.31,2.07-.76,4.07-1.94,5.95Z"/><path class="f" d="M97.94,14.31c.02-.06,.06-.1,.1-.14,.41-.41,.94-.73,1.51-.81,.58-.07,1.21,.13,1.55,.6,.05,.07,.09,.14,.09,.22,0,.13-.13,.22-.24,.3-.27,.18-.55,.35-.82,.53-.26,.16-.52,.33-.82,.39-.6,.11-1.24-.31-1.38-.9-.01-.06-.02-.13,0-.19Z"/><path class="f" d="M110.73,13.11c.38-.15,.77,.06,1.1,.33-.35,.72-.66,1.37-.93,1.98-.07-.08-.14-.16-.19-.25-.21-.34-.42-.68-.47-1.08-.05-.39,.12-.84,.49-.99Z"/><path class="t" d="M100.59,21.69c2.24,1.48,4.32-1.3,4.32-1.3,.57,.9,4.32,2.42,4.78-.03,.02,0,.04,0,.05,.01,0,.08,0,.15,0,.24-.03,3.02-4.22,1.38-4.82,.43,0,0-2.08,2.78-4.32,1.3-.86-.57-1.13-1.33-1.22-2.12,.05,.04,.64,1.08,1.22,1.46Z"/><g><path class="be" d="M101.56,9.69s-.45-2.04-2.35-2.03c-1.27,0-2.21,1.49-2.21,1.49,0,0,1,2.04,2.38,2.04s2.18-1.5,2.18-1.5Z"/><path class="ay" d="M97.83,9.41c0,.85,.69,1.55,1.55,1.55s1.55-.69,1.55-1.55-.69-1.55-1.55-1.55-1.55,.69-1.55,1.55Z"/><path class="ao" d="M98.46,9.41c0,.51,.41,.92,.92,.92s.92-.41,.92-.92-.41-.92-.92-.92-.92,.41-.92,.92Z"/><path class="av" d="M98.1,8.77c0,.35,.29,.64,.64,.64s.64-.29,.64-.64c0-.35-.29-.64-.64-.64s-.64,.29-.64,.64Z"/></g><g><path class="be" d="M105.55,9.46s.45-2.04,2.35-2.03c1.27,0,2.21,1.49,2.21,1.49,0,0-1,2.04-2.38,2.04s-2.18-1.5-2.18-1.5Z"/><circle class="ay" cx="107.67" cy="9.19" r="1.55"/><circle class="ao" cx="107.67" cy="9.19" r=".92"/><circle class="av" cx="107.03" cy="8.55" r=".64"/></g><path class="t" d="M105,20.85s.87-.31,1.39-.75c.84-.73,2.72-3.31,.94-4.71-2.08-1.65-6.31-.56-6.12,1.61,.2,2.33,2.95,3.94,3.79,3.86Z"/><path class="f" d="M109.74,1.23s-.26-1.1,2.5,0c2.76,1.1,4.77,2.08,6.9,2.71,2.13,.63,2.41,4.29,1.44,6.66-.98,2.37-3.1,5.6-3.56,7.12s-.75,1.17-1.95-.27c-1.21-1.44-2.57-4.4-2.4-7.34,.16-2.95-1.5-7.62-2.91-8.87Z"/><path class="f" d="M97.82,1.84s.26-1.1-2.5,0c-2.76,1.1-4.77,2.08-6.9,2.71-2.13,.63-2.41,4.29-1.44,6.66s3.1,5.6,3.56,7.12,.75,1.17,1.95-.27c1.21-1.44,2.57-4.4,2.4-7.34-.16-2.95,1.5-7.62,2.91-8.87Z"/><path class="o" d="M92.79,5.01c.18,.07,.22,.26,.22,.41,0,.26-.03,.52-.08,.78,0,.04-.02,.08-.05,.11-.03,.04-.08,.06-.14,.07-.51,.15-1.15-.17-1.18-.6-.03-.42,.48-.78,1.01-.8,.07,0,.15,0,.22,.02Z"/><path class="o" d="M93.8,12.34c-.07,.05-.16,.05-.25,.03-.69-.13-1.06-.88-1.33-1.53-.07-.17-.11-.4,.04-.49,.06-.04,.14-.03,.21-.02,.83,.1,1.5,.94,1.42,1.78,0,.09-.03,.18-.1,.24Z"/><path class="o" d="M87.36,9.33c.25,.02,.51,.07,.68,.26,.23,.26,.17,.66,.1,1.01-.07,.34-.15,.68-.22,1.03-.03,.16-.07,.32-.17,.46h-.01c-.12,.02-.23,.04-.34,.04-.15-.31-.29-.62-.41-.91-.23-.56-.38-1.19-.46-1.83,.28-.04,.56-.06,.83-.04Z"/><path class="o" d="M90.7,14.58c.3-.01,.61,.04,.85,.22,.24,.18,.37,.52,.25,.79-.08,.19-.26,.31-.43,.42-.38,.26-.75,.51-1.13,.77-.08,.06-.18,.11-.28,.16-.25-.5-.55-1.06-.87-1.64,.42-.43,1.01-.71,1.61-.73Z"/><path class="o" d="M116.24,3.19c-.21,.51-.7,.87-1.23,1.03-.28,.09-.6,.12-.87-.01-.42-.21-.55-.77-.4-1.21,.13-.35,.4-.63,.71-.85,.64,.27,1.26,.53,1.85,.77-.01,.1-.02,.19-.06,.28Z"/><path class="o" d="M121.05,6.81c.05,.36,.06,.74,.06,1.12-.09-.03-.18-.06-.26-.12-.35-.22-.53-.68-.47-1.07,.04,0,.09,0,.13,.01,.18,.02,.36,.04,.54,.06Z"/><path class="o" d="M116.26,10.17c.02,.15-.08,.29-.15,.43-.13,.27-.12,.59,.02,.86-.3,.12-.66,.06-.89-.17-.23-.22-.31-.59-.19-.89,.12-.31,.45-.53,.78-.53,.19,0,.42,.11,.44,.3Z"/><path class="o" d="M118.72,14.27c-.43,.78-.84,1.53-1.16,2.18-.26-.02-.52-.1-.69-.29-.36-.41-.2-1.1,.22-1.45,.42-.35,1-.43,1.54-.45,.03,0,.06,0,.09,0Z"/><path class="g" d="M111.81,5.08c.96,1.24,1.72,3.1,2.62,3.92,1.85,1.67,4.49,1.66,6.51,.37-.09,.43-.2,.85-.36,1.22-.98,2.37-3.1,5.6-3.56,7.12s-.75,1.17-1.95-.27c-1.21-1.44-2.57-4.4-2.4-7.34,.08-1.46-.29-3.34-.85-5.02Z"/><path class="g" d="M92.22,11.44c1.42-.34,2.2-1.44,2.81-2.73-.1,.71-.15,1.39-.12,2,.16,2.95-1.2,5.91-2.4,7.34-1.21,1.44-1.49,1.78-1.95,.27-.46-1.52-2.59-4.75-3.56-7.12-.29-.69-.45-1.5-.5-2.3,1.26,1.86,3.48,3.09,5.74,2.54Z"/></g><path class="f" d="M98.88,24.05c-.08,.08-.19,.1-.3,.12-.81,.12-1.7-.03-2.29-.59-.6-.56-.78-1.58-.25-2.21,.23-.27,.55-.44,.79-.7,.24-.26,.37-.69,.13-.96,.44-.16,.9-.32,1.36-.29,.47,.03,.95,.31,1.08,.76,.15,.54-.23,1.06-.38,1.59-.17,.62-.02,1.27-.03,1.91,0,.13-.02,.27-.11,.37Z"/><path class="f" d="M104.02,23.65c.27-.14,.58-.26,.89-.21,.35,.06,.62,.32,.88,.57,.54,.53,1.07,1.07,1.61,1.6-.28,1.1-.53,2.24-.75,3.4-.08,.16-.15,.32-.26,.46-.67,.87-1.96,1.19-2.98,.77-.93-.38-1.59-1.31-1.75-2.3s.14-2.03,.72-2.85c.42-.6,.99-1.1,1.64-1.44Z"/><path class="f" d="M98.77,33.67c.51-.7,1.36-1.21,2.21-1.07,.9,.15,1.59,1.1,1.45,2.01-.08,.53-.41,1-.79,1.37-.73,.71-1.94,1.14-2.75,.53-.84-.63-.73-1.99-.11-2.84Z"/><path class="f" d="M92.03,43.54c-.2,1.23-1.09,2.22-1.98,3.11-1.42,1.41-3.13,2.82-5.13,2.82-.28,0-.57-.04-.79-.2-.78-.59,.06-2.04-.61-2.76-.78-.68-1.76-1.12-2.78-1.24-.14-.02-.29-.03-.39-.13-.1-.1-.13-.25-.14-.39-.15-1.74,1.28-3.22,2.76-4.15,1.7-1.07,3.75-1.8,5.71-1.37,1.96,.43,3.67,2.34,3.35,4.32Z"/><path class="f" d="M71.35,50.9c-.38-.59,0-1.43,.59-1.79,.6-.36,1.34-.38,2.04-.39,.45,0,.91,0,1.32,.18,.4,.19,.72,.64,.62,1.07-.1,.42-.54,.66-.94,.83-.51,.21-1.03,.38-1.56,.51-.73,.18-1.66,.22-2.07-.41Z"/><path class="f" d="M71.48,42.7c-.75,.26-1.54,.53-2.32,.39-.78-.13-1.53-.81-1.45-1.6,.03-.27,.15-.52,.28-.75,.31-.52,.73-.97,1.23-1.32,.21-.76,1.3-1.09,1.89-.58,.1,.08,.18,.18,.26,.28,.4,.48,.8,.96,1.2,1.44,.14,.17,.29,.35,.35,.57,.1,.38-.1,.79-.39,1.04-.3,.26-.68,.39-1.05,.52Z"/><path class="f" d="M67.33,45.66c-.19,.21-.47,.31-.75,.33-.64,.05-1.29-.3-1.6-.85-.12-.21-.2-.46-.38-.62-.28-.27-.72-.25-1.11-.29-.39-.04-.84-.24-.87-.63-.02-.24,.15-.46,.33-.62,.73-.67,1.84-.9,2.78-.58,.94,.33,1.67,1.19,1.82,2.17,.06,.38,.03,.8-.23,1.09Z"/><path class="f" d="M57.75,34.57c-.47-.09-.95,.03-1.43,.05s-1.02-.11-1.26-.52c-.35-.6,.14-1.35,.7-1.75,1.12-.8,2.62-1,3.95-.63,1.33,.37,2.48,1.28,3.24,2.43,.23,.35,.43,.81,.23,1.18-.11,.19-.31,.32-.51,.41-.94,.45-2.09,.41-3-.09-.65-.36-1.2-.95-1.93-1.08Z"/><path class="f" d="M47.67,46.06c-.47,1.04,.04,2.38,1.02,2.97s2.3,.48,3.26-.15c.22-.14,.42-.31,.65-.43,.77-.43,1.7-.36,2.57-.27,1.15,.11,2.3,.22,3.44,.32,.5,.05,1.18-.04,1.23-.54,.03-.28-.18-.53-.39-.72-.73-.66-1.59-1.16-2.46-1.62-1.36-.72-2.77-1.39-4.3-1.6-1.52-.21-3.18,.1-4.32,1.12-.29,.26-.54,.56-.7,.91Z"/><path class="f" d="M40.65,35.22c-.46-.11-.94-.23-1.4-.1-.82,.22-1.25,1.11-1.52,1.92-.18,.54-.34,1.1-.28,1.66,.13,1.34,1.71,2.33,2.98,1.87,.29-.82,1.18-1.25,2.01-1.48,.83-.24,1.74-.38,2.4-.94,.24-.21,.45-.48,.48-.8,.06-.77-.86-1.19-1.61-1.38l-3.04-.75Z"/><path class="f" d="M32.14,42.38c.08,.18,.09,.38,.11,.57,.08,1.04,.17,2.09,.25,3.13-.63,.05-1.27-.03-1.87-.23-.51-.17-1.01-.45-1.33-.88-.32-.44-.43-1.05-.16-1.52,.27-.47,.95-.69,1.39-.37-.18-.42,.04-.97,.46-1.15,.42-.18,.97,.04,1.15,.46Z"/><path class="f" d="M31.04,51.3c.23,.21,.35,.52,.44,.83,.26,.85,.41,1.74,.44,2.63,.03,.69-.03,1.43-.43,1.99-.4,.56-1.25,.85-1.81,.45,.04-.9-.26-1.81-.83-2.5-.33-.4-.76-.75-.92-1.25-.29-.93,.53-1.86,1.42-2.24,.55-.23,1.25-.31,1.68,.1Z"/><path class="f" d="M19.56,66.71c.09-.25,.09-.53,0-.78,.73-.58,1.66-.9,2.59-.88,.47,0,.95,.11,1.32,.39,.37,.28,.6,.78,.48,1.23-.15,.54-.74,.83-1.29,.97-1.13,.3-2.59,.12-3.1-.94Z"/><path class="f" d="M13.34,74.62c.55,.23,.35,1.05,.06,1.57-.25,.44-.49,.88-.74,1.32-.92-.27-1.48-1.41-1.12-2.3,.1-.05,.22-.11,.24-.22s-.18-.2-.21-.09c.54,.3,1.2-.52,1.77-.29Z"/><path class="f" d="M92.25,63.43c.67,.07,1.25,.59,1.52,1.21,.28,.62,.29,1.33,.18,2l.02,.18c.07,.64,.12,1.33-.22,1.87-.2,.33-.55,.57-.92,.65-.37,.15-.78,.15-1.16,.04-.2-1.95-.43-3.9-.7-5.48-.01-.07-.03-.13-.04-.2,.43-.16,.87-.31,1.32-.26Z"/><path class="f" d="M96.65,79.08c-.52-1.17-1.29-2.41-1.55-3.67,.14-.34,.51-.57,.89-.59,.42-.03,.82,.13,1.19,.32,.16,.08,.31,.19,.46,.29,.01,.18,.02,.37,.04,.52,.12,1.12,.42,2.63,.84,4.21-.77,.03-1.48-.22-1.86-1.06Z"/><path class="f" d="M94.73,51.17c.24-.03,.49,.05,.72,0,.54-.1,.76-.72,.96-1.23,.21-.54,.49-1.06,.94-1.43,.45-.37,1.08-.55,1.62-.35,.19,.33,.3,.7,.36,1.08-.09,.83-.22,1.7-.37,2.59-.24,1.41-.47,3.39-.67,5.62-.04,.03-.08,.06-.13,.09-.24,.16-.49,.32-.78,.35-.55,.05-1-.42-1.35-.84-1.04-1.24-2.12-2.59-2.27-4.2-.06-.71,.24-1.61,.95-1.69Z"/><path class="f" d="M91.41,29.04c.24,.97,.35,2.16-.4,2.82-.97,.85-2.79,.26-3.53,1.31-.32,.46-.3,1.09-.54,1.6-.34,.69-1.15,1.06-1.92,1.07-.71-1.73,.18-3.87-.7-5.53-.12-.22-.27-.44-.28-.69,0-.36,.29-.65,.62-.8,.32-.15,.69-.2,1.02-.33,1.28-.51,2.03-2.19,3.41-2.19,.65,0,1.24,.41,1.61,.94,.37,.53,.56,1.16,.71,1.79Z"/><path class="f" d="M80.89,35.96c.04,.33-.1,.65-.27,.94-.47,.81-1.26,1.52-2.19,1.54-.93,.03-1.86-.92-1.56-1.8,.36-.32,.36-.91,.71-1.25,.23-.22,.56-.28,.87-.34,.48-.08,.98-.17,1.45-.05,.47,.11,.92,.47,.98,.96Z"/><path class="f" d="M98.1,42.77c-.1,.11-.25,.17-.39,.2-.41,.09-.89,.05-1.18-.25-.29-.3-.27-.9,.12-1.07,.22,.02,.41-.16,.63-.15,.14,0,.27,.1,.38,.19,.17,.13,.35,.27,.46,.46,.11,.19,.13,.45-.01,.62Z"/><path class="f" d="M46.96,32.16c.02,.18-.06,.36-.15,.52-.26,.45-.7,.84-1.22,.86-.52,.01-1.04-.51-.87-1,.2-.18,.2-.51,.4-.69,.13-.12,.31-.16,.49-.19,.27-.05,.54-.09,.81-.03,.26,.06,.51,.26,.55,.53Z"/><path class="f" d="M37.81,48.32c-.08,.17-.24,.28-.4,.37-.46,.25-1.04,.35-1.48,.1-.45-.26-.62-.98-.22-1.31,.26-.05,.44-.33,.7-.39,.17-.04,.35,.03,.51,.09,.25,.1,.51,.2,.7,.39s.3,.49,.19,.74Z"/></g></g></g></g></svg>