<?xml version="1.0" encoding="UTF-8"?><svg xmlns="http://www.w3.org/2000/svg" viewBox="0 0 359.19 114.44"><defs><style>.d{fill:#d0b691;}.e{fill:#7a7877;}.e,.f,.g,.h,.i,.j,.k,.l,.m{mix-blend-mode:multiply;}.e,.g,.i,.k,.l{opacity:.55;}.n{fill:#5c504d;}.o,.h,.j,.m,.p{opacity:.32;}.o,.q,.j{fill:#b06040;}.o,.r,.p{mix-blend-mode:screen;}.s{fill:#111627;}.f{fill:#e5dcd1;opacity:.45;}.t{fill:#a15225;}.u{fill:#d9866d;}.g,.v{fill:#e4dace;}.w{fill:#f7efe5;}.x,.p{fill:#3a3635;}.y{fill:#494859;}.a`{fill:#080d0f;}.aa{fill:#edd5c5;}.ab{isolation:isolate;}.ac{fill:#a54e31;}.ad{fill:#f1dbc7;}.ae{fill:#bb8d51;}.af{fill:#14192c;}.ag,.k{fill:#895834;}.ah{fill:#4e5a68;}.h{fill:#d8ccbf;}.i{fill:#6c6979;}.ai{fill:#201f34;}.aj{fill:#554e46;}.ak{fill:#494d5a;}.al{fill:#111b1d;}.am{fill:#bfb6a9;}.an{fill:#cfc3b0;}.r{opacity:.15;}.r,.m,.ao{fill:#3e3d4f;}.ap{fill:#fbfbfb;}.aq{fill:#c59570;}.ar{fill:#ebebeb;}.as{fill:#e2bca2;}.at{fill:#221d1c;}.au{fill:#672e28;}.av{fill:#e8e8e8;}.aw{fill:#717870;}.ax{fill:#956129;}.ay{fill:#924a1c;}.b`{fill:#201b1a;}.ba{fill:#cc9872;}.l{fill:#bc8168;}.bb{fill:#1a0a14;}.bc{fill:#262221;}.bd{fill:#0c1300;}.be{fill:#040701;}.bf{fill:#d7c9bd;}.bg{fill:#28273b;}.bh{fill:#dbac8b;}.bi{fill:#3d3834;}.bj{fill:#070c02;}</style></defs><g class="ab"><g id="a"/><g id="b"><g id="c"><g><path class="ai" d="M121.99,49.82s3.23,6.36,1.38,18.25c-1.75,11.29-1.75,13.53-1.44,21.09,.03,.83-.08,1.67-.35,2.46-.93,2.74-2.71,8.85-4.06,11.53-.4,.78-1.22,1.26-2.1,1.26h-3.11c-1.07,0-2.13-.42-2.82-1.25-.64-.77-.97-1.82,.23-2.97,.51-.48,1.23-.77,2.78-.95,0,0,2.46,.31,3.18-2.67,.72-2.97,1.25-18.5-1.13-25.23-.97-2.74-3.74-8.18-4.39-10.12-2.59-7.7-.65-6.83,2.14-11.42,3.49-5.74,9.15-1.37,9.69,0Z"/><path class="ag" d="M121.78,83.15c-.1,.09-.21,.16-.32,.24-.64,.7-1.51,1.38-2.27,1.76-.2,.1-.41,.17-.61,.25-.23,.12-.46,.23-.67,.32-.52,.23-1.07,.4-1.63,.56,.03,4.72-.27,8.89-.6,10.29-.72,2.97-3.18,2.67-3.18,2.67-1.55,.18-2.27,.46-2.78,.95-1.21,1.15-.87,2.2-.23,2.97,.69,.83,1.74,1.25,2.82,1.25h3.11c.88,0,1.7-.48,2.1-1.26,1.36-2.69,3.13-8.79,4.06-11.53,.27-.79,.39-1.62,.35-2.46-.1-2.38-.16-4.24-.15-6.01Z"/><path class="k" d="M118.23,85.57c-.63,.3-1.28,.51-1.94,.67,.03,4.74-.26,8.94-.6,10.34-.72,2.97-3.18,2.67-3.18,2.67-1.55,.18-2.27,.46-2.78,.95-1.21,1.15-.87,2.2-.23,2.97,.69,.83,1.74,1.25,2.82,1.25h3.11c.88,0,1.7-.48,2.1-1.26,1.36-2.69,3.13-8.79,4.06-11.53,.27-.79,.39-1.62,.35-2.46-.1-2.41-.16-4.27-.15-6.06-1.09,.95-2.21,1.83-3.56,2.47Z"/><path class="ai" d="M195.87,86.94c0-2.46-2.72-3.54-2.72-3.54l-1.38-1.18s-9.16-5.95-11.04-14.97c-.39-1.85-.77-3.62-1.2-5.28h-18.74l-.95,4.1c.86,.63,5.97,1.48,6.72,2.62,8.61,13.13,17.23,17.43,20.85,18.05,3.62,.62,4.3,7.74,4.37,10.74,.08,3-1.77,3.31-1.77,3.31-2.35,.27-2.75,1.17-2.57,2.01,.21,.97,1.17,1.61,2.16,1.62,4.72,.02,5.7-.38,6.27-2.09,.62-1.85,0-12.92,0-15.38Z"/><path class="ag" d="M195.76,86.12h-10.49c.82,.31,1.54,.52,2.12,.62,3.62,.62,4.3,7.74,4.37,10.74,.08,3-1.77,3.31-1.77,3.31-2.35,.27-2.75,1.17-2.57,2.01,.21,.97,1.17,1.61,2.16,1.62,4.72,.02,5.7-.38,6.27-2.09,.62-1.85,0-12.92,0-15.38,0-.29-.04-.57-.11-.82Z"/><path class="k" d="M195.74,86.05h-10.67c.91,.36,1.7,.59,2.33,.69,3.62,.62,4.3,7.74,4.37,10.74,.08,3-1.77,3.31-1.77,3.31-2.35,.27-2.75,1.17-2.57,2.01,.21,.97,1.17,1.61,2.16,1.62,4.72,.02,5.7-.38,6.27-2.09,.62-1.85,0-12.92,0-15.38,0-.32-.05-.62-.13-.9Z"/><path class="bg" d="M176.18,53.11s6.36-6.97,7.59-5.54c1.23,1.44-2.67,8.2-3.79,10.46-1.13,2.26-3.79-4.92-3.79-4.92Z"/><path class="ao" d="M195.05,83.87s-9.16-5.95-11.04-14.97c-1.88-9.02-3.52-16-12.95-18.87-8.57-2.61-29.32-1.6-42.27-7.69-2.37-1.12-8.46-13.93-9.2-18.77h-11.28c1.23,2.46,3.08,11.48,1.03,18.66-1.62,5.67-5.92,14.27,4.04,22.08,2.66,2.09,2.85,5.34,7.86,7.25,23.79,9.02,39.99-14.36,48.6-1.23,8.61,13.13,17.23,17.43,20.85,18.05s4.3,7.74,4.37,10.74c.08,3-1.77,3.31-1.77,3.31-2.35,.27-2.75,1.17-2.57,2.01,.21,.97,1.17,1.61,2.16,1.62,4.72,.02,5.7-.38,6.27-2.09,.62-1.85,0-12.92,0-15.38s-2.72-3.54-2.72-3.54l-1.38-1.18Z"/><path class="m" d="M110,38.84c.73-.27,1.49-.46,2.3-.53,3.94-.32,8.3,.42,10.26-3.91,.17-.38,.33-.76,.5-1.14-1.69-3.65-3.14-7.49-3.47-9.69h-11.28c1.04,2.08,2.52,8.88,1.7,15.27Z"/><path class="r" d="M158.56,53.82c3.8-.53,7-3.02,10.59-4.27-9.43-2.02-28.23-1.53-40.3-7.18,1.92,8.22,12.99,13.76,29.72,11.45Z"/><path class="i" d="M199.15,88.59c0-2.46-2.72-3.54-2.72-3.54l-1.38-1.18s-3.05-1.99-6-5.41c-1.57,.33-3.18,.28-4.73-.34-4.42-1.77-7.7-5.5-10.86-8.95-5.3-5.8-10.38-7.62-18.16-5.97-9.21,1.95-18.39,5.47-27.55,.94-4.93-2.44-8.9-5.9-12.27-10.24-.43-.56-.83-1.13-1.21-1.7-1.3,.4-5.37,.73-7.18-1.32-.46,4.28,.58,8.99,6.26,13.45,2.66,2.09,2.85,5.34,7.86,7.25,23.79,9.02,39.99-14.36,48.6-1.23,8.61,13.13,17.23,17.43,20.85,18.05,3.62,.62,4.3,7.74,4.37,10.74,.08,3-1.77,3.31-1.77,3.31-2.35,.27-2.75,1.17-2.57,2.01,.21,.97,1.17,1.61,2.16,1.62,4.72,.02,5.7-.38,6.27-2.09,.62-1.85,0-12.92,0-15.38Z"/><path class="ag" d="M197.15,98.69c-.13-3.48-.61-11.02-5.2-11.79-1.76-.29-3.51,.02-5.26,.04,1.63,.82,2.99,1.27,3.98,1.44,3.62,.62,4.3,7.74,4.37,10.74,.08,3-1.77,3.31-1.77,3.31-2.35,.27-2.75,1.17-2.57,2.01,.21,.97,1.17,1.61,2.16,1.62,4.72,.02,5.7-.38,6.27-2.09,.03-.1,.06-.23,.09-.38-1.23-1.34-2.03-3.18-2.09-4.9Z"/><path class="ao" d="M123.53,51.67s3.23,6.36,1.38,18.25c-1.75,11.29-1.75,13.53-1.44,21.09,.03,.83-.08,1.67-.35,2.46-.93,2.74-2.71,8.85-4.06,11.53-.4,.78-1.22,1.26-2.1,1.26h-3.11c-1.07,0-2.13-.42-2.82-1.25-.64-.77-.97-1.82,.23-2.97,.51-.48,1.23-.77,2.78-.95,0,0,2.46,.31,3.18-2.67s1.13-18.46-1.13-25.23c-2.26-6.77-5.74-15.79-2.26-21.53,3.49-5.74,9.15-1.37,9.69,0Z"/><path class="ag" d="M122.95,85.58c-.23,.16-.45,.32-.65,.46-1.3,.94-2.9,1.59-4.52,1.74,.06,4.87-.21,9.22-.56,10.65-.72,2.97-3.18,2.67-3.18,2.67-1.55,.18-2.27,.46-2.78,.95-1.21,1.15-.87,2.2-.23,2.97,.69,.83,1.75,1.25,2.82,1.25h3.11c.88,0,1.7-.48,2.1-1.26,1.36-2.69,3.13-8.79,4.06-11.53,.27-.79,.39-1.62,.35-2.46-.09-2.16-.15-3.87-.16-5.5-.12,.03-.25,.04-.37,.06Z"/><g><g><path class="ao" d="M117,13.49s2.47-4.91,3.01-7.81c.54-2.9,1.28-8.15,2.02-4.35,.1,.5-.26,2.82,.46,4.83,.72,2.01,2.17,8.54,1.93,9.42-.24,.89-1.45,2.17-2.82,3.95-1.37,1.77-4.61-6.04-4.61-6.04Z"/><path class="t" d="M119.84,17.79c.52-.66,1.11-1.26,1.64-1.91,1.03-1.27,.77-2.58,.56-4.07-.13-.96-.46-3.5-1.55-1.35-.42,.81-.74,1.66-1.13,2.49-.43,.91-.93,1.67-1.54,2.35,.46,.96,1.06,2.11,1.67,3.01,.11-.17,.21-.35,.35-.52Z"/></g><g><path class="ao" d="M112.59,13.49s-2.47-4.91-3.01-7.81c-.54-2.9-1.28-8.15-2.02-4.35-.1,.5,.26,2.82-.46,4.83-.72,2.01-2.17,8.54-1.93,9.42,.24,.89,1.45,2.17,2.82,3.95s4.61-6.04,4.61-6.04Z"/><path class="t" d="M109.74,17.79c-.52-.66-1.11-1.26-1.64-1.91-1.03-1.27-.77-2.58-.56-4.07,.13-.96,.46-3.5,1.55-1.35,.42,.81,.75,1.66,1.14,2.49,.43,.91,.93,1.67,1.54,2.35-.46,.96-1.06,2.11-1.67,3.01-.11-.17-.21-.35-.35-.52Z"/></g><path class="ao" d="M120.7,15.27c-.56-1.12-2.79-1.98-4.36-2.47-1.05-.33-2.16-.33-3.21,0-1.57,.49-3.79,1.36-4.36,2.47-.87,1.74-1.71,4.07-1.69,6.34,.02,2.22,1.2,6.59,2.52,8.25,0,0,.36,1.23,.54,2.91,.15,1.49,1.16,3.38,3.71,2.64,.58-.17,1.2-.17,1.78,0,2.55,.74,3.55-1.15,3.71-2.64,.17-1.68,.54-2.91,.54-2.91,1.32-1.66,2.5-6.03,2.52-8.25,.02-2.27-.82-4.6-1.69-6.34Z"/><path class="ag" d="M121.67,22.47c-.41-.56-1.13,2.93-2.21,2.7-2.18-.47-2.71,2.5-4.78,2.5-1.4,0-2.55-3.08-4.65-2.73-.84,.14-2.17-3.56-2.27-2.63-.07,.68-.06,2.23,1.01,6.15,.26,.55,.53,1.05,.81,1.41,0,0,.36,1.23,.54,2.91,.15,1.49,1.15,2.27,3.7,1.54,.58-.17,1.21-.17,1.79,0,2.55,.73,3.55-.05,3.7-1.54,.17-1.68,.54-2.91,.54-2.91,.38-.48,.74-1.19,1.07-2,.76-2.68,.96-5.07,.73-5.39Z"/><g><path class="bb" d="M117.09,20.3s.8-1.29,1.71-1.16c.91,.14,1.46,.88,1.46,.88,0,0-.58,1.68-1.58,1.68s-1.58-1.4-1.58-1.4Z"/><path class="au" d="M119.79,20.41c0,.62-.5,1.12-1.12,1.12s-1.12-.5-1.12-1.12,.5-1.12,1.12-1.12,1.12,.5,1.12,1.12Z"/><circle class="al" cx="118.67" cy="20.41" r=".66"/><path class="ar" d="M119.6,19.95c0,.26-.21,.46-.46,.46s-.46-.21-.46-.46,.21-.46,.46-.46,.46,.21,.46,.46Z"/></g><g><path class="bb" d="M112.3,20.3s-.8-1.29-1.71-1.16c-.91,.14-1.46,.88-1.46,.88,0,0,.58,1.68,1.58,1.68s1.58-1.4,1.58-1.4Z"/><circle class="au" cx="110.72" cy="20.41" r="1.12"/><circle class="al" cx="110.72" cy="20.41" r=".66"/><path class="ar" d="M111.65,19.95c0,.26-.21,.46-.46,.46s-.46-.21-.46-.46,.21-.46,.46-.46,.46,.21,.46,.46Z"/></g><path class="ag" d="M113.18,18.76c-.09,.29-.43,.44-.77,.33-.33-.1-.53-.42-.44-.71s.43-.44,.77-.33c.33,.1,.53,.42,.44,.71Z"/><path class="ag" d="M116.3,18.76c.09,.29,.43,.44,.77,.33s.53-.42,.44-.71-.43-.44-.77-.33c-.33,.1-.53,.42-.44,.71Z"/><path class="af" d="M115.07,29.9l-.09-.04c.08-.19,.13-.32,.13-.32l-.41,.19-.41-.19s.05,.13,.13,.32l-.09,.04c-.64,1.2-1.36,2.32-2.02,2.66-1.22,.62-2.25-.31-2.25-.31,2.16,2.44,3.89,1.17,4.65-.37,.76,1.54,2.49,2.8,4.65,.37,0,0-1.08,.95-2.35,.26-.63-.35-1.31-1.47-1.93-2.61Z"/><path class="y" d="M116.15,22.04c-.53-.72-1.46-.14-1.46-.14,0,0-.92-.57-1.46,.14-.54,.73-2.18,3.59-1.86,4.88-.04,1.84,2.2,4.66,3.31,4.66h0c1.12,0,3.31-2.7,3.31-4.65,0-1.57-1.31-4.15-1.85-4.88Z"/><path class="af" d="M116.48,26.56c-.9-.11-2.68-.01-3.59,.01-.84,.02-1.31,.88-1.31,1.1,0,1.55,1.97,3.91,3.11,3.91h0c1.14,0,3.11-2.36,3.11-3.91,0-.15-.71-1.03-1.32-1.11Z"/><path class="bj" d="M117.11,28.44c0,.43-.56,1.08-1.05,1.08s-.89-.35-.89-.77,.4-.77,.89-.77,1.05,.04,1.05,.46Z"/><path class="bj" d="M112.27,28.44c0,.43,.56,1.08,1.05,1.08s.89-.35,.89-.77-.4-.77-.89-.77-1.05,.04-1.05,.46Z"/></g></g><g><path class="x" d="M11.1,20.93s-.75-1.7-1.67-1.03c-.92,.66-5.47,1.25-8.07,1.55-2.6,.29-.81,3.97,0,5.93,.81,1.96,.88,4.25,.74,5.06s2.06,1.08,7.33-6.76c0,0,1-4.42,1.67-4.74Z"/><path class="e" d="M9.02,24.76c-1.62,1.65-3.25,2.59-5.61,2.39-.87-.07-1.76-.48-2.59-1.09,.19,.48,.39,.93,.55,1.32,.81,1.96,.88,4.25,.74,5.06-.15,.81,2.06,1.08,7.33-6.76,0,0,.18-.8,.44-1.74-.29,.28-.59,.55-.86,.83Z"/><path class="x" d="M24.33,22.04s.87-1.33,1.78-.67c.92,.66,5.47,1.25,8.07,1.55,2.6,.3,.81,3.97,0,5.93-.81,1.96-.88,4.25-.74,5.06s-2.06,1.08-7.33-6.76c0,0-1.12-4.78-1.78-5.1Z"/><path class="e" d="M35.02,26.79c-1.02,1.68-2.87,2.71-5.01,2.2-2.99-.71-3.19-5.46-5.48-7.05-.03-.02-.05-.05-.08-.07-.07,.09-.12,.16-.12,.16,.66,.32,1.78,5.1,1.78,5.1,5.28,7.84,7.48,7.57,7.33,6.76-.15-.81-.07-3.1,.74-5.06,.24-.58,.56-1.31,.84-2.06Z"/><path class="b`" d="M27.25,65.5c3.36,1.62,7.21,3.55,11.21,3.75v-8.97l-22.46-5.68c-.85,11.28,2.69,19.42,4.76,25.34,2.95,8.46,.59,13.42,.59,13.42-5.24,0-6.11,2.08-5.99,3.69,.07,1.05,.97,1.86,2.02,1.88,2.36,.05,6.76,.12,7.51-.04,.88-.19,2.52-8.51,2.98-10.93,.08-.43,.07-.87-.04-1.3-2.9-12.07-.58-21.18-.58-21.18Z"/><path class="ax" d="M28.28,80.59c-1.66,.96-4.6,4.05-6.14,3.87-.08,0-.15-.03-.22-.05,.97,5.71-.57,8.96-.57,8.96-5.24,0-6.11,2.08-5.99,3.69,.07,1.05,.97,1.86,2.02,1.88,2.36,.05,6.76,.12,7.51-.04,.88-.19,2.52-8.51,2.98-10.93,.08-.43,.07-.87-.04-1.3-.3-1.26,.65-4.91,.45-6.09Z"/><path class="b`" d="M97.16,79.26c-1.18-1.18-6.19-5.8-9.05-9.44-2.36-3.01-3.64-2.66-4.29-9.19h-16.9v.84c.15-.06,.25-.1,.25-.1,2.65,12.68,22.42,19.96,22.42,19.96,2.46,5.49,2.65,9.16,2.48,11.08-.08,.9-.83,1.58-1.73,1.63-2.65,.13-4.09,.73-4.83,1.46-1.23,1.22-.25,3.34,1.48,3.39,3.08,.09,9.29,.24,10.17-.06,1.18-.39,1.18-18.39,0-19.57Z"/><path class="ax" d="M88.96,81.08c.4,.16,.63,.25,.63,.25,2.46,5.49,2.65,9.16,2.48,11.08-.08,.9-.83,1.58-1.73,1.63-2.65,.13-4.09,.73-4.83,1.46-1.23,1.22-.25,3.34,1.48,3.39,3.08,.09,9.29,.24,10.17-.06,.98-.33,1.15-12.91,.49-17.75h-8.69Z"/><path class="bc" d="M81.18,47.45s5.51,1.47,8.16,5.8c2.65,4.33,7.77,15.54,20.55,13.47,0,0,1.03,.15,.59,1.23-.44,1.08-3.82,7.33-14.6,1.82-10.77-5.51-14.88-21.33-14.71-22.32Z"/><path class="ae" d="M27.25,69.73s3.54,6.12,15.41,4.13c4.82-.81,9.59-1.85,14.35-2.97,4.12-.97,14.05-6.33,16.41-3.28,2.56,3.3-1.18-8.21-1.18-8.21l-27.58,1.33S9.07,39.35,10.21,46.05c5.23,30.76,17.03,23.68,17.03,23.68Z"/><path class="x" d="M99.96,80.89c-1.18-1.18-6.19-5.8-9.05-9.44-2.85-3.64-4.13-2.36-4.62-14.26-.49-11.9-9.93-13.27-13.03-13.72s-11.4,.68-18.58,1.33c-5.61,.51-20.8-3.54-22.42-5.16-1.15-1.15-3.42-5.9-4.66-8.59-2.39,3.23-6.06,5.9-9.7,6.32-1.81,.21-6-.72-9.36-1.47,0,9.88,5.91,19.5,6.21,21.89,1.16,9.04,6.81,16.49,9.39,23.89,2.95,8.46,.59,13.42,.59,13.42-5.25,0-6.11,2.08-5.99,3.69,.08,1.05,.96,1.85,2.02,1.88,2.35,.05,6.77,.12,7.52-.04,.88-.19,2.52-8.51,2.98-10.93,.06-.33,.06-.68,0-1.02-1.09-6.61,.09-11.4,.38-14.58,.23-2.48,2.69-4.05,5.05-3.26,17.53,5.85,30.08-6.47,33.27-7.85,2.65,12.68,22.42,19.96,22.42,19.96,2.47,5.51,2.66,9.18,2.48,11.1-.08,.89-.82,1.57-1.71,1.61-2.67,.13-4.11,.73-4.85,1.46-1.23,1.22-.25,3.34,1.48,3.39,2.45,.07,6.87,0,9.03-.17,.56-.05,1.49-.72,1.62-1.51,.68-4.23,.52-16.95-.47-17.94Z"/><path class="ae" d="M30.87,81.23c-1.69,1.95-3.36,3.91-5.56,4.9,.97,5.71-.57,8.96-.57,8.96-5.25,0-6.11,2.08-5.99,3.69,.08,1.05,.96,1.85,2.02,1.88,2.35,.05,6.77,.12,7.52-.04,.88-.19,2.52-8.51,2.98-10.93,.06-.33,.06-.68,0-1.02-.46-2.81-.51-5.28-.39-7.45Z"/><path class="ae" d="M77.7,74.43c1.26,1.06,2.57,2.03,3.88,2.9-1.23-1.09-2.49-2.13-3.88-2.9Z"/><path class="ae" d="M91.57,82.63c.52,.21,.81,.32,.81,.32,2.47,5.51,2.66,9.18,2.48,11.1-.08,.89-.82,1.57-1.71,1.61-2.67,.13-4.11,.73-4.85,1.46-1.23,1.22-.25,3.34,1.48,3.39,2.45,.07,6.87,0,9.03-.17,.56-.05,1.49-.72,1.62-1.51,.45-2.83,.53-9.43,.24-13.8-1.74-3.08-5.4-2.28-9.1-2.39Z"/><path class="p" d="M63.82,48.14c4.45-2.36,8.89-3.98,14.02-3.49,.1,0,.2,.02,.3,.03-1.96-.78-3.8-1.06-4.87-1.21-3.1-.44-11.4,.68-18.58,1.33-5.13,.47-18.27-2.88-21.72-4.7,2.58,15.38,23.51,11.92,30.85,8.04Z"/><path class="e" d="M18.36,50.27c8.24,.37,10.71-5.48,13.11-11.68-1.21-1.88-2.88-5.38-3.87-7.55-2.39,3.23-6.06,5.9-9.7,6.32-1.81,.21-6-.72-9.36-1.47,0,4.51,1.67,10.58,3.29,14.54,2.06-.6,4.04-.27,6.53-.16Z"/><path class="e" d="M70.18,63.82c.1-.8-.18-1.37-1.29-1.33-5.36,.21-9.43,2.64-14.52,3.72-3.6,.76-7.37,1.26-11.03,.55-2.3-.45-5.4-1.65-7.69-1.51h-.05c-2.04,.14-3.54,1.98-3.45,4.01,.05,1.06,.06,2.12,.04,3.17,.9-1.45,2.73-2.18,4.5-1.59,17.53,5.85,30.08-6.47,33.27-7.85,.06,.28,.14,.56,.21,.83Z"/><path class="x" d="M18.32,19.5s-7.35,.48-8.08,2.17c-.74,1.7-1.87,5.35-2.98,8.19-1.11,2.84,1.47,6.75,3.91,9.62,2.43,2.88,6.34,4.57,9.44,1.99,3.1-2.58,8.23-6.69,7.58-10.35s-1.17-7.14-3.25-9.45c-.63-.7-4.64-2.26-6.61-2.17Z"/><path class="ae" d="M23.66,35.02c-3.11-.43-1.97-2.1-5.68-2.81-4.02-.77-4.16,2.55-7.47,2.55-.77,0-2.5-1.02-3.15-1.39,.7,2.1,2.28,4.31,3.81,6.11,2.43,2.88,6.34,4.57,9.44,1.99,2.24-1.87,5.53-4.53,6.95-7.25-1.02,.61-2.71,.95-3.89,.79Z"/><path class="aw" d="M21.94,37.03c-.79-.28-1.42-.89-2.24-1.11-.63-.17-1.25-.26-1.9-.32-.59-.06-1.03-.32-1.32-.69-.5,.87-1.43,1.27-2.59,1.66-1,.33-1.74,.36-2.8,.46-.75-.11-.93,1-.96,1.15,.34,.45,.69,.9,1.03,1.31,2.43,2.88,6.34,4.57,9.44,1.99,.94-.79,2.07-1.72,3.17-2.73,.27-2.01-1.5-1.6-1.83-1.71Z"/><path class="d" d="M22.32,35.51c-.36-.64-1.01-1.21-1.48-1.82-.59-.58-.92-1.1-2.86-1.47-1.12-.21-1.93-.11-2.6,.15-1.22,.9-2.46,1.58-3.31,2.87-.36,.55-1.15,1.5-.93,2.02,.74,1.79,3.29,3.48,4.44,1.96,.85-1.12,2.21-1.13,3.06,0,.66,.88,1.99,.53,2.91,.11,1.01-1.14,1.71-2.2,.78-3.82Z"/><g><path class="al" d="M19.24,29.64s1.2-2.36,2.57-2.15c1.37,.21,2.52,1.68,2.52,1.68,0,0-1.2,2.17-2.71,2.17s-2.38-1.7-2.38-1.7Z"/><path class="n" d="M23.31,29.4c0,.93-.76,1.69-1.69,1.69s-1.69-.76-1.69-1.69,.76-1.69,1.69-1.69,1.69,.76,1.69,1.69Z"/><circle class="al" cx="21.62" cy="29.4" r="1"/><path class="ar" d="M22.72,28.7c0,.22-.18,.4-.4,.4s-.4-.18-.4-.4,.18-.4,.4-.4,.4,.18,.4,.4Z"/></g><g><path class="al" d="M16.14,29.17s-1.2-2.36-2.57-2.15c-1.37,.21-2.47,1.69-2.47,1.69,0,0,1.15,2.16,2.66,2.16s2.38-1.7,2.38-1.7Z"/><path class="n" d="M15.44,28.93c0,.93-.76,1.69-1.69,1.69s-1.69-.76-1.69-1.69,.76-1.69,1.69-1.69,1.69,.76,1.69,1.69Z"/><circle class="al" cx="13.76" cy="28.93" r="1"/><path class="ar" d="M14.85,28.23c0,.22-.18,.4-.4,.4s-.4-.18-.4-.4,.18-.4,.4-.4,.4,.18,.4,.4Z"/></g><path class="al" d="M22.62,37.06c-.5,.2-.12,.87-.46,1.12-.62,.45-1.26,.97-2.06,1.05-1.2,.12-2.51-1.95-2.99-1.95-.45,0-1.63,2.11-2.96,1.95-.47-.06-.91-.27-1.31-.52-.35-.22-.82-.5-1.08-.82-.2-.24,0-.67-.38-.83-.45-.18-1.34,.33-.25,1.14,.2,.15,.66,.61,.81,.78,.55,.62,1.37,1.2,2.48,1.06,1.16-.14,1.91-.86,2.37-1.53,.16-.23,.51-.23,.66,0,.46,.67,1.22,1.39,2.37,1.53,1.19,.15,2.04-.52,2.59-1.19,.19-.23,.45-.65,.45-.65,1.09-.81,.2-1.33-.25-1.14Z"/><path class="al" d="M16.98,36.74s-4.3-2.06-2.56-4.11c1.94-2.29,6.68-1.16,6.42,1.44-.2,1.94-3.31,2.67-3.86,2.67Z"/><path class="ae" d="M14.22,24.99c.44,.46,1.38,1.36,1.71,1.06,.4-.37,.88-1.82-1.23-1.48-.21,.03-.62,.27-.48,.42Z"/><path class="ae" d="M21.54,25.4c-.44,.46-1.38,1.36-1.71,1.06-.4-.37-.88-1.82,1.23-1.48,.21,.03,.62,.27,.48,.42Z"/></g><g><path class="an" d="M355.7,84.31s-7.88-2.28-4.88-10.32c1.05-2.8,1.55-5.17,1.78-7.08h-16.06v7.17c7.99,12.67,14.46,12.69,14.96,14.44,.5,1.76-.43,4.03-1.14,4.07s-2.79-.76-3.3,1.12c-.5,1.88,1.76,2.24,1.76,2.24,9.81,0,6.88-11.64,6.88-11.64Z"/><path class="an" d="M300.32,88.49s-.32-10.17-2.4-16.52c-2.08-6.35,.51-13.35,8.2-12.1s.81,13.25,0,19-1.12,7-1.56,8.31c-.39,1.16-1.9,6.97-4.45,8.29-.33,.17-3.54,.14-4.22-.18-.82-.39-1.1-1.05-.89-2.11,.37-1.94,2.37-1.25,3.12-1.5s2.09-2,2.19-3.19Z"/><g><path class="v" d="M304.47,43.91s3.57,5.75,6.32,6.88,12.87,1,19.62,0,22-3.62,25.12,10.88c0,0,1.37,4.75-1.62,13.12-2.14,5.96,1.24,8.88,3.36,10.07,1.03,.58,1.72,1.6,1.84,2.78,.28,2.93-.08,9.23-3.83,9.9-.8,.14-1.61,.12-2.42,.13-.74,0-1.5-.05-2.12-.51-.59-.44-.77-1.13-.59-1.83,.5-1.96,2.58-1.12,3.29-1.17,.71-.04,1.5-3.29,1-5.12s-6.83-.96-14.83-14.21c0,0-5.83,5.33-17.21,5.71s-18.12,.75-25.87-4.5-9.1-9.2-9.42-17.06c-.26-6.56-1.02-8.32-1.74-12.57-.72-4.25,16.76-3.62,19.08-2.5Z"/><path class="g" d="M306.39,57.43c1.72-1.95,2.92-4.14,3.92-6.44-2.91-1.62-6.36-7.03-6.36-7.03-.97-.46-4.37-.84-8.15-.88-5.26,.06-10.81,.89-10.4,3.33,.72,4.25,1.48,6.01,1.74,12.57,0,.24,.03,.47,.04,.7,1.91-.15,3.61-.13,4.76,.12,5.28,1.14,10.42,2.21,14.46-2.37Z"/><path class="f" d="M339.42,72.03c-.61-.79-1.72-1.13-3.6-.68-3.32,.8-6.54,1.93-9.89,2.64-7.16,1.51-13.43,3.18-20.58,.75-5.5-1.87-10.47-7.78-11.53-13.54-1.12-6.07-.01-11.98-2.57-17.19-1.28,.52-5.6,1.31-5.86,2.39h0c.72,4.25,1.48,6.01,1.74,12.57,.31,7.86,1.67,11.81,9.42,17.06s14.5,4.88,25.87,4.5c1.42-.05,2.76-.17,4.01-.35,1.25-.18,2.41-.42,3.48-.7,2.15-.55,3.94-1.25,5.38-1.94,2.88-1.38,4.34-2.71,4.34-2.71,0,0,.4-2.01-.2-2.8Z"/></g><path class="v" d="M302.05,90.41s.13-10.03-1.94-16.38c-2.08-6.35,.06-13.5,7.75-12.25,7.69,1.25,.81,13.25,0,19-.81,5.75-1.12,7-1.56,8.31-.39,1.16-1.9,6.97-4.45,8.29-.33,.17-3.54,.14-4.22-.18-.82-.39-1.1-1.05-.89-2.11,.37-1.94,2.37-1.25,3.12-1.5s2.09-2,2.19-3.19Z"/><path class="bf" d="M353.73,56.79s3.53-1.52,2.85-5.27-5.13-8.22-11.31-5c-6.19,3.22-4.12,11.12,.81,11.69s7.13-5.87,2.97-6.69c0,0,.43,1.19-.74,1.73-1.17,.54-2.58-1.38-.71-2.21,1.87-.83,4.35,.06,3.77,2.77,0,0,1.93,2.07,2.37,2.98Z"/><path class="h" d="M348.44,48.19c-4.44,.07-4.28,4.15-2.96,5.69,1.28,1.49,2.78,1.36,3.89,.79,1.06-.55,1.2-2.4,.93-2.62-.33-.25-.74-.43-1.25-.53,0,0,.43,1.19-.74,1.73-1.17,.54-2.58-1.38-.71-2.21s4.35,.06,3.77,2.77c0,0,.31,.33,.7,.78,2.85-2.93-.11-6.45-3.63-6.4Z"/><g><path class="v" d="M296.73,36s-5.57-.41-7.91,1.86-5.62,5.92-4.04,11.01c1.58,5.09,7.36,8.41,10.44,8.74,4.98,.53,9.68-4.2,10.85-5.43,1.17-1.24,5.22-7.27-.5-12.66-5.5-5.18-5.87-2.41-8.83-3.51Z"/><path class="bi" d="M292.32,36.28s-1.62-.68-3.64-.31c-2.02,.37-5,.19-5.82,.1-.83-.09-2.52,1.19-2.94,3.9-.41,2.71,1.92,5.69,3.99,6.84,2.07,1.15,.83-3.86,3.07-6.11s5.85-3.8,5.33-4.42Z"/><path class="bi" d="M302.12,37.03s2.57,.09,4.4,.18c1.83,.09,2.66-.46,3.39,0,.73,.46,3.81,2.36,1.65,7.06-2.34,5.09-2.06,2.52-3.35,1.51s-3.88-2.98-4.75-4.91c-.87-1.93-2.04-4.27-1.35-3.85Z"/><g><path class="bi" d="M300.7,46.2s-3.05-3.05-.9-5.25c.29-.3,.77-.29,1.07,0,.84,.81,2.58,2.44,3.82,3.28,1.7,1.15-.39,5.14-1.73,3.99-1.34-1.15-2.26-2.02-2.26-2.02Z"/><path class="aj" d="M303.58,44.36c0,.92-.74,1.66-1.66,1.66s-1.66-.74-1.66-1.66,.74-1.66,1.66-1.66,1.66,.75,1.66,1.66Z"/><path class="be" d="M302.79,44.36c0,.48-.39,.87-.87,.87s-.87-.39-.87-.87,.39-.87,.87-.87,.87,.39,.87,.87Z"/><path class="av" d="M303.09,43.48c0,.32-.26,.57-.57,.57s-.57-.26-.57-.57,.26-.57,.57-.57,.57,.26,.57,.57Z"/></g><g><path class="bi" d="M291.95,46.2s3.05-3.05,.9-5.25c-.29-.3-.77-.29-1.07,0-.84,.81-2.58,2.44-3.82,3.28-1.7,1.15,.39,5.14,1.73,3.99,1.34-1.15,2.26-2.02,2.26-2.02Z"/><path class="aj" d="M292.42,44.36c0,.92-.74,1.66-1.66,1.66s-1.66-.74-1.66-1.66,.74-1.66,1.66-1.66,1.66,.75,1.66,1.66Z"/><path class="be" d="M291.62,44.36c0,.48-.39,.87-.87,.87s-.87-.39-.87-.87,.39-.87,.87-.87,.87,.39,.87,.87Z"/><circle class="av" cx="291.35" cy="43.48" r=".57"/></g><g><path class="bi" d="M300.45,45.18c-1.35-.74-3.65-1.72-5.25-1.36-2.47,.56-5.6,3.15-6.79,4.63-1.02,1.26-1.07,3.71,.54,6.18,2.15,1.74,4.61,2.8,6.28,2.97,3.06,.32,6.01-1.33,8.1-2.95,1.39-1.07,2.04-2.9,1.5-4.57-.51-1.56-1.7-3.42-4.37-4.9Z"/><ellipse class="bj" cx="294.76" cy="46.84" rx=".71" ry="1.05"/><ellipse class="bj" cx="297.55" cy="46.84" rx=".71" ry="1.05"/><path class="bj" d="M289.05,52.99s2.29,.14,4.17-.96,3.03-2.99,2.86-6.71c0,0,.09-.48,.38,0,0,0-.48,5.3,1.99,6.71,2.48,1.41,4.51,1.14,4.51,1.14,0,0-1.39,1.1-5.1-.15-1.13-.38-2.34-.42-3.49-.14-1.35,.32-3.33,.59-5.31,.11Z"/></g></g></g><g><path class="aq" d="M251.99,90.43s2.56,8.65,1.56,9.56-3.75,.17-4,1.68,1.44,2.45,5.69,2.45,2.94-8.96,4.69-14.84l-7.94,1.15Z"/><path class="bh" d="M255.74,91.75s2.56,8.65,1.56,9.56-3.75,.17-4,1.68,1.44,2.45,5.69,2.45c2.74,0,2.45-5.34,2.88-9.56,.24-2.33,1.2-4.04,1.82-6.12l-7.94,2Z"/><path class="aq" d="M218.9,90.43s2.56,8.65,1.56,9.56-3.75,.17-4,1.68,1.44,2.45,5.69,2.45,2.94-8.96,4.69-14.84l-7.94,1.15Z"/><path class="bh" d="M222.65,91.75s2.56,8.65,1.56,9.56-3.75,.17-4,1.68,1.44,2.45,5.69,2.45,2.94-8.96,4.69-14.84l-7.94,1.15Z"/><path class="ad" d="M271.42,63.13c-.83-1.41-8-12.3-13.62-9.67-5.62,2.63-10.62,6.12-14.75,6.12s-6.38-2.88-9.34-5.62c-.81-.75-1.95-1.96-3.18-3.31-1.57,1.02-3.81,.91-5.99,.66-4.86,1.37-9.9,2.29-14.08,.39-1.32,3.52-2.7,7.21-2.95,8.34-.42,1.92-5.86,8.17-2.93,16,0,0-.82,3.42,2.09,5.5,0,0-.17,3.17,5.33,5.08,0,0,.21-1.21,.58-1.46,0,0,2.94,6.66,6.98,6.48,0,0,2.3,3.5,4.11,2.75,0,0,3.18,2.76,4.75,1.08,0,0,2.35,.73,3.5,.54,1.93-.31,3.42-1.96,3.42-1.96,5.39,1.64,6.92-.6,6.92-.6,4.98,2.2,8.33-.42,8.33-.42,3.83,2.33,6.33-.07,6.33-.07,6,2.43,5.27-.1,5.27-.1,6.02,.81,6.9-3.5,6.9-3.5,5-1.84,4-6.86,4-6.86,3.5-1.37,2.83-5.63,2.83-5.63,3.17-5-3.67-12.33-4.5-13.74Z"/><path class="bh" d="M267.58,71.96c.91,1.07,2.49,1.32,3.74,.67,3.03-1.56,2.65-4.93,2.1-6.78-.32-1.07-2.85-.45-3.39-1.4-1.24-.89-2.8-2.2-4.69-4.62-1.45-1.86-.29-3.2-2.04-4.77-.64-.58-1.3-1.16-1.97-1.73-1.2-.38-2.39-.41-3.53,.12-5.62,2.63-10.62,6.12-14.75,6.12s-6.38-2.88-9.34-5.62c-.51-.47-1.16-1.14-1.87-1.89,.33,5.76,1.42,11.41,1.36,17.23-.04,4.13-4.14,10.97-3.11,14.98,1.12,4.38,9.42,1.15,9.46-1.92,0,0,2.34,3.07,6.15,2.47,2.23-.35,3.67-1.94,5.38-4.06-.04,.05,3.35,2.26,6.12,1.19,2.68-1.03,6.28-5.74,4.2-8.25-.86-1.03-2.6-2.63-2.64-4.56-.03-1.57,5.93-.58,8.82,2.82Z"/><path class="ad" d="M233.32,62.66c-1.78-3.72-3.83-7.37-4.9-11.28-1.21,.17-2.56,.08-3.88-.08-4.86,1.37-9.9,2.29-14.08,.39-1.32,3.52-2.7,7.21-2.95,8.34-.42,1.92-7.75,8.03-2.93,16,0,0-.82,3.42,2.09,5.5,0,0-.17,3.17,5.33,5.08,0,0,.21-1.21,.58-1.46,0,0,2.94,6.66,6.98,6.48,0,0,.88,1.33,1.97,2.18,.25-.7,.47-1.74,1.38-2.07,8.83-3.15,6.37-6.98,6.37-6.98,1.3,.29,1.3,2.5,1.3,2.5,4.33-2.04,3.16-6.5,3.16-6.5,4.48-1.65,2.92-6.4,2.92-6.4,3.62-5.17-1.32-7.45-3.36-11.71Z"/><path class="ad" d="M252.41,50.59c1.46-.87,3.8-1.72,7.52-2.03,0,0,4.41,0,6.83,.85,0,0-2.41,.43-3.08,.43,0,0,4.49,1.33,5.74,3.08,0,0-4.07-.83-5.74-.42,0,0,8.24-.17,10.66,8.17,0,0-4.58-3.75-7.67-3.83,0,0,7.08,3.5,6.42,9.83,0,0-1.5-2.08-3.08-3.17,0,0,4.42,4.33,.67,9.25,0,0-.08-4.5-1.42-5.92-1.33-1.42-4.49-2.83-5.58-4.83,0,0,1.24,2.92,2.91,3.75,0,0-5.58,2.26-8.5-1.41-2.92-3.67-2.67-5.34-2.67-5.34,0,0-1.17,1.5,.83,4.42,0,0-4.46-.08-6.73-3.75-1.31-2.12-1.22-4.01-.74-5.25,.35-.91,1.69-2.69,3.63-3.84Z"/><g><g><path class="bh" d="M232.21,49.43s-5.8-2-7.22-5.17c0,0,3.34-2.29,5.11-2.64,.49-.1,.96,.25,1.04,.75l1.07,7.06Z"/><path class="u" d="M230.54,48.68s-3.71-.84-4.67-2.98c0,0,1.83-1.24,3.06-1.74,.52-.21,1.09,.15,1.15,.7l.45,4.02Z"/></g><g><path class="bh" d="M209.5,48.08s6.07-1.05,7.28-4.3c0,0-3.41-2.12-5.32-2.73-.62-.2-1.26,.25-1.33,.9l-.63,6.13Z"/><path class="u" d="M210.87,47.99s3.65-1.08,4.47-3.27c0,0-2.49-1.46-3.66-1.68-.3-.06-.58,.19-.59,.5l-.21,4.45Z"/></g><path class="bh" d="M221.81,44.42c-.87,.21-1.78,.13-2.61-.19-.98-.39-2.37-.83-2.86-.5-2.68,1.78-7.4,2.9-7.83,5.78,0,0-3.56,1.81-3.06,4.79,0,0-2.67,2.67,.66,6.76,0,0-.93,1.96,1.99,4.63,0,0-.41,2.58,3.78,3.78,0,0,.6,2.38,3.14,1.94,0,0,1.28,1.35,1.27,2.83,0,0,2.9-.09,3.69-1.97,0,0,2.63,.16,3.44-2.01,0,0,1.98,.76,3.68-1.79,0,0,2.88,.68,3.66-2.7,0,0,2.98,.2,3.16-3.92,0,0,2.76-.7,2.05-4.69,0,0,1.36-2.46-1.17-4.34,0,0,.95-1.89-3.24-3.74,0,0-5.4-4.81-6.57-4.9-.71-.06-2.28,.01-3.19,.24Z"/><path class="ba" d="M218.09,67.25c4.29-1.05,12.75-1.95,10.63-7.89-.92-2.58-5.54-1.28-7.58-1.99-.59-.2-1.06-.58-1.44-1.03-1.07,.62-2.4,1.01-3.85,1.21-1.1,.15-2.26,.16-3.35,.41-4.66,1.05-1.11,5.14,.94,6.17,1.84,.92,3.35,1.77,4.66,3.12Z"/><path class="as" d="M225.41,57.23c-2.4,.87-4-.69-5.21-2.56-.99,1.3-2.33,2.32-3.76,2.33-.76,0-1.43-.21-2-.58-.57-.37-1.95,.39-2.35,1.54-.65,1.87,.74,3.23,1.88,3.15,4.86-.36,5.02-.8,5.31-2.07,0,1.31-.9,1.44,4.23,2.64,2.25,.53,4.08-.66,3.67-2.84-.17-.88-1.21-1.81-1.77-1.61Z"/><path class="aa" d="M219.57,57.99s-4.87-.29-4.67,2.03c.2,2.32,6.03,5.28,8.9,1.03,2.07-3.05-4.23-3.06-4.23-3.06Z"/><g><path class="ak" d="M222.1,55.32s.6-1.38,1.79-1.36c1.19,.02,1.82,1.36,1.82,1.36,0,0-.54,1.5-1.81,1.66-.7,.09-1.59-.55-1.81-1.66Z"/><path class="s" d="M225.09,55.51c0,.72-.58,1.31-1.3,1.31s-1.3-.59-1.3-1.31,.58-1.31,1.3-1.31,1.3,.59,1.3,1.31Z"/><path class="ap" d="M224.82,55.02c0,.25-.2,.46-.45,.46s-.45-.21-.45-.46,.2-.46,.45-.46,.45,.21,.45,.46Z"/></g><g><path class="ak" d="M217.85,54.93s-.45-1.43-1.64-1.55c-1.18-.11-1.96,1.15-1.96,1.15,0,0,.38,1.55,1.62,1.84,.68,.16,1.64-.37,1.98-1.45Z"/><path class="s" d="M217.47,54.92c0,.72-.58,1.31-1.3,1.31s-1.3-.59-1.3-1.31,.58-1.31,1.3-1.31,1.3,.59,1.3,1.31Z"/><path class="ap" d="M217.2,54.42c0,.25-.2,.46-.45,.46s-.45-.21-.45-.46,.2-.46,.45-.46,.45,.21,.45,.46Z"/></g><path class="s" d="M215.72,60.46s.92,1.3,2.16,1.14,1.46-1.28,1.46-1.28c0,0,.29,1.39,1.43,1.36,1.14-.03,1.63-.34,1.81-.91,0,0-1.2,.76-1.69,.53-.49-.23-1.32-1.07-1.43-1.38-.12-.31-.59,.34-.64,.57s-.85,.97-1.53,.65c-.69-.33-1.09-.57-1.56-.67Z"/><path class="s" d="M219.55,60.6c-.11,.03-.22,.02-.33-.02-.55-.23-2.23-1.04-1.91-2.5,.38-1.74,4.83-1.01,4.61,.56-.18,1.31-1.57,1.73-2.37,1.95Z"/><path class="ba" d="M216.89,51.47s1.45,.54,1.92,1.75c.47,1.21,2.22,1.5,3.04,.38,.82-1.12,2.12-1.61,2.56-1.76,0,0-4.3-2.83-7.51-.36Z"/></g></g><g><path class="am" d="M146.73,66.49c.71-1.96,1.24-3.86,1.61-5.7h-24.53l.47,12.5c2.16,5.17,4.71,7.77,8.28,10.27,3.54,2.48,6.71,7.18,7.68,10.79,.55,2.04,.97,9.73-.02,10.32s-5.07,.13-5.07,3.31,5.37,2.55,9.45,2.55,3.63-17.8,1.84-26.38c-1.79-8.58,.3-17.67,.3-17.67Z"/><path class="am" d="M83.99,61.42c-1.67-2.85-5.27-4.12-8.25-2.68-1.92,.93-3.61,3-3.68,7.39-.16,10.24,6,20.28,4.81,28.93-1.19,8.65-.8,8.95-2.49,9.94-1.45,.85-5.91,2.62-4.53,4.95,.47,.79,1.38,1.22,2.31,1.23,1.98,.03,6.05,.08,6.67-.02,.82-.12,2.41-3.48,3.41-8.75,0,0,1.89-3.58,1.69-7.66,0,0,2.29-2.15,1.29-7.39,0,0,4.57-6.13,2.29-15.48-1.36-5.54-2.36-8.51-3.52-10.48Z"/><path class="v" d="M145.83,45.58s8.05,5.97,9.1,13.42c1.04,7.46,1.04,19.98,2.24,22.97,1.19,2.98,10.89,15.36,9.1,18.34s-6.26-4.62-6.26-4.62c0,0-4.33,.75-5.07-2.39s-4.77-2.68-6.71-12.53c-1.94-9.84,1.34-23.86-.15-27.59-1.49-3.73-2.24-7.61-2.24-7.61Z"/><path class="ac" d="M156.43,77.81c-.52-5.16-.73-13.34-1.5-18.81-1.04-7.46-9.1-13.42-9.1-13.42,0,0,.75,3.88,2.24,7.61,1.49,3.73-1.79,17.75,.15,27.59,1.22,6.19,3.26,8.31,4.8,9.81-.11-4.54,.94-9.21,3.41-12.78Z"/><path class="v" d="M75.75,24.7s9.51,5.97,14.17,10.94c4.66,4.97,17.78,9.33,22.95,7.95,5.17-1.38,25.2-3.82,32.21,.95,7.01,4.77,8.8,14.32,4.62,25.8,0,0-2.09,9.08-.3,17.67,1.79,8.58,2.24,26.38-1.84,26.38s-9.45,.63-9.45-2.55,4.08-2.71,5.07-3.31c.99-.6,1.39-7.95,.85-9.99-.97-3.61-6.02-12.88-8-14.57-1.74-1.48-7.2-3.68-9.88-8.45-.53-.95-1.81-1.17-2.61-.43-1.47,1.38-3.75,3-6.1,2.71,0,0-5.17,5.67-9.5,3.43,0,0-5.82,3.88-9.84,2.68,0,0-5.82,5.22-9.25,2.98-3.43-2.24-9.99-2.09-9.99-2.09,0,0-5.82,1.04-7.91-8.5,0,0-6.26-.6-7.16-10.44,0,0-2.34-1.79-3.43-6.26s-2.68-5.47-1.19-19.09c1.49-13.62,13.87-17.58,16.57-15.81Z"/><path class="q" d="M62.53,64.45c1.91-3.52,4.82-6.35,8.79-7.39,6.5-1.7,11.34-2.11,14.74-8.72,1.91-3.72,3.39-7.62,5.67-11.11-.69-.52-1.31-1.05-1.82-1.59-4.66-4.97-14.17-10.94-14.17-10.94-2.7-1.77-15.08,2.19-16.57,15.81-1.49,13.62,.1,14.62,1.19,19.09,.56,2.27,1.43,3.85,2.16,4.85Z"/><path class="l" d="M62.53,64.45c1.91-3.52,4.82-6.35,8.79-7.39,6.5-1.7,11.34-2.11,14.74-8.72,1.91-3.72,3.39-7.62,5.67-11.11-.69-.52-1.31-1.05-1.82-1.59-4.66-4.97-14.17-10.94-14.17-10.94-2.7-1.77-15.08,2.19-16.57,15.81-1.49,13.62,.1,14.62,1.19,19.09,.56,2.27,1.43,3.85,2.16,4.85Z"/><path class="q" d="M138.25,79.04c.34,.27,.66,.56,.99,.84,1.96,.95,3.8,2.09,5.29,3.61,1.81,1.84,3.3,5.18,5.33,7.03-.14-.9-.29-1.75-.45-2.52-1.79-8.58,.3-17.67,.3-17.67,4.18-11.48,2.39-21.03-4.62-25.8-7.01-4.77-27.04-2.34-32.21-.95-3.31,.89-9.87-.59-15.39-3.06-.02,.4-.05,.8-.08,1.25-.22,2.93,1.22,5.07,2.44,7.59,1.29,2.68,.68,5.39-1.01,7.67-3.16,4.26-7.72,5.16-7.63,11.62,.12,8.53,8.05,9.83,13.94,5.57,3.6-2.6,6.18-2.85,10.56-2.47,3.29,.28,5.24-.13,7.99-1.93,1.24-.81,2.41-.83,3.8-.67,3.19,.37,3.95,3.94,5.44,6.15,1.48,2.2,3.43,2.23,5.32,3.75Z"/><path class="o" d="M100.18,50.21c2.34,1.16,4.94,1.28,7.74,1.13,3.26-.17,6.52-.3,9.71-1.1,1.41-.35,3.22-.93,4.7-.73,6.76,.93,11.33,2.18,16.87-3.04,1.17-1.1,2.3-2.19,3.5-3.14-8.38-3.11-25.16-1.01-29.83,.24-3.31,.89-9.87-.59-15.39-3.06-.02,.4-.05,.8-.08,1.25-.22,2.93,1.22,5.07,2.44,7.59,.14,.29,.24,.57,.34,.86Z"/><path class="v" d="M87.08,64.63c-1.67-2.85-5.27-4.12-8.25-2.68-1.92,.93-3.61,3-3.68,7.39-.16,10.24,6,20.28,4.81,28.93-1.19,8.65-.8,8.95-2.49,9.94-1.45,.85-5.91,2.62-4.53,4.95,.47,.79,1.38,1.22,2.31,1.23,1.98,.03,6.05,.08,6.67-.02,.82-.12,2.41-3.48,3.41-8.75,0,0,1.89-3.58,1.69-7.66,0,0,2.29-2.15,1.29-7.39,0,0,4.57-6.13,2.29-15.48-1.36-5.54-2.36-8.51-3.52-10.48Z"/><path class="q" d="M71.51,22.21s-6.96-.7-9.25,3.08c-2.29,3.78-2.59,3.68-2.68,6.76-.08,2.4,1.65,7.56,2.61,10.86,.27,.94-.44,6.19,.45,7.5,.47,.69,.9,1.21,1.24,1.4,1.67,.9,2.08-1.45,5.19-1.62,3.74-.2,2.72,3.66,5.93,2.01,1.84-.94,1-6.68,1.5-7.79,1.49-3.31,3.26-8.28,3.52-9.24,.85-3.08,.15-7.41-.45-8.6-.6-1.19-3.98-3.48-8.05-4.37Z"/><path class="x" d="M70.62,41.7v-10.47c-.44-.17-.78-.56-.69-1.11-.11-.06-.23-.14-.33-.26-.8-.94-1.68-2.94-3.16-2.33-1.2,.49-1.82,1.81-2.82,3.43-.78,1.26-2.16,2.82-1.78,3.6,.41,.82,1.22,1.67,1.29,2.57,.05,.68-.13,2.49-.23,4.57h7.72Z"/><path class="x" d="M68.63,41.41l1.88-10.3c.47-.09,.87-.41,.88-.97,.12-.04,.25-.09,.37-.19,.96-.78,2.18-2.59,3.53-1.73,1.1,.7,1.47,2.11,2.16,3.88,.54,1.38,1.62,3.16,1.11,3.86-.55,.74-1.5,1.42-1.73,2.3-.17,.66-.32,2.47-.59,4.54l-7.6-1.39Z"/><path class="v" d="M74.77,23.27c-.64-.27-1.33-.63-2.04-.91-.74-.3-1.55-.4-2.35-.36-.72,.04-1.64,.13-2.37,.3-.72,4.48,1.51,8.75-.28,13.17-.63,1.57-3.62,1.1-4.31,2.5-1.37,2.79-.43,7.32-1.23,10.46-.45,.69-.45,2.2-.19,2.59,.47,.69,1.33,1.08,2.04,1.02,1.9-.17,1.9-1.67,5.01-1.84,3.74-.2,3.22,3.94,6.37,2.2,.29-.16,.79-1.34,.6-2.83-.23-1.73,.18-4.01,.99-8.34,.65-3.43-4.41-2.94-4.46-5.79-.11-6.15,2.09-8.58,2.21-12.17Z"/><path class="ah" d="M72.66,52.07c.47-.51,.8-1.08,.88-1.75,.12-1.12-.22-2.55-.23-3.23-.01-.76,.1-1.5,.36-2.44,.29-1.06,.91-2.73,.77-3.65-.24-1.6-1.4-1.9-2.64-2.27-.13-.04-.24-.07-.29-.06-2.39,.02-6.5-1.79-6.44,2.54,.03,2.18,.26,4.34-.28,6.48-.34,.89-.4,1.81-.18,2.75,.16,.66,.36,1.08,.59,1.28,.48-.25,.86-.6,1.42-.9,.04-.06,2.04-2.47,2.69-2.17,.63,.29,1.22,1.16,1.82,2.03,.65,.39,1.09,.95,1.53,1.4Z"/><path class="q" d="M64.25,24.3s-.89-1.64-2.73-.2-5.62,2.63-8.85,3.23c-3.23,.6-3.16,6.14-.82,9.42s2.35,8.12,3.75,10.01c1.06,1.42,2.61,1.92,3.68-3.15,.44-2.09,.94-4.9,.69-9.67-.34-6.44,3.75-9.52,4.28-9.64Z"/><path class="j" d="M60.02,32c-.56,.9-1.14,1.77-1.82,2.5-1.68,1.81-3.67,2.86-5.97,2.83,1.96,3.25,2.05,7.65,3.37,9.44,1.06,1.42,2.61,1.92,3.68-3.15,.44-2.09,.94-4.9,.69-9.67-.04-.69-.01-1.33,.04-1.94Z"/><path class="q" d="M76.86,24.3s.85-.65,3.54,.5c2.69,1.14,4.88,2.93,6.92,4.08,2.04,1.14,4.08,2.73,2.44,6.06-1.64,3.33-4.99,7.56-6.15,10.64-1.16,3.08-4.23,3.98-4.74,1.49-.5-2.49,1.87-9.84,1.53-12.63-.34-2.78-.45-8.71-3.54-10.14Z"/><path class="j" d="M84.87,41.02c-3.01-.88-3.82-3.66-4.09-6.49-.1-1.08-.33-2.36-.75-3.56,.17,1.32,.26,2.57,.38,3.48,.34,2.78-2.03,10.14-1.53,12.63,.5,2.49,3.57,1.59,4.74-1.49,.5-1.32,1.4-2.84,2.39-4.42-.37,.01-.74-.03-1.12-.14Z"/><g><path class="bd" d="M72.92,35.32s.29-1.77,2.41-2c0,0,1.39-.23,2.66,1.36,0,0-.5,2-2.66,2.03-1.59,.02-2.41-1.39-2.41-1.39Z"/><circle class="ay" cx="75.41" cy="34.97" r="1.39"/><path class="at" d="M74.65,34.97c0,.42,.34,.77,.77,.77s.77-.34,.77-.77-.34-.77-.77-.77-.77,.34-.77,.77Z"/><path class="w" d="M75.49,34.71c.04,.27,.32,.46,.62,.42,.3-.04,.51-.29,.47-.56-.04-.27-.32-.46-.62-.42-.3,.04-.51,.29-.47,.56Z"/></g><g><path class="bd" d="M67.65,34.78s-.29-1.77-2.41-2c0,0-1.39-.23-2.66,1.36,0,0,.5,2,2.66,2.03,1.59,.02,2.41-1.39,2.41-1.39Z"/><circle class="ay" cx="65.25" cy="34.43" r="1.39"/><path class="at" d="M64.48,34.43c0,.42,.34,.77,.77,.77s.77-.34,.77-.77-.34-.77-.77-.77-.77,.34-.77,.77Z"/><path class="w" d="M65.32,34.17c.04,.27,.32,.46,.62,.42,.3-.04,.51-.29,.47-.56-.04-.27-.32-.46-.62-.42-.3,.04-.51,.29-.47,.56Z"/></g><path class="a`" d="M66.28,48.98c.55-1.32,1.52-2.69,3.2-3.18,0,0,1.75,1.31,2.33,3.66,.05,.21,.6,.89,.84,1.02,.06-1.44-.43-3.37-2.66-5.3l.15-4.18-.88,.09-.12,3.92c-1.06,.44-3.64,1.82-3.86,4.69,.23-.05,.92-.52,1-.71Z"/><path class="a`" d="M69.56,43.45s-3.76-2.21-3.43-4.98c.32-2.77,7.93-1.8,7.74,.92s-2.95,3.73-4.31,4.06Z"/></g></g></g></g></svg>